<svg xmlns="http://www.w3.org/2000/svg" xmlns:xlink="http://www.w3.org/1999/xlink" width="139" height="52" viewBox="0 0 139 52">
    <defs>
        <path id="y4nhvsoyxa" d="M0 0.602L138.965 0.602 138.965 50.025 0 50.025z"/>
    </defs>
    <g fill="none" fill-rule="evenodd">
        <g>
            <g>
                <g>
                    <g>
                        <path fill="#AEB0B5" d="M124.25 14.07c-.922 0-1.311.837-1.372 1.443h2.597c.013-.546-.23-1.443-1.225-1.443zm-58.055 3.24c0 .582.377.85.85.85.607 0 1.03-.389 1.177-.814.036-.11.036-.219.036-.328v-.812c-1.056-.013-2.063.205-2.063 1.103zm28.724-3.18c-1.056 0-1.481 1.031-1.481 2.014 0 1.142.57 2.003 1.469 2.003.85 0 1.443-.825 1.443-2.026 0-.923-.412-1.991-1.431-1.991zm-10.029-.06c-.922 0-1.31.837-1.371 1.443h2.597c.012-.546-.23-1.443-1.226-1.443zm-10.744.144c-.606 0-1.164.438-1.322 1.093-.025.11-.05.243-.05.388v.96c0 .12.013.242.037.351.158.607.68 1.044 1.323 1.044.935 0 1.505-.74 1.505-1.942 0-1.043-.498-1.894-1.493-1.894zm52.7 19.301h-7.65c.03 1.132.4 1.995 1.11 2.592.644.537 1.477.804 2.5.804 1.137 0 2.165-.18 3.094-.547l.402 1.773c-1.083.476-2.368.707-3.851.707-1.776 0-3.173-.521-4.187-1.567-1.014-1.046-1.527-2.451-1.527-4.213 0-1.733.476-3.17 1.417-4.324.997-1.227 2.334-1.84 4.015-1.84 1.658 0 2.907.613 3.754 1.84.675.979 1.015 2.184 1.015 3.616 0 .454-.033.84-.092 1.16zM116.322 15.55v3.544h-1.492v-8.617h1.492v3.507h.025c.182-.278.437-.509.74-.667.303-.17.655-.267 1.032-.267 1.007 0 2.063.667 2.063 2.56v3.484h-1.493v-3.325c0-.85-.316-1.505-1.14-1.505-.583 0-.996.388-1.165.837-.05.134-.062.29-.062.449zm-.387 13.851c-.25-.045-.52-.064-.802-.064-.897 0-1.588.339-2.078 1.013-.426.6-.637 1.345-.637 2.264v6.02h-2.55v-7.866c0-1.314-.022-2.519-.068-3.608h2.219l.095 2.196h.07c.266-.752.69-1.36 1.274-1.814.568-.413 1.183-.613 1.844-.613.234 0 .449.013.633.044V29.4zm-6.544-16.217h.837v-1.105l1.469-.413v1.518h1.42V14.3h-1.42v2.609c0 .729.194 1.093.764 1.093.267 0 .413-.013.583-.062l.024 1.129c-.219.085-.619.158-1.08.158-.558 0-1.008-.182-1.286-.485-.328-.34-.474-.886-.474-1.663v-2.78h-.837v-1.115zm-2.635 23.967c-1.058 1.16-2.459 1.742-4.2 1.742-1.688 0-3.034-.557-4.032-1.675-.998-1.115-1.497-2.53-1.497-4.227 0-1.777.515-3.234 1.545-4.366 1.033-1.137 2.418-1.696 4.165-1.696 1.69 0 3.042.553 4.065 1.676.973 1.08 1.462 2.484 1.462 4.199 0 1.768-.5 3.21-1.508 4.347zM94.858 19.227c-1.663 0-2.962-1.14-2.962-3.046 0-1.942 1.275-3.13 3.059-3.13 1.76 0 2.937 1.237 2.937 3.032 0 2.173-1.53 3.144-3.034 3.144zm1.438 9.843h-2.814v5.577c0 1.415.5 2.117 1.492 2.117.456 0 .83-.033 1.131-.11l.073 1.931c-.505.19-1.164.284-1.983.284-1.002 0-1.795-.303-2.359-.92-.572-.61-.854-1.644-.854-3.091V29.07h-1.675v-1.91h1.675v-2.1l2.5-.756v2.856h2.814v1.91zm-8.988 8.406c-1.042.93-2.485 1.391-4.336 1.391-1.716 0-3.088-.332-4.124-.989l.592-2.124c1.117.657 2.344.99 3.679.99.964 0 1.71-.218 2.245-.648.532-.431.8-1.01.8-1.741 0-.638-.22-1.181-.659-1.624-.445-.44-1.17-.847-2.195-1.227-2.782-1.036-4.177-2.555-4.177-4.553 0-1.308.487-2.38 1.472-3.214.984-.831 2.286-1.25 3.91-1.25 1.446 0 2.65.254 3.612.754l-.643 2.078c-.897-.486-1.917-.733-3.053-.733-.9 0-1.604.229-2.11.659-.424.398-.638.88-.638 1.445 0 .624.245 1.146.731 1.56.426.377 1.198.785 2.312 1.224 1.374.547 2.378 1.196 3.025 1.938.644.74.968 1.658.968 2.759 0 1.354-.474 2.459-1.411 3.305zM74.474 19.227c-.765 0-1.445-.29-1.87-1.02h-.023l-.073.887h-1.274c.025-.401.049-1.056.049-1.663v-6.954h1.491v3.52h.025c.364-.57 1.007-.947 1.893-.947 1.445 0 2.476 1.202 2.463 2.997 0 2.125-1.346 3.18-2.681 3.18zm-1.75 18.16c-.951 1.002-2.128 1.506-3.538 1.506-1.519 0-2.61-.542-3.273-1.63v6.025h-2.55V30.93c0-1.228-.033-2.483-.095-3.771h2.238l.147 1.817h.043c.856-1.364 2.143-2.048 3.874-2.048 1.354 0 2.483.53 3.388 1.604.907 1.068 1.358 2.48 1.358 4.224 0 1.958-.53 3.494-1.593 4.63zM61.278 19.093h1.492v-8.616h-1.492v8.616zm-1.161 18.292c-.948 1.003-2.13 1.507-3.537 1.507-1.523 0-2.612-.542-3.275-1.63v6.025h-2.548V30.93c0-1.228-.033-2.483-.098-3.771h2.243l.14 1.817h.045c.854-1.364 2.144-2.048 3.876-2.048 1.354 0 2.48.53 3.39 1.604.903 1.068 1.357 2.48 1.357 4.224 0 1.958-.53 3.494-1.593 4.63zm-9.984-19.92c0-1.48 1.323-2.244 3.508-2.231v-.098c0-.388-.159-1.031-1.202-1.031-.583 0-1.189.182-1.59.437l-.29-.971c.435-.268 1.2-.522 2.135-.522 1.892 0 2.44 1.202 2.44 2.5v2.124c0 .534.023 1.056.097 1.42h-1.349l-.108-.656h-.036c-.352.462-.972.79-1.748.79-1.19 0-1.857-.862-1.857-1.761zm-3.072 1.628h-1.469l-2.197-5.91h1.615l.957 2.997c.171.522.292.995.401 1.48h.037c.11-.485.243-.947.4-1.48l.948-2.997h1.565l-2.257 5.91zm-.58 19.54l-1.486-4.67h-5.171l-1.418 4.67h-2.642l5.119-15.912h3.167l5.148 15.912h-2.717zm-18.016-.598c0 1.441-1.175 2.609-2.615 2.609H14.642c-1.442 0-2.617-1.168-2.617-2.61V13.13c0-1.44 1.175-2.612 2.617-2.612h11.209c1.44 0 2.615 1.171 2.615 2.612v24.907zm9.94-27.122h1.905l2.658 8.18h-1.614l-.74-2.319h-2.586l-.704 2.319h-1.541l2.622-8.18zm19.037 8.18h1.491v-5.91h-1.491v5.91zm.752-8.374c.51 0 .826.352.838.813 0 .436-.328.801-.85.801-.498 0-.825-.365-.825-.801 0-.46.34-.813.837-.813zm8.825 3.386c-.582 0-1.188.182-1.589.437l-.291-.971c.436-.268 1.2-.522 2.135-.522 1.894 0 2.44 1.202 2.44 2.5v2.124c0 .534.024 1.056.096 1.42h-1.347l-.109-.656h-.036c-.352.462-.971.79-1.747.79-1.19 0-1.857-.862-1.857-1.761 0-1.48 1.322-2.245 3.507-2.232v-.098c0-.388-.159-1.031-1.202-1.031zm11.838 4.987h1.491v-8.616h-1.491v8.616zm6.118-6.043c1.916 0 2.548 1.578 2.548 2.876 0 .28-.024.498-.049.631H83.52c.036 1.068.862 1.53 1.82 1.53.692 0 1.177-.11 1.639-.268l.218 1.02c-.51.218-1.213.375-2.063.375-1.917 0-3.046-1.176-3.046-2.984 0-1.64.996-3.18 2.889-3.18zm15.674.134l.072.886h.037c.266-.462.91-1.02 1.893-1.02 1.031 0 2.1.667 2.1 2.536v3.508h-1.493v-3.338c0-.849-.316-1.492-1.129-1.492-.594 0-1.007.424-1.165.873-.05.122-.073.304-.073.474v3.483H99.4v-4.15c0-.68-.024-1.25-.048-1.76h1.299zm23.685-.134c1.917 0 2.549 1.578 2.549 2.876 0 .28-.025.498-.05.631h-3.956c.037 1.068.862 1.53 1.821 1.53.69 0 1.177-.11 1.638-.268l.218 1.02c-.51.218-1.213.375-2.063.375-1.916 0-3.045-1.176-3.045-2.984 0-1.64.994-3.18 2.888-3.18zm-84.606.582c-.159-.497-.292-1.055-.413-1.528h-.025c-.12.473-.255 1.043-.388 1.528l-.63 2.015h2.099l-.643-2.015zm13.913 3.714c.035-.11.035-.219.035-.328v-.812c-1.055-.013-2.062.205-2.062 1.103 0 .583.376.85.85.85.606 0 1.03-.388 1.177-.813zM121.98 28.67c-.832 0-1.508.355-2.029 1.044-.425.548-.679 1.21-.756 1.978h5.312c.013-.753-.149-1.403-.494-1.958-.443-.704-1.12-1.064-2.033-1.064zm-79.582-3.82h-.045c-.16.675-.41 1.673-.758 2.997l-1.323 4.156h4.272l-1.34-4.156c-.145-.427-.415-1.427-.806-2.998zm26.346 4.103c-.632 0-1.196.207-1.71.624-.511.423-.847.97-1.006 1.647-.078.316-.115.574-.115.78v1.91c0 .836.252 1.541.766 2.116.51.569 1.176.858 1.991.858.965 0 1.711-.367 2.247-1.11.536-.738.806-1.714.806-2.93 0-1.114-.254-2.036-.756-2.758-.555-.752-1.295-1.137-2.223-1.137zm33.9-.159c-1.02 0-1.8.454-2.333 1.365-.461.75-.687 1.666-.687 2.75 0 1.055.226 1.956.687 2.708.546.91 1.317 1.363 2.314 1.363.97 0 1.735-.46 2.283-1.392.476-.761.713-1.674.713-2.724 0-1.05-.227-1.955-.682-2.705-.542-.911-1.302-1.365-2.296-1.365zm-46.51.159c-.627 0-1.195.207-1.708.624-.513.423-.846.97-1.004 1.647-.078.316-.116.574-.116.78v1.91c0 .836.25 1.541.766 2.116.51.569 1.176.858 1.993.858.958 0 1.71-.367 2.245-1.11.535-.738.8-1.714.8-2.93 0-1.114-.249-2.036-.753-2.758-.553-.752-1.293-1.137-2.222-1.137zm-42.519 6.441h13.262V15.78H13.615v19.614zm6.63 1.158c-.744 0-1.35.609-1.35 1.355 0 .744.606 1.35 1.35 1.35.746 0 1.35-.606 1.35-1.35 0-.746-.604-1.355-1.35-1.355zm-1.3-22.773h2.599c.17 0 .309-.14.309-.303 0-.172-.139-.311-.309-.311h-2.599c-.164 0-.306.139-.306.311 0 .163.142.303.306.303z" transform="translate(-315 -6624) translate(0 5984.8) translate(142 95.2) translate(173 544)"/>
                        <g transform="translate(-315 -6624) translate(0 5984.8) translate(142 95.2) translate(173 544) translate(0 .26)">
                            <mask id="ksn5sfyi4b" fill="#fff">
                                <use xlink:href="#y4nhvsoyxa"/>
                            </mask>
                            <path fill="#AEB0B5" d="M6.662 2.327c-2.722 0-4.937 2.215-4.937 4.937v36.107c0 2.718 2.215 4.93 4.937 4.93h125.64c2.723 0 4.939-2.212 4.939-4.93V7.264c0-2.722-2.216-4.937-4.938-4.937H6.662zm125.64 47.698H6.663C2.988 50.025 0 47.04 0 43.371V7.264C0 3.591 2.988.602 6.662.602h125.64c3.675 0 6.664 2.989 6.664 6.662v36.107c0 3.67-2.989 6.654-6.663 6.654z" mask="url(#ksn5sfyi4b)"/>
                        </g>
                    </g>
                </g>
            </g>
        </g>
    </g>
</svg>
