<svg width="70" height="48" fill="none" xmlns="http://www.w3.org/2000/svg">
    <rect x=".5" y=".5" width="69" height="47" rx="5.5" fill="#fff" stroke="#D9D9D9"/>
    <path d="M44.636 24.575c1.028.022 2.06-.046 3.084.035 1.036.193 1.286 1.762.366 2.276-.629.338-1.375.126-2.056.185h-1.394v-2.496zm3.678-2.826c.228.805-.548 1.529-1.324 1.418h-2.354c.017-.76-.032-1.585.024-2.305.943.027 1.895-.054 2.832.043.403.1.74.432.822.844zM53.978 9.8c.044 1.538.006 3.158.019 4.728-.003 6.383.006 12.765-.005 19.147-.041 2.392-2.161 4.47-4.536 4.518-2.378.01-4.756.002-7.134.005v-9.65c2.59-.013 5.183.028 7.773-.02 1.201-.075 2.517-.868 2.573-2.19.142-1.328-1.11-2.246-2.299-2.391-.457-.012-.443-.133 0-.186 1.134-.245 2.024-1.419 1.69-2.594-.284-1.236-1.65-1.714-2.786-1.712-2.317-.015-4.634-.002-6.95-.006.014-1.802-.032-3.605.024-5.405.184-2.349 2.357-4.286 4.699-4.243h6.932V9.8z" fill="url(#a)"/>
    <path d="M16.141 14.289c.06-2.389 2.188-4.45 4.56-4.485 2.37-.007 4.739-.001 7.107-.003-.006 7.99.013 15.981-.01 23.97-.09 2.36-2.196 4.382-4.543 4.424-2.373.008-4.747.001-7.12.003v-9.974c2.305.545 4.723.777 7.075.416 1.406-.227 2.944-.917 3.42-2.375.35-1.248.153-2.561.205-3.842V19.45h-4.07c-.018 1.966.037 3.937-.03 5.901-.11 1.207-1.305 1.975-2.444 1.934-1.412.015-4.21-1.024-4.21-1.024-.008-3.685.04-8.3.06-11.972z" fill="url(#b)"/>
    <path d="M29.326 20.65c-.214.045-.043-.73-.098-1.025.015-1.86-.03-3.72.025-5.579.183-2.358 2.373-4.3 4.725-4.245h6.925c-.007 7.99.012 15.981-.01 23.971-.092 2.36-2.197 4.381-4.544 4.423-2.373.009-4.747.002-7.12.004V27.27c1.62 1.33 3.824 1.537 5.843 1.54 1.523 0 3.036-.235 4.515-.586v-2.002c-1.666.83-3.625 1.358-5.472.881-1.289-.32-2.224-1.566-2.203-2.896-.15-1.382.661-2.842 2.02-3.253 1.687-.529 3.526-.125 5.108.562.338.177.682.398.547-.169v-1.573c-2.645-.63-5.46-.861-8.117-.177-.77.217-1.519.546-2.144 1.051z" fill="url(#c)"/>
    <defs>
        <linearGradient id="a" x1="42.242" y1="23.392" x2="53.923" y2="23.392" gradientUnits="userSpaceOnUse">
            <stop stop-color="#58B03A"/>
            <stop offset="1" stop-color="#55B330"/>
        </linearGradient>
        <linearGradient id="b" x1="15.887" y1="24.272" x2="27.617" y2="24.272" gradientUnits="userSpaceOnUse">
            <stop stop-color="#0F6EB6"/>
            <stop offset="1" stop-color="#006DBA"/>
        </linearGradient>
        <linearGradient id="c" x1="29.211" y1="23.668" x2="40.9" y2="23.668" gradientUnits="userSpaceOnUse">
            <stop stop-color="#DE0D3D"/>
            <stop offset="1" stop-color="#E30138"/>
        </linearGradient>
    </defs>
</svg>
