<svg width="70" height="48" fill="none" xmlns="http://www.w3.org/2000/svg">
    <rect x=".5" y=".5" width="69" height="47" rx="5.5" fill="#1F72CD" stroke="#D9D9D9"/>
    <path fill-rule="evenodd" clip-rule="evenodd" d="M12.55 17 6 31.494h7.84l.973-2.311h2.221l.972 2.31h8.63V29.73l.77 1.764h4.464l.769-1.802v1.802h17.948l2.182-2.251 2.044 2.25 9.219.02-6.57-7.226L64.032 17h-9.076l-2.125 2.21L50.852 17H31.327l-1.677 3.74L27.934 17H20.11v1.704L19.24 17h-6.69zm1.516 2.058h3.822l4.344 9.828v-9.828h4.187l3.355 7.047 3.093-7.047h4.166v10.4h-2.535l-.02-8.15-3.696 8.15h-2.268l-3.716-8.15v8.15h-5.214l-.989-2.331h-5.341l-.986 2.33H9.473l4.592-10.399zm35.592 0H39.352v10.394h10.147l3.27-3.445 3.153 3.445h3.295l-4.79-5.167 4.79-5.227h-3.152l-3.254 3.405-3.153-3.405zm-33.732 1.76-1.76 4.153h3.517l-1.757-4.153zm25.97 2.292v-1.9h6.432l2.806 3.036-2.93 3.053h-6.307v-2.073h5.623V23.11h-5.623z" fill="#fff"/>
</svg>
