<svg width="70" height="48" fill="none" xmlns="http://www.w3.org/2000/svg">
    <rect x=".5" y=".5" width="69" height="47" rx="5.5" fill="#fff" stroke="#D9D9D9"/>
    <path fill-rule="evenodd" clip-rule="evenodd" d="M55.779 16.698c-.696 0-1.465.389-1.771 1.086l-3.256 7.463-1.172-7.463c-.138-.697-.612-1.086-1.362-1.086h-4.124l3.527 12.393a1.8 1.8 0 0 1 .03.779c-.185 1.034-1.173 1.873-2.208 1.873h-2.309c-.587 0-.973.363-1.162 1.186L41.46 36h4.068c2.121 0 4.613-1.066 6.276-4.014l8.144-15.288h-4.168zM15.743 13c1.218 0 1.807.486 1.593 1.707l-.352 1.989h2.799l-.617 3.494h-2.8l-.762 4.327c-.263 1.507 1.229 1.708 2.085 1.708.17 0 .312-.004.413-.01l-.684 3.897c-.211.022-.43.051-.89.051-2.124 0-6.143-.569-5.353-5.052l.865-4.92H10l.614-3.495h2.02l.65-3.696h2.46z" fill="#2F3842"/>
    <path fill-rule="evenodd" clip-rule="evenodd" d="m39.258 16.856-.718 4.074a2.732 2.732 0 0 1-.908 5.148l-.718 4.073a6.8 6.8 0 0 0 7.184-6.786 6.8 6.8 0 0 0-4.84-6.509zM36.058 25.8a2.735 2.735 0 0 1-1.494-2.435 2.737 2.737 0 0 1 2.403-2.71l.718-4.074a6.257 6.257 0 0 0-.385-.014 6.8 6.8 0 0 0-6.8 6.798c0 3.07 2.04 5.67 4.841 6.512l.717-4.077z" fill="#00A6B6"/>
    <path fill-rule="evenodd" clip-rule="evenodd" d="M21.403 16.698h2.405c1.218 0 1.804.487 1.59 1.709l-.264 1.477c.896-1.818 2.84-3.319 4.832-3.319.262 0 .514.052.514.052l-.778 4.406s-.349-.08-.893-.08c-1.062 0-2.858.336-3.858 2.332-.239.492-.422 1.09-.549 1.811l-.87 4.95h-4.48l2.351-13.338z" fill="#2F3842"/>
</svg>
