<svg width="52" height="33" viewBox="0 0 52 33" fill="none" xmlns="http://www.w3.org/2000/svg">
    <path d="M34.266.065c2.328-.17 4.634-.043 6.84.793 3.7 1.337 6.893 3.98 8.802 7.478 2.489 4.22 2.635 9.477 1.082 14.054-1.28 3.302-3.562 6.243-6.55 8.117-2.258 1.526-5.057 2.27-7.737 2.479-3.766.132-7.701-1.036-10.631-3.484 2.942-2.567 5.16-5.99 5.774-9.923.584-2.963.265-6.058-.708-8.897a17.077 17.077 0 0 0-5.13-7.18C28.43 1.648 31.23.383 34.266.066z" fill="#F79C1D"/>
    <path d="M16.642.022c3.434.046 6.616 1.375 9.33 3.456-2.742 2.389-4.73 5.45-5.66 9.001-1.154 5.053-.033 10.54 3.256 14.55.75.892 1.592 1.712 2.392 2.56-1.982 1.402-4.17 2.642-6.574 3.076-3.595.734-7.558.28-10.783-1.55-3.103-1.677-5.659-4.396-7.093-7.658-1.571-3.28-1.857-7.078-1.13-10.62.99-4.186 3.473-7.954 7.086-10.256C10.236.75 13.338-.104 16.642.022z" fill="#E02020"/>
    <path d="m25.972 3.478.036.024a17.078 17.078 0 0 1 5.13 7.18c.973 2.84 1.292 5.934.708 8.897-.613 3.933-2.832 7.355-5.774 9.923l-.112.087c-.8-.848-1.642-1.668-2.392-2.559-3.289-4.01-4.41-9.498-3.255-14.55.93-3.552 2.918-6.613 5.659-9.002z" fill="#FF4307"/>
</svg>
