<svg width="70" height="48" fill="none" xmlns="http://www.w3.org/2000/svg">
    <rect x=".5" y=".5" width="69" height="47" rx="5.5" fill="#fff" stroke="#D9D9D9"/>
    <path d="M21.655 10.002h11.032c1.54 0 2.498 1.255 2.139 2.8l-5.137 22.05c-.362 1.54-1.904 2.796-3.445 2.796h-11.03c-1.538 0-2.498-1.256-2.139-2.796l5.139-22.05c.359-1.545 1.9-2.8 3.442-2.8z" fill="#E21836"/>
    <path d="M31.768 10h12.687c1.54 0 .845 1.255.483 2.8l-5.136 22.05c-.36 1.54-.247 2.797-1.79 2.797H25.326c-1.543 0-2.498-1.256-2.136-2.796l5.135-22.05C28.69 11.254 30.228 10 31.77 10z" fill="#00447C"/>
    <path d="M43.952 10h11.031c1.542 0 2.5 1.255 2.138 2.8l-5.136 22.05c-.362 1.54-1.905 2.797-3.447 2.797H37.512c-1.543 0-2.5-1.256-2.139-2.796L40.51 12.8C40.869 11.254 42.409 10 43.952 10z" fill="#007B84"/>
    <path d="M24.536 17.067c-1.134.011-1.47 0-1.577-.026-.04.196-.806 3.727-.808 3.73-.165.714-.285 1.224-.692 1.553a1.233 1.233 0 0 1-.815.283c-.503 0-.796-.25-.845-.724l-.01-.162.154-.963s.803-3.218.947-3.643a.319.319 0 0 0 .012-.048c-1.564.013-1.841 0-1.86-.026-.01.035-.05.235-.05.235l-.82 3.627-.07.307-.137 1.006c0 .299.059.542.176.748.373.653 1.44.751 2.043.751.777 0 1.506-.165 1.998-.466.855-.505 1.079-1.295 1.279-1.997l.092-.36s.828-3.342.968-3.777c.006-.024.008-.037.015-.048zm2.816 2.696c-.2 0-.564.048-.892.209-.119.06-.23.131-.35.201l.108-.386-.06-.065c-.694.14-.849.16-1.49.25l-.054.035c-.075.618-.141 1.082-.417 2.296-.105.448-.214.9-.324 1.346l.03.057c.657-.035.857-.035 1.428-.026l.046-.05c.073-.372.082-.459.243-1.212.076-.357.233-1.142.31-1.421.144-.066.285-.131.419-.131.32 0 .281.28.269.39-.014.187-.13.798-.25 1.322l-.08.338c-.056.25-.117.493-.172.74l.024.05c.648-.035.845-.035 1.399-.026l.065-.05c.1-.58.13-.736.307-1.582L28 21.66c.173-.76.26-1.146.13-1.46-.14-.352-.472-.437-.778-.437zm3.146.796c-.345.066-.564.11-.783.139a34.96 34.96 0 0 1-.76.112l-.026.024-.025.02c-.034.247-.059.461-.105.713-.039.26-.098.557-.196.982-.076.326-.115.44-.158.554-.042.114-.088.226-.173.546l.02.03.017.027c.31-.015.514-.026.723-.027.21-.008.426 0 .761.001l.03-.023.03-.027c.05-.289.056-.366.086-.507.03-.151.08-.36.204-.92.058-.262.124-.523.184-.791.064-.267.13-.53.193-.792l-.01-.032-.012-.03zm.007-1.074c-.313-.184-.862-.126-1.232.13-.369.25-.41.605-.099.792.308.18.86.126 1.226-.131.368-.256.414-.608.105-.79zm1.893 4.279c.633 0 1.282-.175 1.77-.693.377-.42.549-1.045.609-1.302.194-.853.043-1.251-.147-1.494-.29-.37-.8-.488-1.329-.488-.318 0-1.077.032-1.669.578-.425.394-.622.928-.74 1.44-.12.523-.258 1.463.607 1.813.266.114.65.146.899.146zm-.05-1.92c.146-.645.319-1.187.759-1.187.344 0 .37.403.216 1.051-.027.144-.153.679-.323.906-.12.168-.26.27-.415.27-.047 0-.322 0-.326-.408a2.783 2.783 0 0 1 .09-.631zm4.012 1.836.05-.05c.07-.372.08-.459.236-1.212.078-.357.239-1.142.314-1.42.143-.067.282-.132.42-.132.319 0 .28.279.267.39-.011.187-.128.797-.25 1.322l-.075.338c-.058.25-.121.492-.177.74l.024.05c.65-.035.84-.035 1.397-.026l.068-.05c.097-.58.123-.736.306-1.582l.088-.388c.174-.76.262-1.146.133-1.46-.143-.352-.478-.437-.78-.437-.2 0-.566.048-.891.209a5.872 5.872 0 0 0-.348.201l.1-.386-.054-.065c-.694.14-.853.16-1.493.25l-.05.036c-.077.617-.14 1.081-.417 2.296-.105.447-.214.899-.323 1.345l.03.057c.658-.035.854-.035 1.425-.026zm4.776.026c.041-.2.284-1.382.286-1.382 0 0 .207-.868.22-.9 0 0 .065-.09.13-.126h.096c.903 0 1.923 0 2.722-.588.544-.403.916-.999 1.082-1.722.043-.178.075-.389.075-.6 0-.277-.056-.552-.217-.766-.408-.57-1.22-.58-2.156-.585l-.462.004c-1.2.015-1.68.01-1.879-.013-.016.087-.048.242-.048.242l-.43 1.995-1.076 4.433c1.047-.012 1.477-.012 1.657.008zm.797-3.538.454-1.98.015-.101.007-.078.182.019s.942.08.964.083c.372.144.526.514.419.998-.098.443-.385.814-.754.994-.303.152-.675.165-1.058.165h-.248l.019-.1zm2.844 1.713c-.12.515-.26 1.455.6 1.79.275.117.52.152.77.139.264-.014.509-.147.735-.337l-.061.235.039.05c.618-.026.81-.026 1.48-.02l.062-.047c.097-.575.19-1.134.444-2.235.124-.527.248-1.05.375-1.575l-.02-.057c-.692.128-.877.155-1.543.25l-.05.04-.02.157a.951.951 0 0 0-.486-.399c-.296-.116-.991.034-1.589.578-.42.388-.621.92-.736 1.431zm1.454.032c.148-.634.318-1.171.759-1.171.279 0 .426.257.396.696l-.08.355c-.044.189-.092.376-.138.563a1.363 1.363 0 0 1-.163.329c-.114.16-.384.26-.54.26-.043 0-.315 0-.325-.4-.002-.2.04-.406.09-.632zm7.59-2.095-.053-.06c-.685.138-.809.16-1.438.245l-.046.046c-.002.008-.004.02-.008.03l-.002-.01c-.468 1.08-.455.847-.836 1.698l-.004-.104-.095-1.845-.06-.06c-.718.138-.735.16-1.397.245l-.052.046c-.007.023-.007.047-.011.073l.004.01c.083.423.063.328.146.996.038.328.09.658.129.981.065.542.102.809.182 1.636-.448.738-.554 1.017-.985 1.665l.003.007-.303.48c-.034.05-.066.085-.11.1a.457.457 0 0 1-.199.028h-.168l-.25.83.857.015c.503-.002.82-.237.99-.553l.539-.924h-.009l.057-.065c.362-.78 3.12-5.51 3.12-5.51zM44.777 30.73h-.364l1.346-4.45h.446l.142-.458.014.51c-.017.315.231.594.882.548h.753l.26-.857h-.284c-.163 0-.238-.041-.229-.13l-.014-.518h-1.394v.003c-.451.009-1.798.043-2.07.115-.33.085-.678.335-.678.335l.136-.459H42.42l-.272.911-1.364 4.518h-.264l-.26.851h2.599l-.087.284h1.28l.085-.284h.36l.281-.919zm-1.066-3.546c-.209.058-.598.234-.598.234l.346-1.138h1.036l-.25.829s-.32.019-.534.075zm.02 1.625s-.326.041-.54.09a5.285 5.285 0 0 0-.607.265l.357-1.183h1.042l-.252.828zm-.581 1.932h-1.04l.302-.999h1.036l-.298.999zm2.504-2.76h1.499l-.216.697H45.42l-.228.763h1.328l-1.006 1.416a.415.415 0 0 1-.203.17.597.597 0 0 1-.27.078h-.369l-.253.835h.964c.501 0 .797-.228 1.016-.527l.69-.944.148.959a.45.45 0 0 0 .248.325c.096.049.196.132.337.144.151.007.26.012.333.012h.474l.284-.935h-.187c-.107 0-.292-.018-.323-.052-.032-.04-.032-.103-.049-.199l-.15-.961h-.615l.27-.321h1.515l.233-.763h-1.403l.219-.697h1.399l.26-.86h-4.172l-.255.86zm-12.659 2.954.35-1.163h1.438l.263-.866h-1.44l.22-.716h1.407l.26-.838h-3.519l-.255.838h.8l-.214.716h-.801l-.266.88h.8l-.467 1.54c-.063.204.03.281.088.376.06.092.121.153.258.188.14.032.237.05.368.05h1.621l.289-.959-.719.1c-.138 0-.523-.017-.48-.146zm.165-5.57-.364.658c-.078.144-.148.233-.211.274-.056.035-.166.05-.326.05h-.19l-.254.842h.631c.304 0 .537-.112.648-.167.12-.064.151-.028.244-.117l.213-.185h1.971l.262-.877h-1.443l.252-.479H33.16zm2.91 5.587c-.033-.048-.009-.134.043-.311l.539-1.783h1.916c.28-.005.482-.008.613-.017.14-.015.294-.065.46-.156a.863.863 0 0 0 .336-.308c.083-.115.216-.365.33-.75l.678-2.258-1.989.012s-.613.09-.882.19c-.272.111-.661.422-.661.422l.18-.618h-1.23l-1.72 5.705a3.513 3.513 0 0 0-.111.479c-.003.104.131.207.218.285.103.077.255.065.401.077.154.012.372.02.674.02h.944l.29-.98-.845.08a.222.222 0 0 1-.183-.089zm.93-3.3h2.013l-.128.402c-.018.01-.061-.02-.266.004h-1.744l.124-.405zm.403-1.345h2.03l-.146.484s-.957-.01-1.11.018c-.675.117-1.069.477-1.069.477l.295-.979zm1.527 3.09a.215.215 0 0 1-.08.125c-.041.026-.107.035-.206.035h-.287l.017-.488h-1.193l-.048 2.388c-.002.172.014.272.14.352.127.1.515.113 1.038.113h.748l.27-.895-.651.036-.217.013c-.03-.013-.057-.024-.089-.056-.027-.027-.074-.01-.066-.183l.005-.612.683-.028c.368 0 .526-.12.66-.234.129-.11.17-.236.219-.406l.114-.542h-.938l-.12.383z" fill="#FEFEFE"/>
</svg>
