<svg width="70" height="48" fill="none" xmlns="http://www.w3.org/2000/svg">
    <rect x=".5" y=".5" width="69" height="47" rx="5.5" fill="#fff" stroke="#D9D9D9"/>
    <path d="M29.5 47 69 35.5V42a5 5 0 0 1-5 5H29.5z" fill="#FD6020"/>
    <path fill-rule="evenodd" clip-rule="evenodd" d="M61.503 19.222c2.173 0 3.368.967 3.368 2.793a2.613 2.613 0 0 1-2.173 2.794l2.934 3.976H63.35l-2.5-3.868h-.217v3.868h-1.847v-9.563h2.717zm-.87 4.405h.544c1.195 0 1.738-.537 1.738-1.504 0-.86-.543-1.397-1.738-1.397h-.544v2.901zm-8.257 5.158h5.215v-1.612h-3.368v-2.579h3.26v-1.611h-3.26v-2.15h3.368v-1.611h-5.215v9.563zm-5.433-3.116-2.5-6.447h-1.955L46.508 29h.978l4.02-9.778h-1.955l-2.608 6.447zm-22.057-1.612c0 2.687 2.173 4.943 4.89 4.943.869 0 1.63-.215 2.39-.537v-2.15c-.544.645-1.304 1.075-2.173 1.075-1.739 0-3.151-1.29-3.151-3.009v-.214c-.11-1.72 1.303-3.224 3.042-3.331.87 0 1.738.43 2.282 1.074v-2.149c-.652-.43-1.521-.537-2.282-.537-2.825-.215-4.998 2.041-4.998 4.835zm-3.369-1.182c-1.086-.43-1.412-.645-1.412-1.182.108-.645.652-1.182 1.304-1.074.543 0 1.086.322 1.52.752l.979-1.29c-.76-.644-1.739-1.074-2.717-1.074-1.52-.108-2.825 1.074-2.933 2.579v.107c0 1.29.543 2.042 2.282 2.579.434.108.869.322 1.303.537.326.215.544.538.544.967 0 .753-.652 1.397-1.304 1.397h-.109c-.87 0-1.63-.537-1.956-1.29l-1.195 1.183c.652 1.182 1.956 1.826 3.26 1.826 1.738.108 3.15-1.181 3.26-2.9v-.323c-.11-1.29-.652-1.934-2.826-2.794zm-6.302 5.91h1.848v-9.563h-1.848v9.563zm-8.583-9.563H9.89c2.608.107 4.672 2.256 4.564 4.835 0 1.397-.652 2.687-1.739 3.654-.978.752-2.173 1.182-3.368 1.074H6.632v-9.563zm2.39 7.951c.87.108 1.847-.215 2.5-.752.651-.645.977-1.504.977-2.471 0-.86-.326-1.72-.978-2.364-.652-.538-1.63-.86-2.499-.752h-.543v6.34h.543z" fill="#000"/>
    <path fill-rule="evenodd" clip-rule="evenodd" d="M37.707 19c-2.716 0-4.998 2.15-4.998 4.943 0 2.686 2.173 4.943 4.998 5.05 2.825.108 4.998-2.149 5.107-4.943-.109-2.794-2.282-5.05-5.107-5.05z" fill="#FD6020"/>
</svg>
