<svg width="70" height="48" fill="none" xmlns="http://www.w3.org/2000/svg">
    <rect x=".5" y=".5" width="69" height="47" rx="5.5" fill="#fff" stroke="#D9D9D9"/>
    <path d="M38.09 39C45.885 39.038 53 32.584 53 24.734c0-8.584-7.115-14.518-14.91-14.515h-6.709C23.493 10.216 17 16.15 17 24.734 17 32.586 23.493 39.037 31.381 39h6.709z" fill="#0079BE"/>
    <path d="M31.413 11.409c-7.208.002-13.049 5.898-13.051 13.174.002 7.276 5.843 13.172 13.051 13.174 7.21-.002 13.053-5.898 13.053-13.174S38.624 11.411 31.413 11.41zm-8.272 13.174a8.36 8.36 0 0 1 5.31-7.792v15.584a8.358 8.358 0 0 1-5.31-7.792zm11.233 7.795V16.79a8.358 8.358 0 0 1 5.314 7.794 8.36 8.36 0 0 1-5.314 7.794z" fill="#fff"/>
    <path d="M38.09 39C45.885 39.038 53 32.584 53 24.734c0-8.584-7.115-14.518-14.91-14.515h-6.709C23.493 10.216 17 16.15 17 24.734 17 32.586 23.493 39.037 31.381 39h6.709z" fill="#0079BE"/>
    <path d="M31.413 11.409c-7.208.002-13.049 5.898-13.051 13.174.002 7.276 5.843 13.172 13.051 13.174 7.21-.002 13.053-5.898 13.053-13.174S38.624 11.411 31.413 11.41zm-8.272 13.174a8.36 8.36 0 0 1 5.31-7.792v15.584a8.358 8.358 0 0 1-5.31-7.792zm11.233 7.795V16.79a8.358 8.358 0 0 1 5.314 7.794 8.36 8.36 0 0 1-5.314 7.794z" fill="#fff"/>
</svg>
