<svg width="222" height="108" viewBox="0 0 222 108" fill="none" xmlns="http://www.w3.org/2000/svg">
    <path fill-rule="evenodd" clip-rule="evenodd" d="M34.638 48.724c-.94 3.635.724 8.358 4.876 12.524l.127.126c3.125 3.094 5.807 5.231 8.077 6.557l.168.098c1.62.927 2.912 1.37 3.896 1.457.475.046.944-.105 1.32-.418.448-.387.677-.95.616-1.524l-.005-.044c-1.078-9.803-5.552-18.667-11.688-21.926-3.364-1.792-6.483-.344-7.387 3.15zm7.04-2.496c5.822 3.094 10.158 11.598 11.267 21.073l.033.288c.045.347-.087.682-.356.914-.22.184-.494.272-.772.245-.904-.08-2.148-.515-3.759-1.457-2.186-1.278-4.786-3.344-7.825-6.34l-.105-.104c-4.07-4.023-5.683-8.544-4.806-11.937.786-3.037 3.388-4.245 6.323-2.682z" fill="#353E54"/>
    <path fill-rule="evenodd" clip-rule="evenodd" d="M36.255 46.444a.37.37 0 0 1 .506-.02l.03.029.193.193c.15.152.322.328.514.526l.236.245c.57.593 1.195 1.26 1.864 1.993a112.274 112.274 0 0 1 6.194 7.378c2.362 3.084 4.361 6.082 5.883 8.917.478.89.906 1.76 1.28 2.607a.37.37 0 0 1-.676.3 37.785 37.785 0 0 0-1.257-2.556c-1.5-2.796-3.478-5.762-5.818-8.817a111.125 111.125 0 0 0-5.928-7.082l-.225-.247c-.699-.766-1.35-1.46-1.94-2.071l-.257-.266a67.086 67.086 0 0 0-.208-.214l-.293-.297-.095-.094a.37.37 0 0 1-.003-.525z" fill="#353E54"/>
    <path fill-rule="evenodd" clip-rule="evenodd" d="m38.555 58.702.152-.003c.247-.002.566.004.95.023l.073.004c.691.036 1.445.108 2.247.222 2.2.314 4.425.9 6.565 1.822a.37.37 0 0 1-.294.681c-2.075-.895-4.237-1.464-6.375-1.769-.78-.111-1.512-.18-2.182-.216l-.138-.007a15.68 15.68 0 0 0-.838-.019l-.135.003a.37.37 0 0 1-.025-.741z" fill="#353E54"/>
    <path fill-rule="evenodd" clip-rule="evenodd" d="M43.892 47.505a.37.37 0 0 1 .505.141l.105.19.127.232.131.241a77.497 77.497 0 0 1 2.329 4.692 54.09 54.09 0 0 1 1.25 2.973l.078.205c1.001 2.652 1.501 4.793 1.36 6.277a.37.37 0 1 1-.738-.071c.131-1.375-.377-3.499-1.391-6.145a53.38 53.38 0 0 0-1.234-2.933 76.756 76.756 0 0 0-1.831-3.75l-.15-.285c-.113-.215-.222-.42-.325-.61l-.156-.288-.178-.324-.023-.04a.37.37 0 0 1 .141-.505zM44.298 64.275l.03-.001.19-.004c.434-.004.988.013 1.622.066a16.5 16.5 0 0 1 3.044.526c.926.258 1.757.6 2.467 1.036a.37.37 0 0 1-.388.632c-.646-.398-1.414-.713-2.278-.954a15.778 15.778 0 0 0-2.906-.501 16.772 16.772 0 0 0-1.608-.063l-.124.003a.37.37 0 0 1-.05-.74zM71.885 29.944c-4.181.185-8.102 4.101-10.154 10.95l-.062.208-.094.326c-1.423 4.929-2.16 8.994-2.33 12.278l-.005.108c-.122 2.51.096 4.372.52 5.67a2.623 2.623 0 0 0 1.022 1.38c.606.409 1.309.48 1.88.163 9.376-5.104 16.01-14.124 16.116-23.103.062-4.842-2.93-8.155-6.893-7.98zm6.152 7.97c-.102 8.682-6.57 17.476-15.732 22.464-.314.174-.721.132-1.11-.13a1.885 1.885 0 0 1-.732-.994c-.394-1.208-.6-2.98-.483-5.404l.01-.213c.18-3.241.92-7.27 2.343-12.166l.047-.161c1.021-3.501 2.514-6.208 4.329-8.04 1.617-1.632 3.439-2.507 5.209-2.585 3.514-.155 6.176 2.792 6.12 7.23z" fill="#353E54"/>
    <path fill-rule="evenodd" clip-rule="evenodd" d="M74.9 31.588a.37.37 0 1 1 .349.654c-3.802 2.028-6.956 6.891-9.484 13.725-1.207 3.264-2.192 6.764-2.97 10.265l-.073.332c-.216.99-.401 1.918-.558 2.77l-.051.282c-.048.267-.091.513-.128.733l-.07.425-.018.12a.37.37 0 0 1-.735-.087l.005-.039.044-.278.031-.19c.032-.193.069-.407.11-.638l.032-.178c.185-1.03.414-2.177.688-3.413.785-3.53 1.778-7.062 2.998-10.361 2.586-6.99 5.827-11.986 9.83-14.122z" fill="#353E54"/>
    <path fill-rule="evenodd" clip-rule="evenodd" d="M77.763 39.038a.37.37 0 1 1 .301.678 83.024 83.024 0 0 0-6.182 3.056l-.214.119c-2.954 1.64-5.225 3.203-6.494 4.583a.37.37 0 1 1-.545-.502c1.352-1.47 3.715-3.091 6.785-4.788l.111-.061a83.734 83.734 0 0 1 6.238-3.085zM62.162 41.06a.37.37 0 1 1 .738.07l-.028.306c-.445 5-.316 8.998.72 10.357a.371.371 0 0 1-.59.449c-.694-.912-1.026-2.666-1.093-5.11-.05-1.824.052-3.907.253-6.072zM73.793 49.924a.37.37 0 1 1 .463.579c-1.15.922-2.808 1.874-4.846 2.838a64.783 64.783 0 0 1-4.443 1.884l-.241.092c-.399.151-.773.29-1.12.414l-.32.115-.34.118a.37.37 0 0 1-.258-.695l.402-.14.165-.059c.436-.156.923-.336 1.447-.537a64.003 64.003 0 0 0 4.391-1.863c1.99-.94 3.604-1.867 4.7-2.746zM67.265 66.796a.37.37 0 0 1 .062.738c-1.841.156-3.404.967-4.718 2.296-1.007 1.02-1.8 2.272-2.394 3.603a.37.37 0 1 1-.677-.303c.628-1.405 1.468-2.73 2.544-3.82 1.431-1.45 3.154-2.343 5.183-2.514z" fill="#353E54"/>
    <ellipse rx=".79" ry="2.385" transform="rotate(-7.845 504.902 -457.137) skewX(-.012)" fill="#FF4308"/>
    <ellipse rx="2.186" ry=".716" transform="rotate(-39.13 126.906 -64.477) skewX(-.045)" fill="#FF4308"/>
    <ellipse rx=".791" ry="2.383" transform="rotate(-62.703 86.706 -20.692) skewX(-.038)" fill="#FF4308"/>
    <ellipse rx=".717" ry="2.186" transform="rotate(-61.635 91.73 -24.125) skewX(-.038)" fill="#FF4308"/>
    <ellipse rx="2.187" ry=".716" transform="rotate(-65.177 87.225 -17.536) skewX(-.036)" fill="#FF4308"/>
    <path fill-rule="evenodd" clip-rule="evenodd" d="M47.45 38.826a.37.37 0 0 1 .52-.06l.046.036.069.058.07.06a18.357 18.357 0 0 1 1.312 1.291c1.106 1.2 2.211 2.66 3.242 4.382 1.915 3.2 3.35 6.937 4.11 11.228.93 5.26.798 11.106-.593 17.55a.37.37 0 1 1-.724-.156c1.37-6.351 1.501-12.1.587-17.265-.744-4.2-2.146-7.852-4.015-10.976-1.004-1.678-2.079-3.096-3.152-4.26a17.58 17.58 0 0 0-1.032-1.037l-.078-.071a9.475 9.475 0 0 0-.207-.181l-.08-.067-.014-.012a.37.37 0 0 1-.06-.52z" fill="#353E54"/>
    <ellipse rx="1.556" ry="3.162" transform="rotate(-30.298 92.114 -68.67) skewX(-.04)" fill="#FF4308"/>
    <ellipse rx="1.557" ry="3.16" transform="rotate(-88.86 43.197 -3.515) skewX(-.002)" fill="#FF4308"/>
    <ellipse rx="2.829" ry="1.383" transform="rotate(-52.878 63.187 -32.197) skewX(-.044)" fill="#FF4308"/>
    <ellipse rx="1.383" ry="2.829" transform="rotate(-24.468 120.915 -92.45) skewX(-.035)" fill="#FF4308"/>
    <ellipse rx="1.248" ry="2.556" transform="rotate(-83.966 47.23 -8.015) skewX(-.01)" fill="#FF4308"/>
    <path fill-rule="evenodd" clip-rule="evenodd" d="M70.74 72.972H44.495c-1.552 0-2.645 1.693-2.263 3.393l5.802 25.996a.37.37 0 0 0 .362.289h18.432a.37.37 0 0 0 .362-.289l5.802-25.997c.382-1.697-.708-3.392-2.25-3.392zm0 .742h.033c1.01.025 1.777 1.235 1.495 2.488L66.53 101.91H48.692l-5.738-25.706c-.285-1.27.502-2.49 1.54-2.49H70.74zM197.753 36.56l-5 .037a4.02 4.02 0 0 1 1.63 1.458 4.014 4.014 0 0 1 .247 3.892L168.407 97.45h6.346l26.321-55.675c1.161-2.434-.629-5.239-3.321-5.214z" fill="#353E54"/>
    <path fill-rule="evenodd" clip-rule="evenodd" d="m130.728 40.675 54.704-.52c2.21-.011 3.679 2.188 2.729 4.09l-21.976 46.606a6.74 6.74 0 0 1-6.012 3.78l-72.988.372c-1.815.012-3.012-1.89-2.21-3.522l12.531-24.204-4.63-.223L77.902 97.77l-55.852.05s-1.247 8.179 9.173 8.686l42.482-.136-.124.247 73.284-.26v-6.079a2.762 2.762 0 0 1 2.766-2.767h18.222a.41.41 0 0 1 .012-.272l26.235-55.563a3.306 3.306 0 0 0-.198-3.176 3.266 3.266 0 0 0-2.765-1.52h-.025a.382.382 0 0 1-.37-.32l-58.889.543" fill="#353E54"/>
    <path fill-rule="evenodd" clip-rule="evenodd" d="M160.099 65.83h-13.074c-.852 0-1.198-.691-.778-1.544l3.432-6.931c.42-.853 1.457-1.545 2.321-1.545h13.074c.852 0 1.198.692.778 1.544l-3.432 6.932c-.432.853-1.469 1.544-2.321 1.544z" fill="#FF4308"/>
    <path fill-rule="evenodd" clip-rule="evenodd" d="M161.407 55.44c.788 0 1.169.668.84 1.382l-.014.03-4.101 8.258c-.311.607-1.043 1.079-1.7 1.079a.37.37 0 0 1-.022-.74l.022-.001c.362 0 .827-.294 1.023-.642l.016-.03 4.097-8.251c.121-.249.069-.344-.161-.344a.37.37 0 0 1 0-.741z" fill="#353E54"/>
    <path fill-rule="evenodd" clip-rule="evenodd" d="m159.099 65.72-3.284-3.621a.573.573 0 0 0-.951.16l-2.222 5.017a.572.572 0 0 0 .667.79l1.876-.469.21 3.46a.81.81 0 0 0 .976.741l1.37-.296a.806.806 0 0 0 .593-1.05l-1.161-3.361 1.654-.42c.408-.112.556-.63.272-.952zM156.951 74.579h-14.642c-.569 0-1.21.415-1.489.952l-1.756 3.528c-.325.668.002 1.314.726 1.314h14.642c.57 0 1.213-.432 1.5-.975l1.745-3.505c.324-.668-.002-1.314-.726-1.314zm-14.642.741h14.642c.138 0 .16.043.061.246l-1.739 3.493c-.161.304-.561.573-.841.573h-14.67c-.113-.007-.125-.058-.034-.246l1.739-3.493c.15-.308.552-.573.842-.573zM188.062 43.85a.37.37 0 0 1 .021.74l-.021.001h-78.605a.37.37 0 0 1-.022-.74H188.062z" fill="#353E54"/>
    <path fill-rule="evenodd" clip-rule="evenodd" d="M173.636 40.316a.37.37 0 0 1 .687.277l-.008.02-1.618 3.706a.371.371 0 0 1-.687-.276l.009-.02 1.617-3.707zM161.67 40.37a.37.37 0 0 1 .67.317l-.01.02-1.889 3.707a.37.37 0 0 1-.669-.317l.009-.02 1.889-3.707zM177.615 47.828c1.904-.014 3.186 1.874 2.41 3.545l-17.692 36.774a5.432 5.432 0 0 1-4.776 3.036l-.062.001-63.603.21c-1.619.015-2.694-1.675-2.007-3.143l.022-.044 11.037-21.005a.37.37 0 0 1 .665.325l-.01.02-11.032 20.997a1.463 1.463 0 0 0 1.287 2.109l63.637-.21a4.69 4.69 0 0 0 4.149-2.567l.026-.053L179.334 51.1c.574-1.17-.311-2.514-1.673-2.53h-.041l-49.223.309a.37.37 0 0 1-.026-.741h.022l49.222-.31zM185.444 97.09h-35.963a3.132 3.132 0 0 0-3.135 3.139v6.166c0 .204.166.37.37.37h41.494a.37.37 0 0 0 .37-.37v-6.166c0-1.737-1.4-3.138-3.136-3.138zm0 .742h.043a2.391 2.391 0 0 1 2.352 2.397v5.795h-40.753v-5.795a2.392 2.392 0 0 1 2.395-2.397h35.963z" fill="#353E54"/>
    <path fill-rule="evenodd" clip-rule="evenodd" d="M140.272 54.797h-12.161v10.824c0 .927-.753 1.693-1.691 1.693h-19.346l-6.617 12.726c-.95 1.68-.346 3.052 1.333 3.052h22.58c1.679 0 3.815-1.372 4.766-3.052l12.481-22.178c.939-1.693.334-3.065-1.345-3.065z" fill="#353E54"/>
    <path fill-rule="evenodd" clip-rule="evenodd" d="M141.741 18.904c-2.988-8.797-6.26-10.613-8.568-9.97-2.309.642-8.568 3.755-6.395 6.597 2.173 2.842 5.308 12.69 5.308 12.69-9.049 1.556-17.172 4.818-18.358 5.312.321.383 5.247 6.697-1.432 9.205-4.382 1.644-9.247-.519-12.148-3.274l2.568-1.557c-1.012.396-4.864 2.027-8.716 5.474-4.494 4.015-13.605 13.072-16.05 16.569-2.024 2.903-.814 6.215.272 7.117 1.087.902 2.852 3.36 10.877.642a61.606 61.606 0 0 1 4.308-1.285 1.717 1.717 0 0 1-.197-.803v-18.25c0-.926.753-1.692 1.691-1.692h31.519c.926 0 1.691.754 1.691 1.693V65.62c0 .927-.753 1.693-1.691 1.693h-23.247l9.876 9.588s3.161 2.68 4.605 3.99c.087.235.21.42.371.544 2.061 1.619 4.728 1.656 7.95.643a6.302 6.302 0 0 0 3.667-3.04l11.864-22.29c.408-.765 0-1.705-.839-1.94l-3.729-1.012c-5.259-2.051-9.469-10.305-9.469-10.305 9.383-3.237 16.729-11.91 16.729-11.91s.53-3.868-2.457-12.678z" fill="#353E54"/>
    <path fill-rule="evenodd" clip-rule="evenodd" d="M126.42 45.308H94.901a2.065 2.065 0 0 0-2.061 2.063v18.25c0 1.14.927 2.063 2.061 2.063h31.519a2.066 2.066 0 0 0 2.062-2.063V47.37c0-1.14-.928-2.063-2.062-2.063zm-31.519.741h31.519c.726 0 1.321.593 1.321 1.322v18.25c0 .73-.595 1.322-1.321 1.322H94.901a1.324 1.324 0 0 1-1.32-1.322V47.37c0-.726.591-1.322 1.32-1.322z" fill="#353E54"/>
    <path fill-rule="evenodd" clip-rule="evenodd" d="M114.877 52.252h-6.124a.938.938 0 0 1-.938-.94v-2.297c0-.52.42-.94.938-.94h6.124c.518 0 .938.42.938.94v2.298c0 .519-.42.939-.938.939z" fill="#FF4308"/>
    <path fill-rule="evenodd" clip-rule="evenodd" d="M116.864 45.308c1.295 0 2.348.99 2.37 2.233l.001.04v17.817c0 1.258-1.07 2.274-2.371 2.274a.37.37 0 0 1 0-.742c.887 0 1.609-.672 1.629-1.495l.001-.037V47.582c0-.844-.722-1.533-1.63-1.533a.37.37 0 0 1 0-.74z" fill="#353E54"/>
    <path fill-rule="evenodd" clip-rule="evenodd" d="M94.831 31.234a.37.37 0 1 1 .61.422c-.416.6-.663 1.463-.663 2.396 0 1.736.833 3.097 1.777 3.126a.37.37 0 0 1-.023.741c-1.432-.045-2.495-1.78-2.495-3.867 0-1.078.29-2.088.794-2.818zM113.189 24.18a.37.37 0 0 1 .453.263c.122.461.185.951.185 1.454 0 2.106-1.094 3.868-2.543 3.868-.106 0-.204-.01-.336-.029a.37.37 0 0 1 .104-.734l.063.009c.068.008.12.012.169.012.947 0 1.802-1.377 1.802-3.126 0-.44-.055-.865-.16-1.264a.37.37 0 0 1 .263-.453z" fill="#FF4308"/>
    <path fill-rule="evenodd" clip-rule="evenodd" d="M109.36 31.791a.37.37 0 0 1 .471.192l.008.02 1.022 2.637 2.681-1.434a.37.37 0 0 1 .439.068l.016.017c.197.23.557.732.886 1.29.51.865.9 1.767 1.105 2.666.585 2.576-.448 4.669-3.562 5.838-2.146.805-4.508.774-6.872.018-2.086-.666-4.092-1.88-5.66-3.37a.37.37 0 0 1 .042-.573l.02-.013 2.479-1.507-2.313-4.862a.371.371 0 0 1 .156-.484l.02-.01a.37.37 0 0 1 .483.155l.01.02 2.457 5.165a.371.371 0 0 1-.123.464l-.019.012-2.344 1.424.042.038c3.228 2.842 7.626 4.167 11.248 2.87l.114-.041c2.756-1.035 3.605-2.754 3.099-4.98-.185-.815-.546-1.649-1.02-2.453-.174-.295-.354-.57-.529-.814l-.058-.081-.042-.056-2.775 1.484a.37.37 0 0 1-.511-.172l-.009-.021-1.172-3.027a.37.37 0 0 1 .211-.48zM77.95 59.937c-2.444 2.595-.814 6.215.272 7.117 1.087.902 2.852 3.361 10.877.643 5.16-1.755 9.37-2.422 11.703-2.681 0 0 2.161-5.474.667-9.737 0 0-8.025-.123-14.012 2.336M109.34 55.652c1.194-.138 1.86.896.906 1.674l-.06.048-1.142.902a.37.37 0 1 1-.459-.582l1.175-.928c.108-.085.168-.163.187-.221.007-.024.006-.033-.001-.044-.017-.027-.061-.06-.133-.084a.899.899 0 0 0-.385-.029l-.043.007c-.636.104-2.858.956-4.253 1.605a.37.37 0 1 1-.313-.672l.163-.075c1.503-.686 3.701-1.52 4.358-1.6z" fill="#353E54"/>
    <path fill-rule="evenodd" clip-rule="evenodd" d="M102.073 57.773c2.156-.525 4.443-.514 6.724-.113 1.457.257 2.78.658 3.424.936a.995.995 0 0 1 .573 1.01c-.059.487-.475.812-1.109.85a3.866 3.866 0 0 1-.215.004l-.071-.001.171.057c.558.19.918.342 1.033.452l.009.009c.346.357.274.886-.102 1.232-.345.317-.878.435-1.453.3l-.517-.129.226.109c.379.183.621.311.72.383l.01.007c.334.255.225.629-.072.862-.189.148-.476.27-.813.347a3.73 3.73 0 0 1-.661.087l-.053.001.007.023a.518.518 0 0 1-.014.278l-.009.026a.837.837 0 0 1-.294.359c-.239.18-.596.33-1.003.413-.935.193-1.977.038-2.939-.532l-.073-.045-.071.025a9.216 9.216 0 0 1-.656.194c-.919.236-1.858.344-2.745.248a4.823 4.823 0 0 1-1.02-.218.371.371 0 0 1 .235-.703c.269.09.558.151.865.184.786.085 1.64-.013 2.481-.23.193-.05.373-.102.535-.155l.068-.023a8.04 8.04 0 0 0 .104-.036l.112-.041a.368.368 0 0 1 .344.036c.855.577 1.789.74 2.611.57.209-.043.395-.107.538-.177l.031-.016-.1-.048c-.2-.095-.473-.214-.799-.35l-.288-.119-.242-.098-.303-.12a82.447 82.447 0 0 0-.945-.367l-.567-.214a.37.37 0 0 1 .058-.712l.023-.004c.275-.04.928.159 2.343.77.806.348 1.613.418 2.264.27.084-.019.162-.04.231-.065l.032-.011-.126-.063c-.322-.158-.794-.379-1.367-.641l-.371-.17-.339-.154c-.344-.155-.7-.315-1.058-.474l-.895-.397c-.408-.18-.209-.788.216-.704l.022.005 4.399 1.088c.363.094.656.033.817-.115.074-.069.093-.119.081-.152l-.002-.006h-.001a1.288 1.288 0 0 0-.094-.045l-.024-.011a6.858 6.858 0 0 0-.4-.15l-.146-.05a34.086 34.086 0 0 0-1.152-.36l-.155-.046c-.922-.272-2.057-.584-3.087-.856-.443-.117-.319-.77.124-.728l.059.008.345.048.135.018c.33.045.673.09 1.017.133l.207.025.658.077.198.021c.886.095 1.547.142 1.872.127.299-.018.402-.1.414-.199.011-.092-.053-.207-.131-.24l-.065-.027c-.199-.08-.556-.206-.967-.33a19.172 19.172 0 0 0-2.226-.53c-2.188-.385-4.374-.395-6.421.104a.37.37 0 1 1-.175-.72zM95.757 26.853a.37.37 0 1 1 .115.732c-.937.148-1.625.91-1.625 1.809 0 1.002.868 1.829 1.938 1.829A2 2 0 0 0 97.8 30.4a.37.37 0 1 1 .6.434 2.74 2.74 0 0 1-2.214 1.13c-1.472 0-2.679-1.15-2.679-2.57 0-1.273.962-2.338 2.251-2.54zM110.185 19.312c1.472 0 2.679 1.15 2.679 2.57 0 1.25-.939 2.311-2.209 2.528a.37.37 0 0 1-.125-.73c.922-.158 1.594-.916 1.594-1.798 0-1.002-.868-1.829-1.939-1.829a2.01 2.01 0 0 0-1.375.542.37.37 0 1 1-.508-.54 2.75 2.75 0 0 1 1.883-.743z" fill="#353E54"/>
    <path fill-rule="evenodd" clip-rule="evenodd" d="M97.341 17.253c-3.454 2.503-3.65 8.061-.503 12.414 3.148 4.352 8.486 5.902 11.94 3.4 3.455-2.504 3.651-8.062.503-12.415-3.148-4.352-8.485-5.902-11.94-3.4zm.435.6c3.086-2.235 7.977-.815 10.905 3.234 2.929 4.05 2.749 9.143-.337 11.379-3.086 2.235-7.977.815-10.906-3.234-2.928-4.05-2.748-9.143.338-11.379z" fill="#353E54"/>
    <path fill-rule="evenodd" clip-rule="evenodd" d="M106.842 26.859c-.633.828-1.648 1.425-3.159 1.56-.65.07-.965.837-.525 1.323.446.504.965.915 1.547 1.157.767.32 1.579.315 2.396-.084.842-.412 1.299-1.065 1.405-1.874.08-.603-.037-1.246-.283-1.89-.23-.575-.992-.69-1.368-.21l-.013.018zm.691.461c.484 1.269.35 2.288-.757 2.828-1.125.55-2.167.116-3.066-.9-.029-.032-.007-.085.046-.09 1.693-.152 2.882-.84 3.639-1.804l.04-.052c.024-.032.081-.024.098.018zM103.144 22.637a.37.37 0 0 1 .506.026l.016.018 2.716 3.212a.371.371 0 0 1-.093.558l-.02.01-1.482.767a.37.37 0 0 1-.359-.648l.019-.01 1.069-.553-2.416-2.858a.371.371 0 0 1 .026-.506l.018-.016zM98.667 22.326c.508-.599 1.176-.888 1.97-.65a.371.371 0 0 1-.212.71c-.473-.142-.858.025-1.194.42a2.27 2.27 0 0 0-.306.47l-.016.035a.37.37 0 1 1-.683-.287l.017-.038a3.015 3.015 0 0 1 .424-.66zM103.719 19.786c.636-.41 1.319-.549 1.977-.216.096.048.189.107.279.174a.37.37 0 0 1-.444.594 1.18 1.18 0 0 0-.169-.107c-.378-.19-.804-.104-1.241.178-.1.064-.191.134-.271.203l-.032.028a.834.834 0 0 0-.052.049l-.006.005a.37.37 0 1 1-.532-.516l.024-.024c.029-.027.067-.063.115-.105.105-.09.223-.179.352-.263z" fill="#353E54"/>
    <ellipse rx=".556" ry=".828" transform="rotate(-23.639 110.21 -228.586) skewX(-.034)" fill="#353E54"/>
    <ellipse rx=".556" ry=".84" transform="rotate(-29.651 96.278 -188.935) skewX(-.04)" fill="#353E54"/>
    <path fill-rule="evenodd" clip-rule="evenodd" d="M91.481 17.607c1.815-2.52.457-12.257-7.987-16.371-8.543-4.177-11.938 3.966-12.617 6.042-.667 2.075-.1 7.005 6.95 9.575 7.05 2.57 11.58 3.633 13.654.754z" fill="#353E54"/>
    <path fill-rule="evenodd" clip-rule="evenodd" d="m93.42 20.968-2.63-1.718c-.938-.618-1.185-1.84-.543-2.73l.111-.149c.642-.902 1.926-1.124 2.877-.519l2.63 1.718-2.445 3.398z" fill="#FF4308"/>
    <path fill-rule="evenodd" clip-rule="evenodd" d="M110.185 16.445s-1.555-8.698-13.222-1.112c-1.926 1.075-3.852 3.275-4.593 5.647-1.148 3.67 1.358 9.192 3.939 8.414.21-.062.42-.136.63-.222-.087-.124-.174-.26-.26-.396a12.792 12.792 0 0 1-.778-1.458c2.692-2.78.654-7.537.445-7.97.963.223 2.024.594 2.284 1.743l7.469-3.002a11.683 11.683 0 0 1 3.321 3.484c.012.012.024.037.037.05.222-1.298-.469-2.83-1.803-4.165l2.531-1.013zM127.883 2.594c.355-.811.928-1.168 1.476-.841.421.25.647.858.594 1.504l-.004.043c-.036.346.121.959.434 1.768a.372.372 0 0 1-.213.48.37.37 0 0 1-.478-.213c-.345-.894-.523-1.573-.484-2.071l.004-.04c.04-.4-.084-.747-.232-.834-.025-.015-.038-.015-.079.01-.102.063-.223.225-.338.488-.24.567-.294 1.233-.208 1.922a.37.37 0 1 1-.735.092c-.101-.808-.037-1.6.263-2.308z" fill="#353E54"/>
    <path fill-rule="evenodd" clip-rule="evenodd" d="M125.054 4.612h-.002c-.693.213-1.039.684-.7 1.178l.019.027c.105.14.264.258.461.35l.045.02a1.195 1.195 0 0 0-.348.124c-.423.278-.472.816-.179 1.238l.022.03c.112.152.26.277.435.372l.011.006-.013.006c-.478.204-.584.858-.222 1.303l.021.025c.207.239.52.395.932.462l.024.003-.005.005c-.309.336-.183.918.291 1.23l.03.02c.514.32 1.32.34 2.357.019l.022-.007 2.057 3.438a.37.37 0 0 0 .408.17c1.939-.486 3.564-1.64 4.497-3.412a.372.372 0 0 0-.037-.402l-.254-.323c-2.709-3.433-4.457-5.485-5.036-5.67-1.415-.45-3.981-.468-4.836-.212zm1.987.58c.999.008 1.931.118 2.625.338l.011.005c.366.15 2.195 2.297 4.482 5.185l.287.362-.03.052c-.796 1.34-2.065 2.251-3.584 2.698l-.028.008-2.066-3.454a.371.371 0 0 0-.444-.158c-1.01.364-1.707.364-2.041.144l-.02-.014a.294.294 0 0 1-.095-.102l-.002-.004.04-.014c.17-.063.495-.154.926-.262l.276-.068.178-.042c.301-.072.621-.145.943-.216l.291-.064.373-.08a.37.37 0 0 0 .185-.625.432.432 0 0 0-.232-.116c-.275-.056-.924-.014-2.159.18l-.264.043c-.854.14-1.357.029-1.535-.19-.043-.052-.056-.102-.05-.143l.003-.012.002-.005.01-.004.027-.007c.15-.041.536-.11 1.062-.185l.215-.03.537-.071.334-.043c.338-.042.69-.084 1.042-.124l.626-.07c.469-.051.426-.747-.046-.74l-3.16.05c-.398.017-.675-.106-.801-.288-.073-.104-.067-.167-.027-.193.063-.04.588-.122 1.318-.18l.197-.015a47.3 47.3 0 0 1 2.265-.103c.46-.01.489-.676.047-.737l-.578-.05-2.385-.2a2.047 2.047 0 0 1-.597-.13l-.026-.01a.84.84 0 0 1-.146-.08l-.007-.004.008-.005c.048-.027.116-.057.206-.086l.033-.01c.235-.071.996-.136 1.774-.13z" fill="#353E54"/>
    <path fill-rule="evenodd" clip-rule="evenodd" d="M96.58 30.185c1.449 0 2.544 1.761 2.544 3.867 0 2.085-1.073 3.833-2.5 3.867H96.543a.37.37 0 0 1-.022-.74h.059c.947 0 1.803-1.378 1.803-3.127 0-1.73-.839-3.098-1.774-3.125h-.029a.37.37 0 0 1 0-.742zM111.272 22.03c1.085 0 1.995.987 2.359 2.417a.37.37 0 1 1-.718.183c-.285-1.12-.934-1.836-1.61-1.858h-.031a.37.37 0 1 1 0-.742z" fill="#FF4308"/>
    <path fill-rule="evenodd" clip-rule="evenodd" d="M140.272 54.439c1.97 0 2.719 1.664 1.687 3.547l-.031.057-12.482 22.18c-1.005 1.775-3.226 3.21-5.033 3.239H101.778c-1.97 0-2.72-1.664-1.688-3.548l.028-.05 4.862-9.336a.37.37 0 0 1 .479-.168l.021.01a.372.372 0 0 1 .167.48l-.01.02-4.864 9.341-.006.011c-.812 1.436-.37 2.478.97 2.499h22.621c1.521 0 3.512-1.265 4.414-2.813l.029-.05 12.482-22.18c.82-1.449.36-2.498-1.011-2.498a.37.37 0 1 1 0-.741zM220.924 105.703a.37.37 0 0 1 .025.74l-.022.001-219.876.865a.37.37 0 0 1-.025-.741h.022l219.876-.865z" fill="#353E54"/>
</svg>
