<svg xmlns="http://www.w3.org/2000/svg" width="131" height="131" fill="none" viewBox="0 0 131 131">
    <path fill="#E02020" fill-rule="evenodd" d="M60.042 49.125c0-3.013 2.445-5.458 5.458-5.458 3.013 0 5.458 2.445 5.458 5.458V70.96c0 3.013-2.445 5.458-5.458 5.458-3.013 0-5.458-2.445-5.458-5.458V49.125zm0 38.208c0-3.013 2.445-5.458 5.458-5.458 3.013 0 5.458 2.445 5.458 5.458 0 3.013-2.445 5.459-5.458 5.459-3.013 0-5.458-2.446-5.458-5.459zm53.844 12.844c-1.25 2.211-3.684 3.532-6.511 3.532H23.622c-2.827 0-5.262-1.321-6.506-3.532-.59-1.037-1.365-3.15.093-5.55l41.87-69.42c2.55-4.225 10.29-4.225 12.838 0l41.877 69.42c1.452 2.4.682 4.513.092 5.55m9.258-11.19L81.267 19.563c-3.27-5.415-9.164-8.646-15.769-8.646-6.604 0-12.5 3.231-15.763 8.646L7.858 88.987c-3.105 5.148-3.198 11.337-.25 16.556 3.16 5.605 9.3 9.082 16.014 9.082h83.753c6.719 0 12.854-3.477 16.02-9.082 2.947-5.219 2.855-11.408-.251-16.556" clip-rule="evenodd"/>
    <mask id="v4yoy2875a" width="121" height="105" x="5" y="10" maskUnits="userSpaceOnUse">
        <path fill="#fff" fill-rule="evenodd" d="M60.042 49.125c0-3.013 2.445-5.458 5.458-5.458 3.013 0 5.458 2.445 5.458 5.458V70.96c0 3.013-2.445 5.458-5.458 5.458-3.013 0-5.458-2.445-5.458-5.458V49.125zm0 38.208c0-3.013 2.445-5.458 5.458-5.458 3.013 0 5.458 2.445 5.458 5.458 0 3.013-2.445 5.459-5.458 5.459-3.013 0-5.458-2.446-5.458-5.459zm53.844 12.844c-1.25 2.211-3.684 3.532-6.511 3.532H23.622c-2.827 0-5.262-1.321-6.506-3.532-.59-1.037-1.365-3.15.093-5.55l41.87-69.42c2.55-4.225 10.29-4.225 12.838 0l41.877 69.42c1.452 2.4.682 4.513.092 5.55m9.258-11.19L81.267 19.563c-3.27-5.415-9.164-8.646-15.769-8.646-6.604 0-12.5 3.231-15.763 8.646L7.858 88.987c-3.105 5.148-3.198 11.337-.25 16.556 3.16 5.605 9.3 9.082 16.014 9.082h83.753c6.719 0 12.854-3.477 16.02-9.082 2.947-5.219 2.855-11.408-.251-16.556" clip-rule="evenodd"/>
    </mask>
</svg>
