<svg width="93" height="93" viewBox="0 0 93 93" fill="none" xmlns="http://www.w3.org/2000/svg">
    <path fill-rule="evenodd" clip-rule="evenodd" d="M42.625 34.875A3.876 3.876 0 0 1 46.5 31a3.876 3.876 0 0 1 3.875 3.875v15.5A3.876 3.876 0 0 1 46.5 54.25a3.876 3.876 0 0 1-3.875-3.875v-15.5zm0 27.125a3.876 3.876 0 0 1 3.875-3.875A3.876 3.876 0 0 1 50.375 62a3.876 3.876 0 0 1-3.875 3.875A3.876 3.876 0 0 1 42.625 62zm38.226 9.118c-.888 1.57-2.616 2.507-4.623 2.507H16.77c-2.007 0-3.736-.938-4.62-2.507-.418-.736-.968-2.236.067-3.941l29.725-49.282c1.81-3 7.304-3 9.114 0l29.729 49.282c1.03 1.705.484 3.205.066 3.94zm6.572-7.944-29.73-49.286C55.374 10.044 51.189 7.75 46.5 7.75c-4.689 0-8.874 2.294-11.191 6.138L5.578 63.174c-2.204 3.654-2.27 8.048-.177 11.753 2.243 3.98 6.603 6.448 11.369 6.448h59.458c4.77 0 9.126-2.468 11.373-6.448 2.093-3.705 2.027-8.099-.178-11.753z" fill="#E02020"/>
    <mask id="a" style="mask-type:alpha" maskUnits="userSpaceOnUse" x="3" y="7" width="87" height="75">
        <path fill-rule="evenodd" clip-rule="evenodd" d="M42.625 34.875A3.876 3.876 0 0 1 46.5 31a3.876 3.876 0 0 1 3.875 3.875v15.5A3.876 3.876 0 0 1 46.5 54.25a3.876 3.876 0 0 1-3.875-3.875v-15.5zm0 27.125a3.876 3.876 0 0 1 3.875-3.875A3.876 3.876 0 0 1 50.375 62a3.876 3.876 0 0 1-3.875 3.875A3.876 3.876 0 0 1 42.625 62zm38.226 9.118c-.888 1.57-2.616 2.507-4.623 2.507H16.77c-2.007 0-3.736-.938-4.62-2.507-.418-.736-.968-2.236.067-3.941l29.725-49.282c1.81-3 7.304-3 9.114 0l29.729 49.282c1.03 1.705.484 3.205.066 3.94zm6.572-7.944-29.73-49.286C55.374 10.044 51.189 7.75 46.5 7.75c-4.689 0-8.874 2.294-11.191 6.138L5.578 63.174c-2.204 3.654-2.27 8.048-.177 11.753 2.243 3.98 6.603 6.448 11.369 6.448h59.458c4.77 0 9.126-2.468 11.373-6.448 2.093-3.705 2.027-8.099-.178-11.753z" fill="#fff"/>
    </mask>
</svg>
