<svg width="204" height="227" viewBox="0 0 204 227" fill="none" xmlns="http://www.w3.org/2000/svg">
<g clip-path="url(#clip0_2716_185465)">
<path d="M115.6 0H0V226.19C7.04 221.37 13.79 216.24 20.05 210.92C32.86 200.04 44.38 187.79 54.3 174.51C59.16 167.98 63.69 161.08 67.79 154.02C69.97 150.31 71.94 146.53 73.59 143.32L75.59 139.24L77.49 135.12L78.71 132.33C81.87 125.03 84.61 117.47 86.84 109.87C87.4 107.94 87.93 106.02 88.41 104.11L63.91 102.98L116.15 47.13L161.27 107.46L137.58 106.37C137.43 106.83 137.28 107.28 137.13 107.73L136.52 109.52L135.89 111.28C134.25 115.85 132.46 120.33 130.42 124.95C126.51 133.77 122.03 142.44 117.08 150.71L115.21 153.81L112.32 158.39L109.33 162.91C106.03 167.71 103.43 171.31 100.89 174.6C98.55 177.65 96.08 180.62 93.6 183.58L107.33 184.38C169.63 184.38 203.84 142.24 203.84 89.31C203.83 40.69 173.94 0 115.6 0Z" fill="#1748AF"/>
</g>
<defs>
<clipPath id="clip0_2716_185465">
<rect width="203.83" height="226.19" fill="white"/>
</clipPath>
</defs>
</svg>
