<svg width="39" height="32" fill="none" xmlns="http://www.w3.org/2000/svg">
    <path fill="#fff" d="M0 0h39v32H0z"/>
    <path fill-rule="evenodd" clip-rule="evenodd" d="M0 0h39v32H0V0zm26.006 12.348 1.716 2.295 2.707-.928-1.645 2.346 1.716 2.296-2.735-.846-1.646 2.347-.043-2.87-2.734-.844 2.707-.928-.043-2.868zm-9.323-4.684a8.302 8.302 0 0 1 4.383 1.243 8.435 8.435 0 0 1 2.356 2.173c.053.073-.063.183-.132.125h-.001v-.001a6.938 6.938 0 0 0-1.056-.694 6.97 6.97 0 0 0-3.273-.807 6.887 6.887 0 0 0-4.73 1.85c-1.21 1.14-1.961 2.713-1.961 4.445 0 1.734.75 3.307 1.962 4.447a6.889 6.889 0 0 0 4.728 1.85h.003a7.03 7.03 0 0 0 2.696-.537 6.791 6.791 0 0 0 1.633-.967c.07-.057.185.056.13.128a8.524 8.524 0 0 1-1.484 1.553 8.343 8.343 0 0 1-11.159-.584A8.299 8.299 0 0 1 8.325 16v-.002a8.3 8.3 0 0 1 2.453-5.89 8.342 8.342 0 0 1 5.904-2.444h.001z" fill="#ED1C24"/>
</svg>
