<?xml version="1.0" encoding="UTF-8"?>
<svg width="60px" height="20px" viewBox="0 0 60 20" version="1.1" xmlns="http://www.w3.org/2000/svg" xmlns:xlink="http://www.w3.org/1999/xlink">
    <title>Visa_Inc._logo (1)</title>
    <g id="LP" stroke="none" stroke-width="1" fill="none" fill-rule="evenodd">
        <g id="CARDS" transform="translate(-361.000000, -957.000000)" fill-rule="nonzero">
            <g id="Visa_Inc._logo-(1)" transform="translate(361.000000, 957.000000)">
                <polygon id="polygon9" fill="#B3B3B3" points="26.0011369 19.1390285 21.1404928 19.1390285 24.1806878 0.340745861 29.0410662 0.340745861"></polygon>
                <path d="M43.6214037,0.800310233 C42.6626711,0.419953601 41.142042,-6.900582e-06 39.2617884,-6.900582e-06 C34.4617462,-6.900582e-06 31.0815958,2.55962578 31.0608635,6.2191297 C31.0209939,8.91910361 33.4809524,10.4187347 35.3208046,11.3189918 C37.201324,12.238918 37.8405677,12.8393552 37.8405677,13.6593413 C37.8214302,14.9186912 36.3210017,15.4991936 34.9215764,15.4991936 C32.9809867,15.4991936 31.9411858,15.1999053 30.361018,14.4992623 L29.7209769,14.1989108 L29.0408004,18.4187165 C30.1808071,18.9380854 32.2811412,19.3989787 34.4617462,19.4191793 C39.5618741,19.4191793 42.8822201,16.8991505 42.9215581,12.9993654 C42.9409614,10.8594274 41.6420076,9.2197209 38.8415621,7.87983426 C37.1415195,7.01971263 36.1003896,6.43974186 36.1003896,5.55968539 C36.1203244,4.75963405 36.9809776,3.94017948 38.9000376,3.94017948 C40.4802055,3.90004401 41.6412102,4.27986905 42.5207351,4.65995988 L42.9603646,4.85957402 L43.6214037,0.800310233 L43.6214037,0.800310233 L43.6214037,0.800310233 Z" id="path11" fill="#B3B3B3"></path>
                <path d="M50.0816189,12.4794649 C50.4819104,11.3995285 52.0222085,7.21985836 52.0222085,7.21985836 C52.0020079,7.25999383 52.4217026,6.11998712 52.661718,5.42014155 L53.0014076,7.03991326 C53.0014076,7.03991326 53.9218653,11.539604 54.1217452,12.4794649 C53.3620952,12.4794649 51.0416805,12.4794649 50.0816189,12.4794649 L50.0816189,12.4794649 Z M56.0814723,0.340745861 L52.3217626,0.340745861 C51.1623527,0.340745861 50.2814988,0.680435432 49.7812674,1.90044727 L42.5614021,19.1387627 L47.6615301,19.1387627 C47.6615301,19.1387627 48.5011853,16.8186138 48.681662,16.318914 C49.2411663,16.318914 54.2025478,16.318914 54.9223282,16.318914 C55.061872,16.9788899 55.5022989,19.1387627 55.5022989,19.1387627 L60.0027871,19.1387627 L56.0814723,0.340745861 L56.0814723,0.340745861 L56.0814723,0.340745861 Z" id="path13" fill="#B3B3B3"></path>
                <path d="M17.0806974,0.340745861 L12.3205248,13.1593757 L11.8003586,10.5596075 C10.9203021,7.55981373 8.16025788,4.30060128 5.08019314,2.68003218 L9.44034002,19.1190936 L14.5803376,19.1190936 L22.2204292,0.340745861 L17.0806974,0.340745861 L17.0806974,0.340745861 L17.0806974,0.340745861 Z" id="path15" fill="#B3B3B3"></path>
                <path d="M7.90030765,0.340745861 L0.0800051887,0.340745861 L5.50920018e-08,0.720570897 C6.10032504,2.2805381 10.1404514,6.04077938 11.8003586,10.5604049 L10.1003159,1.9209137 C9.82043085,0.720305099 8.96030922,0.380349731 7.90030765,0.340745861 L7.90030765,0.340745861 Z" id="path17" fill="#DFDFDF"></path>
            </g>
        </g>
    </g>
</svg>