<?xml version="1.0" encoding="UTF-8"?>
<svg width="45px" height="43px" viewBox="0 0 45 43" version="1.1" xmlns="http://www.w3.org/2000/svg" xmlns:xlink="http://www.w3.org/1999/xlink">
    <title>Group 11</title>
    <g id="LP" stroke="none" stroke-width="1" fill="none" fill-rule="evenodd">
        <g id="CARDS" transform="translate(-291.000000, -948.000000)" fill="#B3B3B3">
            <g id="Group-11" transform="translate(291.000000, 948.000000)">
                <path d="M17.9542948,9.73000746 L17.9542948,7.38161194 C8.69873507,9.57586567 1.82045149,13.6577687 0.171906716,21.8927687 C-2.27589179,40.1113881 22.0083246,46.9913507 35.5311604,38.4262388 L35.485153,35.649 C24.3691455,44.7346343 9.08929478,39.7544104 6.43060075,27.3740373 C6.35067537,27.0026194 6.29089925,26.6483284 6.28048881,26.2668358 C6.04272761,17.7725821 10.4141082,12.6069851 17.9542948,9.73000746" id="Fill-1"></path>
                <path d="M24.8419142,7.35514925 C28.5836306,7.74335821 32.1215037,8.97179104 35.5270634,10.9252612 L35.5270634,14.1128731 C32.7834067,11.2224627 29.1511679,9.48895522 24.8419142,9.05910448 C24.8143769,8.47208955 24.8701231,7.9425 24.8419142,7.35514925" id="Fill-3"></path>
                <polygon id="Fill-5" points="10.7407276 3.05130224 10.7407276 3.35820894e-05 31.8783022 3.35820894e-05 31.8783022 3.05130224 23.9938993 3.05130224 23.9938993 21.3683172 18.7094216 21.3683172 18.7094216 3.05130224"></polygon>
                <path d="M14.8928843,34.2472164 L11.8312052,34.2472164 L11.8312052,14.9724403 L14.9348619,14.9724403 C17.0841157,18.6953507 19.3582948,22.4780373 21.5075485,26.2009478 C23.5103843,22.4780373 25.3882948,18.6953507 27.3907948,14.9724403 L29.6135933,14.9724403 L29.6135933,34.2472164 L25.2099739,34.2472164 L25.2099739,25.3318433 C23.4942649,28.3038582 21.778556,31.2755373 20.0631828,34.2472164 C18.3424366,31.2678134 16.6223619,28.2884104 14.9019515,25.3090075 C14.8989291,28.3219925 14.8959067,31.2338955 14.8928843,34.2472164" id="Fill-7"></path>
                <path d="M35.5271978,25.6988619 C38.2926828,25.7133022 40.3741007,26.2925933 40.6766754,28.8488619 C40.7025336,29.0684888 40.7068993,29.2672948 40.6870858,29.4879291 C40.4536903,32.131847 38.0754067,32.6261754 35.5271978,32.5613619 L35.5271978,25.6988619 Z M35.5271978,16.7761007 C38.2926828,16.7908769 39.9335037,17.5901306 40.2364142,20.1463993 C40.2622724,20.3660261 40.2666381,20.5648321 40.2471604,20.7854664 C40.0130933,23.4293843 38.0754067,23.9237127 35.5271978,23.8588993 L35.5271978,16.7761007 Z M31.3227201,14.983153 L31.3227201,34.2572575 L38.8276455,34.2572575 C44.4858918,34.2572575 47.0938769,27.695653 41.9440634,24.4089739 C46.8729067,20.4802052 43.5999963,15.1920336 38.9646604,14.983153 C36.0846604,14.8991978 34.2917127,14.9640112 31.3227201,14.983153 L31.3227201,14.983153 Z" id="Fill-9"></path>
            </g>
        </g>
    </g>
</svg>