<?xml version="1.0" encoding="UTF-8"?>
<svg width="74px" height="48px" viewBox="0 0 74 48" version="1.1" xmlns="http://www.w3.org/2000/svg" xmlns:xlink="http://www.w3.org/1999/xlink">
    <title>Group 58</title>
    <defs>
        <polygon id="path-1" points="0.19805 0.05055 0.9508 0.05055 0.9508 7.25 0.19805 7.25"></polygon>
    </defs>
    <g id="LP" stroke="none" stroke-width="1" fill="none" fill-rule="evenodd">
        <g id="CARDS" transform="translate(-192.000000, -948.000000)">
            <g id="Group-56" transform="translate(192.000000, 948.000000)">
                <polygon id="Fill-1" fill="#ACACAC" points="0.1224 45.552975 0.8489 45.553475 0.8479 42.586475 1.4804 42.586725 4.4144 45.554475 5.39765 45.554725 2.11315 42.244975 5.04465 39.141725 4.09565 39.141475 1.4804 41.945225 0.84765 41.944975 0.84665 39.140725 0.1199 39.140475"></polygon>
                <path d="M6.487425,45.555 L7.248675,45.5555 L7.743925,44.196 L10.984425,44.197 L11.489425,45.55675 L12.241675,45.557 L9.845425,39.1435 L8.819425,39.14325 L6.487425,45.555 Z M7.940175,43.5975 L9.349675,39.742 L10.778925,43.5985 L7.940175,43.5975 Z" id="Fill-2" fill="#ACACAC"></path>
                <g id="Group-55" transform="translate(0.000000, 0.075250)">
                    <path d="M14.7401,42.91725 L17.0741,42.918 C17.95485,42.91825 18.1516,43.31175 18.15185,44.124 L18.15235,45.4835 L18.87935,45.48375 L18.8786,43.782 C18.87835,43.0895 18.56185,42.679 17.8436,42.6275 L17.8436,42.6105 C18.8611,42.48275 18.96335,41.81575 18.9631005,40.918 C18.9626,39.45575 18.35535,39.07075 16.9701,39.07025 L14.0116,39.0695 L14.01435,45.48225 L14.7411,45.4825 L14.7401,42.91725 Z M14.73985,42.27625 L14.73885,39.711 L16.9791,39.71175 C18.12485,39.712 18.23585,40.01975 18.2363503,40.8405 C18.2366,41.901 18.09985,42.277 16.97985,42.2765005 L14.73985,42.27625 Z" id="Fill-3" fill="#ACACAC"></path>
                    <polygon id="Fill-5" fill="#ACACAC" points="23.3878 39.713625 25.46555 39.714125 25.4653 39.072875 20.58305 39.071625 20.5833 39.712625 22.66105 39.713375 22.6633 45.484875 23.39005 45.485125"></polygon>
                    <polygon id="Fill-7" fill="#ACACAC" points="36.6417 39.62355 36.6587 39.62355 36.66095 45.48905 37.3877 45.4893 37.38545 39.07655 36.12845 39.0763 33.85595 44.5648 31.5882 39.0748 30.3317 39.07455 30.33395 45.48705 31.0607 45.4873 31.05845 39.6218 31.07545 39.6218 33.50595 45.48805 34.2242 45.4883"></polygon>
                    <polygon id="Fill-9" fill="#ACACAC" points="40.194925 39.71875 43.589175 39.71975 43.588925 39.07825 39.467925 39.07725 39.470425 45.49 43.591425 45.49125 43.591175 44.84975 40.196925 44.849 40.195925 42.4975 43.444925 42.4985 43.444675 41.90025 40.195675 41.89925"></polygon>
                    <path d="M46.3546,42.927025 L48.68885,42.927525 C49.56935,42.928025 49.7661,43.321275 49.7666,44.133525 L49.7671,45.493275 L50.4941,45.493275 L50.49335,43.791775 C50.4931,43.099025 50.1766,42.688775 49.45835,42.637275 L49.45835,42.620025 C50.4756,42.492275 50.5781,41.825275 50.5778505,40.927525 C50.57735,39.465275 49.9701,39.080275 48.58485,39.080025 L45.6266,39.079025 L45.6291,45.491775 L46.3556,45.492025 L46.3546,42.927025 Z M46.3546,42.285775 L46.3536,39.720525 L48.5936,39.721275 C49.73935,39.721525 49.8506,40.029525 49.8508514,40.850275 C49.85135,41.910525 49.7146,42.286525 48.5946,42.2862751 L46.3546,42.285775 Z" id="Fill-11" fill="#ACACAC"></path>
                    <polygon id="Fill-13" fill="#ACACAC" points="53.505975 39.08155 52.779475 39.0813 52.781975 45.4938 53.508475 45.49405 53.507475 42.5273 54.139975 42.5273 57.073725 45.4953 58.057225 45.49555 54.772475 42.1858 57.704225 39.0828 56.754975 39.08255 54.139725 41.8863 53.506975 41.88605"></polygon>
                    <polygon id="Fill-15" fill="#ACACAC" points="60.17075 39.724875 63.565 39.725875 63.565 39.084375 59.44375 39.083375 59.44625 45.496125 63.5675 45.497375 63.567 44.855875 60.17275 44.855125 60.172 42.503625 63.421 42.504625 63.4205 41.906125 60.1715 41.905125"></polygon>
                    <polygon id="Fill-17" fill="#ACACAC" points="70.150975 39.086675 65.354225 39.084925 65.354475 39.726425 69.261975 39.727425 65.236975 44.864925 65.237225 45.497925 70.238975 45.499175 70.238975 44.857925 66.117475 44.856675 70.151475 39.761925"></polygon>
                    <g id="Group-21" transform="translate(72.000000, 38.250000)">
                        <mask id="mask-2" fill="white">
                            <use xlink:href="#path-1"></use>
                        </mask>
                        <g id="Clip-20"></g>
                        <path d="M0.95055,0.0508 L0.19805,0.05055 L0.1983,0.6833 L0.9508,0.6833 L0.95055,0.0508 Z M0.9338,0.8373 L0.20705,0.8373 L0.2093,7.2498 L0.93605,7.25005 L0.9338,0.8373 Z" id="Fill-19" fill="#ACACAC" mask="url(#mask-2)"></path>
                    </g>
                    <path d="M0.749875,31.7848 L3.135375,31.7853 C4.093125,31.7858 4.221375,32.1963 4.22187512,33.0428 C4.222125,34.02605 3.837375,34.12005 3.050625,34.1198005 L0.750625,34.11905 L0.749875,31.7848 Z M3.435875,34.7610503 C4.521625,34.76155 4.948875,34.1288 4.94837544,32.97455 C4.948125,32.1793 4.811125,31.5638 3.956125,31.40955 L3.955875,31.39255 C4.622875,31.1703 4.759625,30.71705 4.759375,30.0418 C4.758875,28.92155 4.476375,28.3488 3.270875,28.3483 L0.021875,28.3473 L0.024125,34.76005 L3.435875,34.7610503 Z M0.748875,28.9888 L2.937625,28.98955 C3.698625,28.9898 4.032125,29.08405 4.03237563,29.94755 C4.032875,30.9478 3.733625,31.1443 2.861625,31.1440502 L0.749625,31.14355 L0.748875,28.9888 Z" id="Fill-22" fill="#ACACAC"></path>
                    <path d="M10.17125,33.4037 L10.67625,34.7632 L11.42875,34.76345 L9.03225,28.3502 L8.00625,28.34995 L5.67425,34.7617 L6.43525,34.76195 L6.93075,33.40295 L10.17125,33.4037 Z M9.96575,32.80495 L7.127,32.8042 L8.5365,28.94845 L9.96575,32.80495 Z" id="Fill-24" fill="#ACACAC"></path>
                    <polygon id="Fill-26" fill="#ACACAC" points="17.776475 28.3528 17.049975 28.35255 17.052225 34.20955 17.034975 34.20955 13.441475 28.35155 12.244475 28.35105 12.246975 34.7638 12.973725 34.76405 12.971475 28.95005 12.988725 28.95005 16.590475 34.76505 17.778975 34.76555"></polygon>
                    <polygon id="Fill-28" fill="#ACACAC" points="19.888525 28.3534 19.161775 28.3534 19.164275 34.7659 19.891025 34.76615 19.889775 31.79915 20.522525 31.7994 23.456275 34.76715 24.439525 34.7674 21.155025 31.45765 24.086775 28.35465 23.137775 28.3544 20.522275 31.15815 19.889525 31.1579"></polygon>
                    <path d="M29.080925,33.409425 L29.585925,34.768925 L30.338175,34.769175 L27.941675,28.355925 L26.915925,28.355675 L24.583925,34.767675 L25.344925,34.767925 L25.840425,33.408425 L29.080925,33.409425 Z M28.875425,32.810675 L26.036675,32.810175 L27.446175,28.954425 L28.875425,32.810675 Z" id="Fill-30" fill="#ACACAC"></path>
                    <polygon id="Fill-32" fill="#ACACAC" points="31.940775 28.357075 31.214025 28.357075 31.216525 34.769575 35.209525 34.770825 35.209275 34.129575 31.943025 34.128575"></polygon>
                    <path d="M40.080425,33.41285 L40.585675,34.77235 L41.337925,34.7726 L38.941425,28.35935 L37.915425,28.35885 L35.583675,34.77085 L36.344675,34.7711 L36.839925,33.41185 L40.080425,33.41285 Z M39.875175,32.8141 L37.036175,32.81335 L38.445675,28.9576 L39.875175,32.8141 Z" id="Fill-34" fill="#ACACAC"></path>
                    <path d="M42.890725,32.208025 L45.224725,32.208775 C46.105225,32.209025 46.302225,32.602525 46.302225,33.414775 L46.302975,34.774275 L47.029975,34.774525 L47.029225,33.072775 C47.028975,32.380275 46.712475,31.969775 45.994225,31.918275 L45.994225,31.901025 C47.011475,31.773275 47.113975,31.106275 47.1137255,30.208525 C47.112975,28.746525 46.505975,28.361525 45.120725,28.361025 L42.162225,28.360275 L42.164725,34.773025 L42.891725,34.773025 L42.890725,32.208025 Z M42.890225,31.566775 L42.889225,29.001775 L45.129475,29.002275 C46.275225,29.002775 46.386475,29.310525 46.3867264,30.131275 C46.387225,31.191775 46.250475,31.567775 45.130475,31.5675251 L42.890225,31.566775 Z" id="Fill-36" fill="#ACACAC"></path>
                    <path d="M52.30455,33.416525 L52.8098,34.776025 L53.56205,34.776275 L51.16555,28.363025 L50.13955,28.362525 L47.8078,34.774775 L48.5688,34.775025 L49.06405,33.415525 L52.30455,33.416525 Z M52.0993,32.817775 L49.2603,32.817275 L50.6698,28.961525 L52.0993,32.817775 Z" id="Fill-38" fill="#ACACAC"></path>
                    <path d="M55.11485,32.211675 L57.44885,32.212425 C58.3296,32.212675 58.52635,32.606175 58.5266,33.418425 L58.5271,34.777925 L59.2541,34.778175 L59.25335,33.076425 C59.2531,32.383925 58.9366,31.973425 58.21835,31.921925 L58.21835,31.904925 C59.2356,31.776925 59.3381,31.110175 59.3378505,30.212175 C59.33735,28.750175 58.7301,28.365175 57.34485,28.364925 L54.38635,28.363925 L54.38885,34.776675 L55.11585,34.776925 L55.11485,32.211675 Z M55.11435,31.570675 L55.11335,29.005425 L57.3536,29.006175 C58.49935,29.006425 58.6106,29.314175 58.6108514,30.135175 C58.61135,31.195425 58.4746,31.571425 57.3546,31.5711751 L55.11435,31.570675 Z" id="Fill-40" fill="#ACACAC"></path>
                    <path d="M64.528675,33.4203 L65.033925,34.7798 L65.786175,34.78005 L63.389675,28.3668 L62.363675,28.3663 L60.031925,34.7783 L60.792925,34.77855 L61.288175,33.4193 L64.528675,33.4203 Z M64.323425,32.82155 L61.484425,32.8208 L62.894175,28.96505 L64.323425,32.82155 Z" id="Fill-42" fill="#ACACAC"></path>
                    <path d="M68.681025,31.82265 C69.852525,31.9169 70.399525,31.71215 70.400025,32.93465 C70.400525,34.19165 70.024525,34.1914 68.656275,34.19115 C67.297025,34.19065 67.023275,34.19065 67.039775,32.7799 L66.313025,32.77965 C66.176775,34.63515 67.023525,34.8319 68.656525,34.8321566 C70.272525,34.8329 71.127525,34.77315 71.1267755,32.96065 C71.126275,31.2249 70.356775,31.25015 68.834525,31.1814 C67.637775,31.12965 67.056275,31.2494 67.055775,30.02665 C67.055525,29.1374 67.252025,28.9579 68.671525,28.95815 C70.030775,28.95865 70.244775,29.0014 70.279525,30.12165 L71.006025,30.1219 C71.082275,28.37765 70.082025,28.3174 68.696775,28.3171488 C67.115025,28.31665 66.328525,28.47015 66.329275,30.1804 C66.329775,31.87315 67.415525,31.71965 68.681025,31.82265" id="Fill-44" fill="#ACACAC"></path>
                    <polygon id="Fill-46" fill="#ACACAC" points="72.92955 28.36965 72.20305 28.3694 72.2053 34.78215 72.93205 34.78215"></polygon>
                    <polygon id="Fill-48" fill="#DCDCDC" points="49.97 23.9085 73.704 23.9085 73.704 0.17475 49.97 0.17475"></polygon>
                    <polygon id="Fill-50" fill="#FEFEFE" points="70.638525 4.7217 65.150275 4.72095 61.881525 14.75295 61.771525 14.75295 58.388775 4.7197 53.032275 4.71845 53.035775 19.36145 56.350525 19.3622 56.084525 7.6172 56.194275 7.6172 60.367775 19.36295 63.309775 19.3632 67.434025 7.5972 67.521775 7.5972 67.348775 19.36395 70.641775 19.3647"></polygon>
                    <polygon id="Fill-51" fill="#D4D4D4" points="24.985 23.9085 48.719 23.9085 48.719 0.17475 24.985 0.17475"></polygon>
                    <polygon id="Fill-52" fill="#FEFEFE" points="33.447625 4.719625 30.066875 4.719125 30.070125 19.361875 33.450875 19.362375 33.449625 13.347375 34.700875 13.347625 39.422125 19.363625 43.637375 19.364375 37.554625 11.899125 43.107125 4.721375 39.023625 4.720625 34.700375 10.471625 33.448875 10.471375"></polygon>
                    <polygon id="Fill-53" fill="#D0D0D0" points="0 23.9085 23.73375 23.9085 23.73375 0.17475 0 0.17475"></polygon>
                    <path d="M5.755,19.36245 L13.61425,19.3637004 C16.8195,19.36445 17.983,18.2232 17.9822504,15.14945 C17.98175,13.2617 17.4325,12.14195 15.50075,11.92195 L15.5005,11.8122 C17.4105,11.46145 17.67375,10.1442 17.67325,8.4097 C17.6725,5.53395 16.06975,4.72145 13.4575,4.72095 L5.75175,4.71945 L5.755,19.36245 Z M9.068,10.71345 L9.0675,7.5082 L12.7555,7.5087 C13.897,7.50895 14.33625,7.77245 14.3365001,8.9802 C14.33675,10.62645 13.72225,10.7142 12.0975,10.7139505 L9.068,10.71345 Z M9.0695,16.61895 L9.0685,13.10645 L12.55925,13.10695 C13.94225,13.1072 14.601,13.23895 14.6012501,14.8197 C14.6015,16.5542 13.72375,16.6197 12.165,16.6194507 L9.0695,16.61895 Z" id="Fill-54" fill="#FEFEFE"></path>
                </g>
            </g>
        </g>
    </g>
</svg>