<svg xmlns="http://www.w3.org/2000/svg" xmlns:xlink="http://www.w3.org/1999/xlink" width="139" height="48" viewBox="0 0 139 48">
    <defs>
        <path id="0h7x4vyboa" d="M0 0.607L138.445 0.607 138.445 47.082 0 47.082z"/>
        <path id="ito8yz9jjc" d="M0 48L138 48 138 1 0 1z"/>
    </defs>
    <g fill="none" fill-rule="evenodd">
        <g>
            <g>
                <g>
                    <g transform="translate(-316 -6686) translate(0 5984.8) translate(142 95.2) translate(174 606)">
                        <g>
                            <mask id="h90ilmsf3b" fill="#fff">
                                <use xlink:href="#0h7x4vyboa"/>
                            </mask>
                            <path fill="#AEB0B5" d="M6.859 2.23C3.97 2.23 1.62 4.585 1.62 7.48V40.21c0 2.895 2.35 5.25 5.239 5.25h124.729c2.888 0 5.237-2.355 5.237-5.25V7.48c0-2.895-2.35-5.25-5.237-5.25H6.858zm124.729 44.852H6.858C3.077 47.082 0 43.999 0 40.209V7.48C0 3.69 3.076.607 6.859.607h124.729c3.781 0 6.857 3.083 6.857 6.873V40.21c0 3.79-3.076 6.873-6.857 6.873z" mask="url(#h90ilmsf3b)"/>
                        </g>
                        <path fill="#AEB0B5" d="M44.542 13.264c-.36-1.057-.539-1.628-.539-1.714h-.05c0 .08-.186.651-.559 1.714h1.148zM46 15h-1.01c0-.134-.096-.518-.286-1.149h-1.458c-.198.621-.296 1.004-.296 1.149H42c0-.08.245-.735.737-1.966.49-1.231.736-1.91.736-2.034h1.192c0 .117.223.785.667 2.005.445 1.22.668 1.885.668 1.995zM50 15h-.691c0-.084-.256-.527-.77-1.33-.535-.846-.84-1.425-.916-1.736h-.044c.046.449.07.854.07 1.217 0 .506.012 1.122.038 1.849H47c.028-.635.042-1.332.042-2.092 0-.748-.014-1.383-.042-1.908h.83c0 .11.23.542.69 1.3.491.805.772 1.35.845 1.637h.042c-.045-.456-.067-.866-.067-1.228 0-.556-.013-1.125-.04-1.709h.7c-.027.508-.04 1.144-.04 1.908 0 .77.013 1.468.04 2.092M53.255 12.985c0-.388-.102-.714-.305-.98-.204-.265-.514-.399-.932-.399-.079 0-.186.009-.322.028.017.404.027.826.027 1.266 0 .483.009.962.027 1.436.118.027.237.04.355.04.39 0 .68-.134.868-.404.188-.27.282-.6.282-.987m.745-.13c0 .574-.166 1.074-.497 1.503-.33.428-.794.642-1.39.642-.27 0-.64-.012-1.113-.037.024-.609.035-1.297.035-2.063 0-.735-.011-1.362-.035-1.881h.477c.079 0 .195-.004.35-.01.154-.006.255-.009.302-.009.657 0 1.132.182 1.427.546.296.364.444.8.444 1.31M56.933 12.186c0-.405-.244-.608-.73-.608-.177 0-.335.014-.472.043.021.315.031.727.031 1.235.105.004.193.006.265.006.604 0 .906-.225.906-.676M58 15h-.843c-.22-.722-.388-1.167-.506-1.337-.118-.168-.308-.254-.57-.254-.11 0-.215.001-.315.004 0 .524.008 1.053.025 1.587H55c.024-.616.037-1.31.037-2.083 0-.742-.013-1.375-.037-1.899h.492c.057 0 .177-.002.357-.01.181-.005.35-.008.503-.008.871 0 1.307.32 1.307.96 0 .508-.249.862-.746 1.062v.045c.191.057.36.217.504.482.144.264.338.748.583 1.451M61.133 13.006c0-.407-.113-.738-.337-.991-.224-.253-.5-.38-.829-.38-.305 0-.565.127-.778.383-.216.255-.322.578-.322.968 0 .405.113.735.338.99.225.253.502.381.829.381.305 0 .565-.128.78-.385.213-.256.319-.578.319-.966m.867-.085c0 .599-.197 1.095-.59 1.489-.395.394-.882.59-1.461.59-.554 0-1.016-.18-1.39-.542-.372-.361-.559-.821-.559-1.378 0-.599.198-1.095.59-1.489.395-.394.882-.591 1.461-.591.554 0 1.017.18 1.39.542.373.36.559.82.559 1.38M64 15h-1c.03-.635.046-1.332.046-2.092 0-.748-.016-1.383-.046-1.908h1c-.03.517-.047 1.153-.047 1.908 0 .772.016 1.47.047 2.092M67.255 12.985c0-.388-.102-.714-.305-.98-.204-.265-.514-.399-.932-.399-.079 0-.186.009-.322.028.017.404.027.826.027 1.266 0 .483.01.962.027 1.436.118.027.237.04.355.04.39 0 .68-.134.868-.404.188-.27.282-.6.282-.987m.745-.13c0 .574-.166 1.074-.497 1.503-.33.428-.794.642-1.39.642-.269 0-.64-.012-1.113-.037.024-.609.035-1.297.035-2.063 0-.735-.011-1.362-.035-1.881h.477c.079 0 .195-.004.35-.01.154-.006.255-.009.302-.009.657 0 1.132.182 1.428.546.295.364.443.8.443 1.31M71.542 13.264c-.36-1.057-.54-1.628-.54-1.714h-.05c0 .08-.186.651-.558 1.714h1.148zM73 15h-1.01c0-.134-.095-.518-.287-1.149h-1.458c-.197.621-.296 1.004-.296 1.149H69c0-.08.245-.735.736-1.966.491-1.231.737-1.91.737-2.034h1.192c0 .117.223.785.667 2.005.446 1.22.668 1.885.668 1.995zM76.185 12.23c0-.437-.299-.655-.897-.655-.15 0-.307.016-.473.046.023.385.034.821.034 1.308.054.005.114.006.184.006.768 0 1.152-.235 1.152-.706m.815-.168c0 .487-.187.848-.56 1.08-.375.232-.832.348-1.376.348-.099 0-.168-.002-.211-.005 0 .382.011.888.035 1.516H74c.028-.589.04-1.283.04-2.083 0-.733-.012-1.367-.04-1.899h.55c.078 0 .227-.002.448-.01.22-.005.413-.008.575-.008.4 0 .738.088 1.013.263.277.176.414.441.414.798M79.185 12.23c0-.437-.299-.655-.897-.655-.15 0-.308.016-.473.046.023.385.034.821.034 1.308.054.005.114.006.184.006.768 0 1.152-.235 1.152-.706m.815-.168c0 .487-.187.848-.56 1.08-.375.232-.832.348-1.376.348-.099 0-.17-.002-.211-.005 0 .382.011.888.035 1.516H77c.027-.589.04-1.283.04-2.083 0-.733-.013-1.367-.04-1.899h.55c.078 0 .227-.002.448-.01.22-.005.412-.008.575-.008.4 0 .738.088 1.013.263.276.176.414.441.414.798M85.133 13.006c0-.407-.113-.738-.337-.991-.224-.253-.5-.38-.829-.38-.306 0-.566.127-.78.383-.214.255-.32.578-.32.968 0 .405.113.735.338.99.225.253.5.381.828.381.306 0 .565-.128.78-.385.213-.256.32-.578.32-.966m.867-.085c0 .599-.197 1.095-.59 1.489-.395.394-.882.59-1.462.59-.553 0-1.016-.18-1.39-.542-.372-.361-.558-.821-.558-1.378 0-.599.197-1.095.59-1.489.394-.394.881-.591 1.461-.591.553 0 1.017.18 1.39.542.373.36.559.82.559 1.38M89 15h-.69c0-.084-.256-.527-.77-1.33-.536-.846-.842-1.425-.917-1.736h-.044c.047.449.07.854.07 1.217 0 .506.013 1.122.039 1.849H86c.028-.635.043-1.332.043-2.092 0-.748-.015-1.383-.043-1.908h.83c0 .11.23.542.69 1.3.491.805.773 1.35.845 1.637h.042c-.045-.456-.067-.866-.067-1.228 0-.556-.013-1.125-.039-1.709H89c-.026.508-.04 1.144-.04 1.908 0 .77.014 1.468.04 2.092M55 26.543c0 1.87-.533 3.363-1.598 4.473C52.192 32.339 50.618 33 48.68 33c-1.856 0-3.433-.67-4.731-2.013C42.649 29.647 42 27.984 42 26s.649-3.647 1.949-4.988C45.247 19.67 46.824 19 48.679 19c.922 0 1.802.186 2.64.56.838.375 1.509.875 2.011 1.498l-1.131 1.18c-.85-1.06-2.023-1.592-3.52-1.592-1.353 0-2.522.496-3.51 1.49-.988.99-1.481 2.28-1.481 3.864s.493 2.873 1.481 3.865c.988.992 2.157 1.488 3.51 1.488 1.437 0 2.634-.5 3.592-1.497.623-.65.982-1.555 1.077-2.715H48.68v-1.61h6.23c.06.35.09.687.09 1.012M58.491 30.461c.566.62 1.235.93 2.01.93.773 0 1.443-.31 2.008-.93.566-.619.849-1.44.849-2.46 0-1.023-.283-1.842-.849-2.463-.565-.62-1.235-.929-2.009-.929-.774 0-1.443.31-2.009.929-.566.62-.848 1.44-.848 2.462 0 1.022.282 1.842.848 2.461m-1.223-6.034C58.113 23.477 59.19 23 60.5 23c1.31 0 2.387.476 3.233 1.427C64.578 25.38 65 26.57 65 28c0 1.431-.422 2.621-1.267 3.573C62.887 32.525 61.81 33 60.5 33s-2.387-.475-3.232-1.427C56.423 30.62 56 29.43 56 28c0-1.43.423-2.621 1.268-3.573M68.491 30.461c.566.62 1.235.93 2.01.93.773 0 1.443-.31 2.008-.93.566-.619.849-1.44.849-2.46 0-1.023-.283-1.842-.849-2.463-.565-.62-1.235-.929-2.009-.929-.774 0-1.443.31-2.009.929-.566.62-.848 1.44-.848 2.462 0 1.022.282 1.842.848 2.461m-1.223-6.034C68.113 23.477 69.19 23 70.5 23c1.31 0 2.387.476 3.233 1.427C74.578 25.38 75 26.57 75 28c0 1.431-.422 2.621-1.267 3.573C72.887 32.525 71.81 33 70.5 33s-2.387-.475-3.232-1.427C66.423 30.62 66 29.43 66 28c0-1.43.423-2.621 1.268-3.573M80.537 31.31c.792 0 1.466-.305 2.02-.912.556-.607.833-1.422.833-2.447 0-1.024-.277-1.84-.832-2.447-.555-.607-1.229-.91-2.021-.91-.781 0-1.452.306-2.012.92-.561.613-.841 1.426-.841 2.437 0 1.012.28 1.824.841 2.438.56.613 1.23.92 2.012.92M80.409 37c-1.061 0-1.927-.275-2.598-.825-.67-.55-1.152-1.18-1.445-1.888l1.537-.663c.17.505.485.929.942 1.27.457.342.978.512 1.564.512.926 0 1.655-.287 2.185-.863.531-.575.796-1.355.796-2.343v-.89h-.074c-.292.454-.706.834-1.243 1.137-.537.304-1.14.456-1.81.456-1.16 0-2.159-.474-3-1.423C76.42 30.53 76 29.355 76 27.95c0-1.403.421-2.58 1.262-3.528.842-.949 1.842-1.423 3-1.423.67 0 1.274.152 1.811.455.537.304.95.683 1.243 1.139h.074v-1.291H85v8.821c0 1.594-.446 2.805-1.336 3.634-.89.827-1.975 1.242-3.255 1.242"/>
                        <mask id="td6oyeuk9d" fill="#fff">
                            <use xlink:href="#ito8yz9jjc"/>
                        </mask>
                        <path fill="#AEB0B5" d="M87 32L89 32 89 19 87 19zM97.163 26.87c-.038-.538-.279-1.047-.722-1.533-.444-.485-1.103-.728-1.979-.728-.637 0-1.19.204-1.658.613-.469.41-.791.958-.966 1.648h5.325zM94.688 33c-1.388 0-2.517-.472-3.384-1.418C90.434 30.638 90 29.442 90 28c0-1.367.422-2.54 1.266-3.525C92.11 23.492 93.188 23 94.5 23c1.363 0 2.453.454 3.272 1.36C98.59 25.267 99 26.48 99 28l-.018.325h-7.256c.049.946.359 1.693.927 2.242.57.549 1.234.824 1.997.824 1.237 0 2.075-.537 2.513-1.61l1.537.652c-.3.728-.794 1.338-1.481 1.83-.687.49-1.531.737-2.53.737zM104.77 25.137h2.96c.744 0 1.34-.237 1.79-.709.448-.47.673-.991.673-1.56 0-.57-.225-1.09-.674-1.562-.449-.473-1.045-.708-1.788-.708h-2.962v4.54zm0 6.863H103V19h4.692c1.167 0 2.176.367 3.03 1.099.852.732 1.278 1.656 1.278 2.768 0 1.114-.426 2.037-1.279 2.77-.853.732-1.862 1.098-3.029 1.098h-2.923V32zM113 32L115 32 115 19 113 19zM119.633 31.39c.697 0 1.33-.271 1.9-.814.568-.542.852-1.184.852-1.925-.476-.41-1.192-.613-2.146-.613-.82 0-1.438.186-1.854.555-.415.372-.623.805-.623 1.303 0 .46.189.824.569 1.093.378.267.813.402 1.302.402M119.358 33c-.954 0-1.752-.288-2.394-.862-.643-.575-.964-1.335-.964-2.28 0-1.022.38-1.823 1.138-2.404.758-.58 1.694-.872 2.807-.872.991 0 1.805.192 2.44.575v-.269c0-.69-.226-1.242-.678-1.656-.453-.415-1.01-.623-1.67-.623-.489 0-.933.122-1.33.364-.398.242-.67.575-.817.996l-1.542-.69c.208-.56.618-1.082 1.23-1.561.611-.479 1.419-.718 2.422-.718 1.15 0 2.104.352 2.863 1.054.758.702 1.137 1.692 1.137 2.969v5.67h-1.615v-1.302h-.072c-.673 1.072-1.659 1.609-2.955 1.609M128.361 36L126.616 36 128.711 31.452 125 23 126.837 23 129.518 29.483 129.555 29.483 132.163 23 134 23zM10.008 25.375c0-4.28 0-8.56-.002-12.84-.001-.525.1-1.004.463-1.401.143-.154.244-.196.418-.015 2.82 2.94 5.648 5.87 8.474 8.803 1.831 1.899 3.66 3.8 5.499 5.69.178.184.193.28.005.472-4.495 4.563-8.987 9.132-13.467 13.712-.274.28-.467.25-.729.043-.479-.376-.663-.881-.663-1.483 0-2.535-.004-5.07-.005-7.604-.002-1.792 0-3.585 0-5.377h.007zM12 11c.338-.003.577.095.806.223 5.664 3.16 11.326 6.32 16.993 9.473.26.145.256.226.055.423-1.268 1.241-2.523 2.492-3.78 3.743-.135.136-.218.214-.4.03-4.505-4.576-9.018-9.144-13.528-13.714-.038-.039-.069-.084-.146-.178M13 40c4.307-4.27 8.616-8.536 12.912-12.816.267-.265.392-.23.63.015 1.091 1.114 2.2 2.214 3.312 3.308.195.193.211.271-.054.414-5.528 2.968-11.052 5.945-16.577 8.92-.092.049-.176.129-.223.159M37 25.85c-.017.456-.232.776-.558 1.016-.24.178-.506.323-.77.47-1.56.862-3.127 1.716-4.684 2.585-.211.117-.336.112-.51-.068-1.11-1.145-2.228-2.281-3.353-3.41-.165-.164-.168-.254 0-.42 1.31-1.29 2.614-2.588 3.912-3.891.154-.154.262-.17.453-.063 1.542.873 3.092 1.735 4.64 2.6.477.269.85.615.87 1.181" mask="url(#td6oyeuk9d)"/>
                    </g>
                </g>
            </g>
        </g>
    </g>
</svg>
