<svg width="93" height="23" viewBox="0 0 93 23" fill="none" xmlns="http://www.w3.org/2000/svg">
    <g clip-path="url(#dnrho7cpba)" fill="#1748AF">
        <path d="M27.671 11.13V13.4h-2.587V4.406H29.3c2.128 0 3.218 1.484 3.218 3.257 0 1.93-1.248 3.467-3.52 3.467h-1.326zm0-4.439v2.154h1.05c.71 0 1.157-.394 1.157-1.077 0-.683-.381-1.077-1.156-1.077h-1.05zM38.426 12.942c-.486.315-1.063.5-1.68.5-1.839 0-3.362-1.486-3.362-3.455 0-1.97 1.523-3.44 3.361-3.44.618 0 1.195.184 1.681.5v-.434h2.312v6.79h-2.312v-.461zm-2.77-2.915c0 .788.643 1.418 1.405 1.418.761 0 1.392-.63 1.392-1.418a1.399 1.399 0 1 0-2.798 0zM46.397 13.601c-.63 1.826-1.602 2.285-3.125 2.285h-.788v-2.062h.721c.46 0 .815-.21.893-.67l-2.455-6.552h2.573l1.05 3.506 1.078-3.506h2.482l-2.43 6.998.001.002zM52.464 11.13V13.4h-2.587V4.406h4.215c2.127 0 3.218 1.484 3.218 3.257 0 1.93-1.248 3.467-3.52 3.467h-1.326zm0-4.439v2.154h1.05c.71 0 1.157-.394 1.157-1.077 0-.683-.382-1.077-1.156-1.077h-1.05zM63.22 12.942c-.486.315-1.063.5-1.68.5-1.839 0-3.362-1.486-3.362-3.455 0-1.97 1.523-3.44 3.361-3.44.618 0 1.195.184 1.681.5v-.434h2.312v6.79H63.22v-.461zm-2.77-2.915c0 .788.643 1.418 1.405 1.418.761 0 1.392-.63 1.392-1.418a1.399 1.399 0 1 0-2.798 0zM68.958 7.23c.42-.499 1.117-.761 1.878-.761 1.589 0 2.614 1.116 2.614 2.744v4.19h-2.312V9.765c0-.656-.355-1.168-1.037-1.168-.63 0-1.103.46-1.103 1.248v3.559h-2.312V6.6h2.272v.63zM79.385 13.6c-2.81 0-4.859-2.088-4.859-4.675 0-2.587 1.93-4.714 4.938-4.714 2.062 0 3.375 1.024 3.953 1.97L81.38 7.638c-.525-.67-1.142-1.037-1.983-1.037-1.274 0-2.22.97-2.22 2.363 0 1.392.999 2.311 2.232 2.311.762 0 1.38-.315 1.774-.971H79.12V8.23h4.899v.67c0 2.849-2.088 4.7-4.636 4.7zM92.267 10.004c0 2.023-1.64 3.571-3.65 3.571s-3.65-1.55-3.65-3.57c0-2.022 1.654-3.56 3.65-3.56s3.65 1.563 3.65 3.56zm-5.055.039c0 .788.643 1.418 1.405 1.418.761 0 1.405-.63 1.405-1.418a1.41 1.41 0 0 0-1.405-1.419c-.775 0-1.406.618-1.406 1.419zM11.755 0H0v23a24.759 24.759 0 0 0 2.039-1.553 22.658 22.658 0 0 0 3.482-3.702 22.04 22.04 0 0 0 1.962-3.172l.203-.415.194-.418.124-.284c.32-.742.6-1.511.826-2.284.057-.196.111-.391.16-.586l-2.491-.114 5.312-5.68 4.588 6.135-2.41-.11c-.014.046-.03.092-.045.137l-.062.182-.064.18c-.167.464-.349.92-.556 1.39a24.272 24.272 0 0 1-1.357 2.619l-.19.315-.294.466-.304.46c-.335.488-.6.854-.858 1.188-.238.31-.49.612-.741.913l1.396.082c6.335 0 9.813-4.285 9.813-9.668 0-4.943-3.04-9.081-8.972-9.081z"/>
    </g>
    <defs>
        <clipPath id="dnrho7cpba">
            <path fill="#fff" d="M0 0h92.267v23H0z"/>
        </clipPath>
    </defs>
</svg>
