<svg width="376" height="52" viewBox="0 0 376 52" fill="none" xmlns="http://www.w3.org/2000/svg">
    <path d="M54.938 39.762a.23.23 0 0 1-.168-.07.26.26 0 0 1-.056-.168c0-.075.014-.15.042-.224l.742-1.918a.857.857 0 0 1 .154-.224c.056-.065.14-.098.252-.098h.462c.075 0 .13.028.168.084.047.056.06.13.042.224l-.308 1.988a.541.541 0 0 1-.112.294c-.065.075-.159.112-.28.112h-.938zm3.379 0a.226.226 0 0 1-.182-.084.307.307 0 0 1-.042-.21l.322-2.002a.633.633 0 0 1 .112-.28.334.334 0 0 1 .28-.126h.938c.065 0 .117.028.154.084.047.047.07.098.07.154 0 .075-.019.15-.056.224l-.728 1.918a.697.697 0 0 1-.154.238c-.056.056-.145.084-.266.084h-.448zm3.317 9.898a.324.324 0 0 1-.238-.098.303.303 0 0 1-.084-.224v-9.296c0-.093.028-.168.084-.224a.324.324 0 0 1 .238-.098h.644a.28.28 0 0 1 .224.098.28.28 0 0 1 .098.224v.616c.224-.308.522-.565.896-.77.373-.205.84-.308 1.4-.308.522 0 .966.089 1.33.266.373.177.676.42.91.728.242.308.424.658.546 1.05.121.392.186.812.196 1.26a7.596 7.596 0 0 1 0 .952c-.01.439-.075.859-.196 1.26a3.215 3.215 0 0 1-.546 1.05 2.618 2.618 0 0 1-.91.728c-.364.177-.808.266-1.33.266-.542 0-.999-.098-1.372-.294a2.971 2.971 0 0 1-.896-.756v3.248a.303.303 0 0 1-.084.224.296.296 0 0 1-.238.098h-.672zm2.968-3.654c.485 0 .863-.103 1.134-.308.28-.215.48-.49.602-.826a3.87 3.87 0 0 0 .21-1.106c.01-.27.01-.541 0-.812a3.715 3.715 0 0 0-.21-1.092 1.692 1.692 0 0 0-.602-.826c-.27-.215-.649-.322-1.134-.322-.458 0-.83.107-1.12.322-.28.215-.49.49-.63.826-.13.327-.206.663-.224 1.008-.01.15-.014.327-.014.532 0 .205.004.387.014.546.01.327.084.649.224.966.15.317.368.579.658.784.29.205.653.308 1.092.308zm7.066 1.134c-.467 0-.892-.093-1.274-.28a2.464 2.464 0 0 1-.924-.756 1.774 1.774 0 0 1-.35-1.078c0-.644.26-1.157.784-1.54.522-.383 1.204-.635 2.044-.756l2.086-.294v-.406c0-.448-.131-.798-.392-1.05-.252-.252-.668-.378-1.246-.378-.42 0-.761.084-1.022.252-.252.168-.43.383-.532.644-.056.14-.154.21-.294.21h-.63c-.103 0-.182-.028-.238-.084a.375.375 0 0 1-.07-.224c0-.14.05-.313.154-.518.112-.205.28-.406.504-.602.224-.196.508-.36.854-.49.354-.14.784-.21 1.288-.21.56 0 1.03.075 1.414.224.382.14.68.331.896.574.224.243.382.518.476.826.102.308.154.62.154.938v4.536a.324.324 0 0 1-.098.238.303.303 0 0 1-.224.084h-.644c-.103 0-.182-.028-.238-.084a.353.353 0 0 1-.084-.238v-.602a2.739 2.739 0 0 1-.49.504 2.84 2.84 0 0 1-.77.406c-.308.103-.686.154-1.134.154zm.294-1.05c.382 0 .732-.08 1.05-.238.317-.168.564-.425.742-.77.186-.345.28-.78.28-1.302v-.392l-1.624.238c-.663.093-1.162.252-1.498.476-.336.215-.504.49-.504.826 0 .261.074.48.224.658.158.168.354.294.588.378.242.084.49.126.742.126zm5.722.91a.353.353 0 0 1-.238-.084.353.353 0 0 1-.084-.238v-6.622c0-.093.028-.173.084-.238a.324.324 0 0 1 .238-.098h.644c.093 0 .173.033.238.098a.324.324 0 0 1 .098.238v.616c.187-.317.444-.555.77-.714.327-.159.719-.238 1.176-.238h.56a.28.28 0 0 1 .224.098c.056.056.084.13.084.224v.574a.303.303 0 0 1-.084.224.303.303 0 0 1-.224.084h-.84c-.504 0-.9.15-1.19.448-.29.29-.434.686-.434 1.19v4.116a.324.324 0 0 1-.098.238.353.353 0 0 1-.238.084h-.686zm6.917.14c-.466 0-.891-.093-1.274-.28a2.464 2.464 0 0 1-.924-.756 1.774 1.774 0 0 1-.35-1.078c0-.644.261-1.157.784-1.54s1.204-.635 2.044-.756l2.086-.294v-.406c0-.448-.13-.798-.392-1.05-.252-.252-.667-.378-1.246-.378-.42 0-.76.084-1.022.252-.252.168-.43.383-.532.644-.056.14-.154.21-.294.21h-.63c-.102 0-.182-.028-.238-.084a.375.375 0 0 1-.07-.224c0-.14.051-.313.154-.518.112-.205.28-.406.504-.602.224-.196.509-.36.854-.49.355-.14.784-.21 1.288-.21.56 0 1.031.075 1.414.224.383.14.681.331.896.574.224.243.383.518.476.826.103.308.154.62.154.938v4.536a.324.324 0 0 1-.098.238.303.303 0 0 1-.224.084h-.644c-.102 0-.182-.028-.238-.084a.353.353 0 0 1-.084-.238v-.602a2.739 2.739 0 0 1-.49.504 2.84 2.84 0 0 1-.77.406c-.308.103-.686.154-1.134.154zm.294-1.05c.383 0 .733-.08 1.05-.238.318-.168.565-.425.742-.77.187-.345.28-.78.28-1.302v-.392l-1.624.238c-.663.093-1.162.252-1.498.476-.336.215-.504.49-.504.826 0 .261.075.48.224.658.159.168.355.294.588.378.243.084.49.126.742.126zm5.723.91a.353.353 0 0 1-.238-.084.353.353 0 0 1-.084-.238v-6.636c0-.093.028-.168.084-.224a.324.324 0 0 1 .238-.098h.658a.28.28 0 0 1 .224.098.28.28 0 0 1 .098.224v.616c.242-.317.546-.574.91-.77.373-.205.85-.308 1.428-.308.606 0 1.12.135 1.54.406.43.261.751.63.966 1.106.214.467.322 1.013.322 1.638v3.948a.353.353 0 0 1-.084.238.303.303 0 0 1-.224.084h-.7a.353.353 0 0 1-.238-.084.353.353 0 0 1-.084-.238V42.8c0-.653-.159-1.162-.476-1.526-.318-.373-.784-.56-1.4-.56-.579 0-1.046.187-1.4.56-.346.364-.518.873-.518 1.526v3.878a.324.324 0 0 1-.098.238.303.303 0 0 1-.224.084h-.7zm8.49 0a.353.353 0 0 1-.238-.084.353.353 0 0 1-.084-.238v-6.636c0-.093.028-.168.084-.224a.324.324 0 0 1 .238-.098h.672a.28.28 0 0 1 .224.098c.056.056.084.13.084.224v6.636a.353.353 0 0 1-.084.238.303.303 0 0 1-.224.084h-.672zm3.527 0a.355.355 0 0 1-.238-.084.353.353 0 0 1-.084-.238v-6.636c0-.093.028-.168.084-.224a.326.326 0 0 1 .238-.098h.658a.28.28 0 0 1 .224.098c.066.056.098.13.098.224v.616c.243-.317.546-.574.91-.77.374-.205.85-.308 1.428-.308.607 0 1.12.135 1.54.406.43.261.752.63.966 1.106.215.467.322 1.013.322 1.638v3.948a.353.353 0 0 1-.084.238.302.302 0 0 1-.224.084h-.7a.355.355 0 0 1-.238-.084.353.353 0 0 1-.084-.238V42.8c0-.653-.158-1.162-.476-1.526-.317-.373-.784-.56-1.4-.56-.578 0-1.045.187-1.4.56-.345.364-.518.873-.518 1.526v3.878a.321.321 0 0 1-.098.238.302.302 0 0 1-.224.084h-.7zm12.491 2.66a.27.27 0 0 1-.196-.084.269.269 0 0 1-.084-.196c0-.037.005-.075.014-.112a.767.767 0 0 1 .056-.14l1.078-2.562-2.674-6.314a.762.762 0 0 1-.07-.238.285.285 0 0 1 .294-.294h.686c.094 0 .168.023.224.07a.332.332 0 0 1 .112.168l2.128 5.096 2.184-5.096a.542.542 0 0 1 .112-.168.363.363 0 0 1 .238-.07h.658c.084 0 .154.028.21.084a.269.269 0 0 1 .084.196c0 .047-.023.13-.07.252l-3.976 9.17a.444.444 0 0 1-.126.168c-.046.047-.121.07-.224.07h-.658zm9.089-2.52c-.961 0-1.726-.294-2.296-.882-.569-.597-.882-1.41-.938-2.436a6.417 6.417 0 0 1-.014-.462c0-.196.005-.355.014-.476.038-.663.192-1.241.462-1.736.271-.504.64-.891 1.106-1.162.476-.27 1.032-.406 1.666-.406.71 0 1.302.15 1.778.448.486.299.854.723 1.106 1.274.252.55.378 1.195.378 1.932v.238c0 .103-.032.182-.098.238a.302.302 0 0 1-.224.084h-4.844v.126c.019.383.103.742.252 1.078.15.327.364.593.644.798.28.205.616.308 1.008.308.336 0 .616-.051.84-.154.224-.103.406-.215.546-.336.14-.13.234-.229.28-.294.084-.121.15-.191.196-.21a.455.455 0 0 1 .224-.042h.672c.094 0 .168.028.224.084.066.047.094.117.084.21-.009.14-.084.313-.224.518-.14.196-.34.392-.602.588-.261.196-.578.36-.952.49a4.163 4.163 0 0 1-1.288.182zm-1.904-4.312h3.836v-.042c0-.42-.079-.793-.238-1.12a1.763 1.763 0 0 0-.658-.77c-.289-.196-.634-.294-1.036-.294-.401 0-.746.098-1.036.294-.28.187-.494.443-.644.77-.149.327-.224.7-.224 1.12v.042zM129.473 47a.355.355 0 0 1-.238-.084.353.353 0 0 1-.084-.238v-6.636c0-.093.028-.168.084-.224a.326.326 0 0 1 .238-.098h.658a.28.28 0 0 1 .224.098c.066.056.098.13.098.224v.616c.243-.317.546-.574.91-.77.374-.205.85-.308 1.428-.308.607 0 1.12.135 1.54.406.43.261.752.63.966 1.106.215.467.322 1.013.322 1.638v3.948a.353.353 0 0 1-.084.238.302.302 0 0 1-.224.084h-.7a.355.355 0 0 1-.238-.084.353.353 0 0 1-.084-.238V42.8c0-.653-.158-1.162-.476-1.526-.317-.373-.784-.56-1.4-.56-.578 0-1.045.187-1.4.56-.345.364-.518.873-.518 1.526v3.878a.321.321 0 0 1-.098.238.302.302 0 0 1-.224.084h-.7zm8.49 0a.355.355 0 0 1-.238-.084.353.353 0 0 1-.084-.238v-6.636c0-.093.028-.168.084-.224a.326.326 0 0 1 .238-.098h.672a.28.28 0 0 1 .224.098c.056.056.084.13.084.224v6.636a.353.353 0 0 1-.084.238.302.302 0 0 1-.224.084h-.672zm-.112-8.638a.355.355 0 0 1-.238-.084.353.353 0 0 1-.084-.238v-.756c0-.093.028-.168.084-.224a.326.326 0 0 1 .238-.098h.882a.28.28 0 0 1 .224.098c.066.056.098.13.098.224v.756a.321.321 0 0 1-.098.238.302.302 0 0 1-.224.084h-.882zM144.8 47a.351.351 0 0 1-.238-.084.353.353 0 0 1-.084-.238v-9.296c0-.093.028-.168.084-.224a.323.323 0 0 1 .238-.098h.7c.102 0 .182.033.238.098.056.056.084.13.084.224v3.262c.252-.317.56-.574.924-.77.364-.196.826-.294 1.386-.294.606 0 1.12.135 1.54.406.429.261.751.63.966 1.106.224.467.336 1.013.336 1.638v3.948a.353.353 0 0 1-.084.238.323.323 0 0 1-.238.084h-.7a.351.351 0 0 1-.238-.084.353.353 0 0 1-.084-.238V42.8c0-.653-.159-1.162-.476-1.526-.318-.373-.784-.56-1.4-.56-.579 0-1.046.187-1.4.56-.355.364-.532.873-.532 1.526v3.878a.353.353 0 0 1-.084.238.323.323 0 0 1-.238.084h-.7zm10.225.14c-.467 0-.891-.093-1.274-.28a2.459 2.459 0 0 1-.924-.756 1.776 1.776 0 0 1-.35-1.078c0-.644.261-1.157.784-1.54s1.204-.635 2.044-.756l2.086-.294v-.406c0-.448-.131-.798-.392-1.05-.252-.252-.667-.378-1.246-.378-.42 0-.761.084-1.022.252a1.367 1.367 0 0 0-.532.644c-.056.14-.154.21-.294.21h-.63c-.103 0-.182-.028-.238-.084a.373.373 0 0 1-.07-.224c0-.14.051-.313.154-.518.112-.205.28-.406.504-.602.224-.196.509-.36.854-.49.355-.14.784-.21 1.288-.21.56 0 1.031.075 1.414.224.383.14.681.331.896.574a2.1 2.1 0 0 1 .476.826c.103.308.154.62.154.938v4.536a.325.325 0 0 1-.098.238.303.303 0 0 1-.224.084h-.644c-.103 0-.182-.028-.238-.084a.353.353 0 0 1-.084-.238v-.602a2.735 2.735 0 0 1-.49.504 2.834 2.834 0 0 1-.77.406c-.308.103-.686.154-1.134.154zm.294-1.05c.383 0 .733-.08 1.05-.238.317-.168.565-.425.742-.77.187-.345.28-.78.28-1.302v-.392l-1.624.238c-.663.093-1.162.252-1.498.476-.336.215-.504.49-.504.826 0 .261.075.48.224.658.159.168.355.294.588.378.243.084.49.126.742.126zm5.737.91a.351.351 0 0 1-.238-.084.353.353 0 0 1-.084-.238v-9.296c0-.093.028-.168.084-.224a.323.323 0 0 1 .238-.098h.658c.102 0 .182.033.238.098.056.056.084.13.084.224v9.296a.353.353 0 0 1-.084.238.323.323 0 0 1-.238.084h-.658zm3.527 0a.351.351 0 0 1-.238-.084.353.353 0 0 1-.084-.238v-6.636c0-.093.028-.168.084-.224a.323.323 0 0 1 .238-.098h.672a.28.28 0 0 1 .224.098c.056.056.084.13.084.224v6.636a.353.353 0 0 1-.084.238.303.303 0 0 1-.224.084h-.672zm-.112-8.638a.351.351 0 0 1-.238-.084.353.353 0 0 1-.084-.238v-.756c0-.093.028-.168.084-.224a.323.323 0 0 1 .238-.098h.882a.28.28 0 0 1 .224.098c.065.056.098.13.098.224v.756a.325.325 0 0 1-.098.238.303.303 0 0 1-.224.084h-.882zm3.166 1.4a.227.227 0 0 1-.182-.084.31.31 0 0 1-.042-.21l.322-2.002a.636.636 0 0 1 .112-.28.335.335 0 0 1 .28-.126h.938c.066 0 .117.028.154.084.047.047.07.098.07.154 0 .075-.018.15-.056.224l-.728 1.918a.684.684 0 0 1-.154.238c-.056.056-.144.084-.266.084h-.448zm3.186 0a.224.224 0 0 1-.182-.084.3.3 0 0 1-.042-.21l.322-2.002a.625.625 0 0 1 .112-.28.333.333 0 0 1 .28-.126h.938c.065 0 .116.028.154.084.046.047.07.098.07.154 0 .075-.019.15-.056.224l-.728 1.918a.714.714 0 0 1-.154.238c-.056.056-.145.084-.266.084h-.448z" fill="#fff"/>
    <path fill-rule="evenodd" clip-rule="evenodd" d="M34.106 7.442h3.1v1.753a4.835 4.835 0 0 1 1.798-1.505c.73-.359 1.564-.54 2.5-.54 1.169 0 2.158.233 2.966.702a4.713 4.713 0 0 1 1.856 1.928 5.431 5.431 0 0 1 2.033-1.928c.847-.47 1.817-.702 2.908-.702 2.006 0 3.518.55 4.53 1.65 1.014 1.103 1.52 2.597 1.52 4.487v8.767h-3.185v-8.562c0-1.11-.287-1.993-.863-2.645-.575-.653-1.418-.979-2.529-.979-.992 0-1.822.33-2.485.995-.662.66-.993 1.645-.993 2.95v8.241h-3.158v-8.708c0-1.072-.287-1.92-.862-2.543-.575-.623-1.388-.935-2.44-.935-1.034 0-1.886.341-2.56 1.022-.67.683-1.007 1.696-1.007 3.04v8.124h-3.129V7.442zM66.67 19.424a4.24 4.24 0 0 0 1.753-.365 4.483 4.483 0 0 0 1.433-1.008c.409-.428.73-.926.964-1.491.233-.564.35-1.17.35-1.812 0-.643-.117-1.246-.35-1.812a4.8 4.8 0 0 0-.964-1.49 4.536 4.536 0 0 0-1.433-1.009 4.258 4.258 0 0 0-1.754-.364c-.643 0-1.238.121-1.784.364a4.373 4.373 0 0 0-1.418 1.01c-.399.429-.71.924-.934 1.49a4.856 4.856 0 0 0-.336 1.81c0 .644.111 1.248.336 1.813a4.71 4.71 0 0 0 .934 1.491 4.315 4.315 0 0 0 3.202 1.373m0 2.923a7.453 7.453 0 0 1-2.953-.585 7.537 7.537 0 0 1-4.034-4.047 7.57 7.57 0 0 1-.585-2.967c0-1.07.195-2.07.585-2.994.39-.926.93-1.73 1.622-2.411a7.678 7.678 0 0 1 2.412-1.607c.916-.39 1.9-.587 2.953-.587s2.037.196 2.954.587c.914.389 1.718.924 2.41 1.607a7.353 7.353 0 0 1 1.623 2.41 7.64 7.64 0 0 1 .585 2.995 7.57 7.57 0 0 1-2.208 5.392 7.55 7.55 0 0 1-2.41 1.622c-.917.39-1.901.585-2.954.585M76.102 7.442H79.2v1.9a5.412 5.412 0 0 1 1.901-1.607c.76-.39 1.626-.585 2.601-.585 1.851 0 3.304.56 4.356 1.68 1.053 1.121 1.579 2.685 1.579 4.69v8.534H86.48v-8.27c0-1.208-.298-2.163-.892-2.865-.595-.7-1.477-1.05-2.645-1.05-1.053 0-1.934.37-2.646 1.11-.712.74-1.067 1.752-1.067 3.039v8.036h-3.128V7.442zM99.007 9.926c-1.071 0-1.999.298-2.778.892a4.693 4.693 0 0 0-1.637 2.293h8.742c-.274-1.032-.785-1.821-1.535-2.366-.751-.546-1.682-.82-2.792-.82m-.058 12.422c-1.15 0-2.193-.2-3.129-.6-.935-.4-1.73-.939-2.382-1.62a7.115 7.115 0 0 1-1.505-2.398 8.086 8.086 0 0 1-.527-2.922c0-1.071.195-2.076.585-3.01.39-.935.92-1.744 1.593-2.426a7.515 7.515 0 0 1 2.397-1.622 7.497 7.497 0 0 1 2.997-.6c1.072 0 2.07.187 2.996.556.926.37 1.725.892 2.397 1.563a7.295 7.295 0 0 1 1.579 2.383c.38.917.569 1.92.569 3.01v1.08h-12.13c.175 1.13.662 2.06 1.46 2.792.8.73 1.842 1.095 3.129 1.095 1.012 0 1.856-.223 2.528-.672a3.573 3.573 0 0 0 1.418-1.811h3.361c-.564 1.617-1.456 2.89-2.674 3.813-1.218.926-2.772 1.389-4.662 1.389M112.384 21.294l-6.052-13.852h3.362l4.268 10.142 4.035-10.142h3.302l-8.827 21.363h-3.217l3.129-7.51zM122.926 10.247V.722h3.156v6.72h3.099v2.805h-3.099v5.816c0 .663.034 1.194.103 1.593.068.4.214.706.438.92.225.215.542.357.95.424.409.07.945.103 1.608.103v2.951h-.467c-1.111 0-2.037-.097-2.778-.293-.741-.194-1.335-.52-1.783-.978-.448-.458-.765-1.07-.949-1.84-.186-.771-.278-1.72-.278-2.85v-5.846zM137.466 19.424a4.24 4.24 0 0 0 1.754-.365 4.482 4.482 0 0 0 1.433-1.008c.409-.428.73-.926.964-1.491.233-.564.35-1.17.35-1.812 0-.643-.117-1.246-.35-1.812a4.8 4.8 0 0 0-.964-1.49 4.535 4.535 0 0 0-1.433-1.009 4.258 4.258 0 0 0-1.754-.364c-.643 0-1.238.121-1.784.364a4.374 4.374 0 0 0-1.418 1.01c-.399.429-.711.924-.934 1.49a4.852 4.852 0 0 0-.336 1.81c0 .644.111 1.248.336 1.813.223.565.535 1.063.934 1.491a4.317 4.317 0 0 0 3.202 1.373m0 2.923a7.45 7.45 0 0 1-2.952-.585 7.528 7.528 0 0 1-4.035-4.047 7.56 7.56 0 0 1-.585-2.967c0-1.07.195-2.07.585-2.994.39-.926.93-1.73 1.622-2.411a7.67 7.67 0 0 1 2.413-1.607 7.45 7.45 0 0 1 2.952-.587 7.46 7.46 0 0 1 2.954.587 7.69 7.69 0 0 1 2.41 1.607 7.344 7.344 0 0 1 1.622 2.41 7.63 7.63 0 0 1 .586 2.995 7.56 7.56 0 0 1-.586 2.967 7.528 7.528 0 0 1-4.032 4.047 7.46 7.46 0 0 1-2.954.585" fill="#fff"/>
    <mask id="a" style="mask-type:alpha" maskUnits="userSpaceOnUse" x="0" y="0" width="173" height="29">
        <path fill-rule="evenodd" clip-rule="evenodd" d="M0 28.805h172.826V0H0v28.805z" fill="#fff"/>
    </mask>
    <g mask="url(#a)">
        <path fill-rule="evenodd" clip-rule="evenodd" d="M146.898 22.055h3.129V.722h-3.129v21.333zM152.567 22.054h3.158V7.442h-3.158v14.612zm-.526-19.229c0-.623.196-1.13.585-1.52.39-.389.896-.583 1.52-.583s1.13.194 1.52.583c.39.39.585.897.585 1.52 0 .624-.195 1.13-.585 1.52-.39.39-.896.584-1.52.584s-1.13-.193-1.52-.584c-.389-.39-.585-.896-.585-1.52zM165.255 19.483c.663 0 1.276-.127 1.842-.38a4.576 4.576 0 0 0 1.461-1.023c.409-.43.732-.93.965-1.505.234-.575.35-1.193.35-1.857 0-.642-.116-1.25-.35-1.825a4.609 4.609 0 0 0-2.426-2.529 4.463 4.463 0 0 0-1.842-.379c-.644 0-1.248.122-1.812.366a4.558 4.558 0 0 0-2.455 2.512 4.857 4.857 0 0 0-.351 1.855c0 .664.116 1.287.351 1.871.233.585.559 1.092.979 1.52a4.562 4.562 0 0 0 3.288 1.374m-.438 2.864a6.977 6.977 0 0 1-2.704-.541 7.461 7.461 0 0 1-2.324-1.52c-.684-.652-1.228-1.446-1.638-2.381-.409-.937-.613-1.988-.613-3.157 0-1.168.199-2.22.599-3.155a7.38 7.38 0 0 1 1.609-2.398 6.885 6.885 0 0 1 2.337-1.518 7.44 7.44 0 0 1 2.761-.527c.976 0 1.892.195 2.75.585.858.39 1.559.926 2.105 1.607v-1.9h3.127v14.612h-3.127v-2.016a5.921 5.921 0 0 1-2.135 1.695 6.314 6.314 0 0 1-2.747.614" fill="#fff"/>
        <path fill="#F74F00" d="M5 3h19v17H5z"/>
        <path fill-rule="evenodd" clip-rule="evenodd" d="M21.903 16.468c0 1.18-.955 2.134-2.135 2.134H7.012a2.133 2.133 0 0 1-2.134-2.134V6.995c0-1.954 2.408-2.88 3.717-1.43l3.261 3.605a2.07 2.07 0 0 0 3.07 0l3.259-3.606c1.31-1.45 3.718-.523 3.718 1.431v9.473zM21.097 0H5.684A5.683 5.683 0 0 0 0 5.682v12.095a5.683 5.683 0 0 0 5.684 5.682h15.413a5.684 5.684 0 0 0 5.684-5.682V5.682A5.684 5.684 0 0 0 21.097 0z" fill="#fff"/>
        <path fill-rule="evenodd" clip-rule="evenodd" d="M13.39 16.24a4.727 4.727 0 0 1-4.721-4.722h2.072c0 1.462 1.189 2.65 2.65 2.65 1.46 0 2.65-1.188 2.65-2.65h2.072a4.727 4.727 0 0 1-4.722 4.721" fill="#fff"/>
    </g>
    <path stroke="#fff" stroke-width="1.5" d="M189.75 0v24"/>
    <path d="M210.964 21.21c-.994 0-1.855-.189-2.583-.567a4.115 4.115 0 0 1-1.659-1.659c-.392-.728-.602-1.596-.63-2.604-.014-.21-.021-.49-.021-.84s.007-.63.021-.84c.028-1.008.238-1.869.63-2.583a3.95 3.95 0 0 1 1.659-1.659c.728-.392 1.589-.588 2.583-.588.812 0 1.505.112 2.079.336.588.224 1.071.511 1.449.861.378.35.658.728.84 1.134.196.406.301.791.315 1.155a.368.368 0 0 1-.126.336.53.53 0 0 1-.357.126h-1.008c-.14 0-.245-.028-.315-.084-.07-.07-.14-.182-.21-.336-.252-.686-.595-1.169-1.029-1.449-.434-.28-.973-.42-1.617-.42-.84 0-1.526.259-2.058.777-.518.518-.798 1.351-.84 2.499-.014.504-.014.994 0 1.47.042 1.162.322 2.002.84 2.52.532.504 1.218.756 2.058.756.644 0 1.183-.14 1.617-.42.434-.28.777-.763 1.029-1.449.07-.154.14-.259.21-.315.07-.07.175-.105.315-.105h1.008a.53.53 0 0 1 .357.126c.098.084.14.196.126.336a3.064 3.064 0 0 1-.189.903 3.487 3.487 0 0 1-.546.945 4.017 4.017 0 0 1-.903.84 5.027 5.027 0 0 1-1.323.588c-.504.14-1.078.21-1.722.21zm11.251 0c-.896 0-1.659-.196-2.289-.588-.616-.406-1.085-.966-1.407-1.68-.322-.714-.483-1.533-.483-2.457v-5.922c0-.14.042-.252.126-.336a.486.486 0 0 1 .357-.147h1.05a.42.42 0 0 1 .336.147.42.42 0 0 1 .147.336v5.817c0 2.086.91 3.129 2.73 3.129.868 0 1.561-.273 2.079-.819.532-.56.798-1.33.798-2.31v-5.817c0-.14.042-.252.126-.336a.486.486 0 0 1 .357-.147h1.029c.154 0 .273.049.357.147a.454.454 0 0 1 .126.336v9.954a.53.53 0 0 1-.126.357c-.084.084-.203.126-.357.126h-.966a.53.53 0 0 1-.357-.126.53.53 0 0 1-.126-.357v-.924c-.378.49-.84.882-1.386 1.176-.532.294-1.239.441-2.121.441zm1.827-13.251c-.154 0-.273-.042-.357-.126a.454.454 0 0 1-.126-.336V6.363c0-.14.042-.252.126-.336a.445.445 0 0 1 .357-.147h1.134a.42.42 0 0 1 .336.147.42.42 0 0 1 .147.336v1.134a.42.42 0 0 1-.147.336.454.454 0 0 1-.336.126h-1.134zm-3.57 0a.454.454 0 0 1-.336-.126.454.454 0 0 1-.126-.336V6.363c0-.14.042-.252.126-.336a.42.42 0 0 1 .336-.147h1.155a.42.42 0 0 1 .336.147.42.42 0 0 1 .147.336v1.134a.42.42 0 0 1-.147.336.454.454 0 0 1-.336.126h-1.155zM230.564 21a.53.53 0 0 1-.357-.126.53.53 0 0 1-.126-.357v-.735c0-.126.028-.245.084-.357.07-.112.14-.217.21-.315l5.796-7.371h-5.418a.53.53 0 0 1-.357-.126c-.084-.084-.126-.203-.126-.357v-.693c0-.14.042-.252.126-.336a.486.486 0 0 1 .357-.147h7.476a.42.42 0 0 1 .336.147.42.42 0 0 1 .147.336v.777a.564.564 0 0 1-.105.336 9.354 9.354 0 0 1-.189.315l-5.733 7.35h5.964c.14 0 .252.042.336.126a.445.445 0 0 1 .147.357v.693c0 .14-.049.259-.147.357a.454.454 0 0 1-.336.126h-8.085zm14.761.21c-.77 0-1.435-.133-1.995-.399a4.029 4.029 0 0 1-1.386-1.113 5.288 5.288 0 0 1-.798-1.617 8.387 8.387 0 0 1-.294-1.911 10.133 10.133 0 0 1-.021-.63c0-.196.007-.406.021-.63a8.325 8.325 0 0 1 .294-1.89 5.288 5.288 0 0 1 .798-1.617 3.73 3.73 0 0 1 1.386-1.113c.56-.28 1.225-.42 1.995-.42.826 0 1.512.147 2.058.441.546.294.994.658 1.344 1.092v-4.83c0-.14.042-.252.126-.336a.486.486 0 0 1 .357-.147h1.008a.42.42 0 0 1 .336.147.42.42 0 0 1 .147.336v13.944c0 .14-.049.259-.147.357a.454.454 0 0 1-.336.126h-.945c-.154 0-.273-.042-.357-.126a.53.53 0 0 1-.126-.357v-.882c-.35.448-.805.826-1.365 1.134-.56.294-1.26.441-2.1.441zm.441-1.701c.7 0 1.26-.161 1.68-.483.42-.322.735-.728.945-1.218.21-.504.322-1.015.336-1.533.014-.224.021-.49.021-.798 0-.322-.007-.595-.021-.819a3.62 3.62 0 0 0-.357-1.449 2.812 2.812 0 0 0-.966-1.176c-.42-.308-.966-.462-1.638-.462-.714 0-1.281.161-1.701.483-.42.308-.721.721-.903 1.239a5.579 5.579 0 0 0-.315 1.638c-.014.406-.014.812 0 1.218.028.588.133 1.141.315 1.659.182.504.483.917.903 1.239.42.308.987.462 1.701.462zm11.104 1.701a4.3 4.3 0 0 1-1.911-.42 3.695 3.695 0 0 1-1.386-1.134 2.66 2.66 0 0 1-.525-1.617c0-.966.392-1.736 1.176-2.31.784-.574 1.806-.952 3.066-1.134l3.129-.441v-.609c0-.672-.196-1.197-.588-1.575-.378-.378-1.001-.567-1.869-.567-.63 0-1.141.126-1.533.378a2.047 2.047 0 0 0-.798.966c-.084.21-.231.315-.441.315h-.945c-.154 0-.273-.042-.357-.126a.564.564 0 0 1-.105-.336c0-.21.077-.469.231-.777.168-.308.42-.609.756-.903.336-.294.763-.539 1.281-.735.532-.21 1.176-.315 1.932-.315.84 0 1.547.112 2.121.336.574.21 1.022.497 1.344.861.336.364.574.777.714 1.239.154.462.231.931.231 1.407v6.804c0 .14-.049.259-.147.357a.454.454 0 0 1-.336.126h-.966c-.154 0-.273-.042-.357-.126a.53.53 0 0 1-.126-.357v-.903a4.103 4.103 0 0 1-.735.756 4.26 4.26 0 0 1-1.155.609c-.462.154-1.029.231-1.701.231zm.441-1.575c.574 0 1.099-.119 1.575-.357.476-.252.847-.637 1.113-1.155.28-.518.42-1.169.42-1.953v-.588l-2.436.357c-.994.14-1.743.378-2.247.714-.504.322-.756.735-.756 1.239 0 .392.112.721.336.987.238.252.532.441.882.567a3.38 3.38 0 0 0 1.113.189zM265.894 21a.53.53 0 0 1-.357-.126.53.53 0 0 1-.126-.357v-9.954c0-.14.042-.252.126-.336a.486.486 0 0 1 .357-.147h.987a.42.42 0 0 1 .336.147.42.42 0 0 1 .147.336v.924a4.203 4.203 0 0 1 1.365-1.155c.56-.308 1.274-.462 2.142-.462.91 0 1.68.203 2.31.609a3.644 3.644 0 0 1 1.449 1.659c.322.7.483 1.519.483 2.457v5.922a.53.53 0 0 1-.126.357.454.454 0 0 1-.336.126h-1.05a.53.53 0 0 1-.357-.126.53.53 0 0 1-.126-.357V14.7c0-.98-.238-1.743-.714-2.289-.476-.56-1.176-.84-2.1-.84-.868 0-1.568.28-2.1.84-.518.546-.777 1.309-.777 2.289v5.817c0 .14-.049.259-.147.357a.454.454 0 0 1-.336.126h-1.05zm17.883 0a.53.53 0 0 1-.357-.126.53.53 0 0 1-.126-.357v-9.954c0-.14.042-.252.126-.336a.486.486 0 0 1 .357-.147h1.008a.42.42 0 0 1 .336.147.454.454 0 0 1 .126.336v9.954a.53.53 0 0 1-.126.357.454.454 0 0 1-.336.126h-1.008zm-.168-12.957a.53.53 0 0 1-.357-.126.53.53 0 0 1-.126-.357V6.426c0-.14.042-.252.126-.336a.486.486 0 0 1 .357-.147h1.323a.42.42 0 0 1 .336.147.42.42 0 0 1 .147.336V7.56c0 .14-.049.259-.147.357a.454.454 0 0 1-.336.126h-1.323zM288.884 21a.53.53 0 0 1-.357-.126.53.53 0 0 1-.126-.357V6.573c0-.14.042-.252.126-.336a.486.486 0 0 1 .357-.147h.987c.154 0 .273.049.357.147a.454.454 0 0 1 .126.336v13.944a.53.53 0 0 1-.126.357c-.084.084-.203.126-.357.126h-.987zm8.95.21c-1.442 0-2.59-.441-3.444-1.323-.854-.896-1.323-2.114-1.407-3.654a9.345 9.345 0 0 1-.021-.693c0-.294.007-.532.021-.714.056-.994.287-1.862.693-2.604.406-.756.959-1.337 1.659-1.743.714-.406 1.547-.609 2.499-.609 1.064 0 1.953.224 2.667.672.728.448 1.281 1.085 1.659 1.911.378.826.567 1.792.567 2.898v.357a.445.445 0 0 1-.147.357.454.454 0 0 1-.336.126h-7.266v.189c.028.574.154 1.113.378 1.617.224.49.546.889.966 1.197.42.308.924.462 1.512.462.504 0 .924-.077 1.26-.231.336-.154.609-.322.819-.504.21-.196.35-.343.42-.441.126-.182.224-.287.294-.315.07-.042.182-.063.336-.063h1.008c.14 0 .252.042.336.126.098.07.14.175.126.315-.014.21-.126.469-.336.777-.21.294-.511.588-.903.882a5.26 5.26 0 0 1-1.428.735c-.56.182-1.204.273-1.932.273zm-2.856-6.468h5.754v-.063c0-.63-.119-1.19-.357-1.68a2.654 2.654 0 0 0-.987-1.155c-.434-.294-.952-.441-1.554-.441-.602 0-1.12.147-1.554.441-.42.28-.742.665-.966 1.155-.224.49-.336 1.05-.336 1.68v.063zm19.88 6.468c-1.064 0-1.953-.203-2.667-.609a4.113 4.113 0 0 1-1.638-1.68c-.378-.728-.588-1.554-.63-2.478a15.896 15.896 0 0 1-.021-.903c0-.378.007-.679.021-.903.042-.938.252-1.764.63-2.478a4.254 4.254 0 0 1 1.659-1.68c.714-.406 1.596-.609 2.646-.609 1.05 0 1.932.203 2.646.609.714.406 1.26.966 1.638 1.68.392.714.609 1.54.651 2.478.014.224.021.525.021.903 0 .364-.007.665-.021.903-.042.924-.252 1.75-.63 2.478a4.113 4.113 0 0 1-1.638 1.68c-.714.406-1.603.609-2.667.609zm0-1.617c.868 0 1.561-.273 2.079-.819.518-.56.798-1.372.84-2.436.014-.21.021-.476.021-.798 0-.322-.007-.588-.021-.798-.042-1.064-.322-1.869-.84-2.415-.518-.56-1.211-.84-2.079-.84-.868 0-1.568.28-2.1.84-.518.546-.791 1.351-.819 2.415-.014.21-.021.476-.021.798 0 .322.007.588.021.798.028 1.064.301 1.876.819 2.436.532.546 1.232.819 2.1.819zm1.197-11.634c-.154 0-.273-.042-.357-.126a.454.454 0 0 1-.126-.336V6.363c0-.14.042-.252.126-.336a.445.445 0 0 1 .357-.147h1.134a.42.42 0 0 1 .336.147.42.42 0 0 1 .147.336v1.134a.42.42 0 0 1-.147.336.454.454 0 0 1-.336.126h-1.134zm-3.57 0a.454.454 0 0 1-.336-.126.454.454 0 0 1-.126-.336V6.363c0-.14.042-.252.126-.336a.42.42 0 0 1 .336-.147h1.155a.42.42 0 0 1 .336.147.42.42 0 0 1 .147.336v1.134a.42.42 0 0 1-.147.336.454.454 0 0 1-.336.126h-1.155zm13.949 13.251c-.77 0-1.435-.133-1.995-.399a4.029 4.029 0 0 1-1.386-1.113 5.288 5.288 0 0 1-.798-1.617 8.387 8.387 0 0 1-.294-1.911 10.133 10.133 0 0 1-.021-.63c0-.196.007-.406.021-.63a8.325 8.325 0 0 1 .294-1.89 5.288 5.288 0 0 1 .798-1.617 3.73 3.73 0 0 1 1.386-1.113c.56-.28 1.225-.42 1.995-.42.826 0 1.512.147 2.058.441.546.294.994.658 1.344 1.092v-4.83c0-.14.042-.252.126-.336a.486.486 0 0 1 .357-.147h1.008a.42.42 0 0 1 .336.147.42.42 0 0 1 .147.336v13.944c0 .14-.049.259-.147.357a.454.454 0 0 1-.336.126h-.945c-.154 0-.273-.042-.357-.126a.53.53 0 0 1-.126-.357v-.882c-.35.448-.805.826-1.365 1.134-.56.294-1.26.441-2.1.441zm.441-1.701c.7 0 1.26-.161 1.68-.483.42-.322.735-.728.945-1.218.21-.504.322-1.015.336-1.533.014-.224.021-.49.021-.798 0-.322-.007-.595-.021-.819a3.62 3.62 0 0 0-.357-1.449 2.812 2.812 0 0 0-.966-1.176c-.42-.308-.966-.462-1.638-.462-.714 0-1.281.161-1.701.483-.42.308-.721.721-.903 1.239a5.579 5.579 0 0 0-.315 1.638c-.014.406-.014.812 0 1.218.028.588.133 1.141.315 1.659.182.504.483.917.903 1.239.42.308.987.462 1.701.462zm12.405 1.701c-1.442 0-2.59-.441-3.444-1.323-.854-.896-1.323-2.114-1.407-3.654a9.345 9.345 0 0 1-.021-.693c0-.294.007-.532.021-.714.056-.994.287-1.862.693-2.604.406-.756.959-1.337 1.659-1.743.714-.406 1.547-.609 2.499-.609 1.064 0 1.953.224 2.667.672.728.448 1.281 1.085 1.659 1.911.378.826.567 1.792.567 2.898v.357a.445.445 0 0 1-.147.357.454.454 0 0 1-.336.126h-7.266v.189c.028.574.154 1.113.378 1.617.224.49.546.889.966 1.197.42.308.924.462 1.512.462.504 0 .924-.077 1.26-.231.336-.154.609-.322.819-.504.21-.196.35-.343.42-.441.126-.182.224-.287.294-.315.07-.042.182-.063.336-.063h1.008c.14 0 .252.042.336.126.098.07.14.175.126.315-.014.21-.126.469-.336.777-.21.294-.511.588-.903.882a5.26 5.26 0 0 1-1.428.735c-.56.182-1.204.273-1.932.273zm-2.856-6.468h5.754v-.063c0-.63-.119-1.19-.357-1.68a2.654 2.654 0 0 0-.987-1.155c-.434-.294-.952-.441-1.554-.441-.602 0-1.12.147-1.554.441-.42.28-.742.665-.966 1.155-.224.49-.336 1.05-.336 1.68v.063zM347.167 21a.53.53 0 0 1-.357-.126.53.53 0 0 1-.126-.357v-9.954c0-.14.042-.252.126-.336a.486.486 0 0 1 .357-.147h.945a.42.42 0 0 1 .336.147.42.42 0 0 1 .147.336v.735a3.471 3.471 0 0 1 1.218-1.029c.49-.266 1.078-.399 1.764-.399 1.582-.014 2.702.63 3.36 1.932a3.578 3.578 0 0 1 1.407-1.407c.616-.35 1.316-.525 2.1-.525.728 0 1.386.168 1.974.504.602.336 1.071.847 1.407 1.533.35.672.525 1.519.525 2.541v6.069c0 .14-.049.259-.147.357a.454.454 0 0 1-.336.126h-.987a.53.53 0 0 1-.357-.126.53.53 0 0 1-.126-.357v-5.88c0-.784-.112-1.4-.336-1.848-.224-.448-.525-.763-.903-.945a2.818 2.818 0 0 0-1.239-.273c-.364 0-.735.091-1.113.273-.378.182-.693.497-.945.945-.238.448-.357 1.064-.357 1.848v5.88c0 .14-.049.259-.147.357a.454.454 0 0 1-.336.126h-.987a.53.53 0 0 1-.357-.126.53.53 0 0 1-.126-.357v-5.88c0-.784-.119-1.4-.357-1.848-.238-.448-.546-.763-.924-.945a2.725 2.725 0 0 0-1.197-.273c-.364 0-.735.091-1.113.273-.378.182-.693.497-.945.945-.238.448-.357 1.057-.357 1.827v5.901c0 .14-.049.259-.147.357a.454.454 0 0 1-.336.126h-1.008zm22.526.21c-1.442 0-2.59-.441-3.444-1.323-.854-.896-1.323-2.114-1.407-3.654a9.345 9.345 0 0 1-.021-.693c0-.294.007-.532.021-.714.056-.994.287-1.862.693-2.604.406-.756.959-1.337 1.659-1.743.714-.406 1.547-.609 2.499-.609 1.064 0 1.953.224 2.667.672.728.448 1.281 1.085 1.659 1.911.378.826.567 1.792.567 2.898v.357a.445.445 0 0 1-.147.357.454.454 0 0 1-.336.126h-7.266v.189c.028.574.154 1.113.378 1.617.224.49.546.889.966 1.197.42.308.924.462 1.512.462.504 0 .924-.077 1.26-.231.336-.154.609-.322.819-.504.21-.196.35-.343.42-.441.126-.182.224-.287.294-.315.07-.042.182-.063.336-.063h1.008c.14 0 .252.042.336.126.098.07.14.175.126.315-.014.21-.126.469-.336.777-.21.294-.511.588-.903.882a5.26 5.26 0 0 1-1.428.735c-.56.182-1.204.273-1.932.273zm-2.856-6.468h5.754v-.063c0-.63-.119-1.19-.357-1.68a2.654 2.654 0 0 0-.987-1.155c-.434-.294-.952-.441-1.554-.441-.602 0-1.12.147-1.554.441-.42.28-.742.665-.966 1.155-.224.49-.336 1.05-.336 1.68v.063z" fill="#fff"/>
</svg>
