<svg width="289" height="145" viewBox="0 0 289 145" fill="none" xmlns="http://www.w3.org/2000/svg">
    <path fill-rule="evenodd" clip-rule="evenodd" d="M231.712 85.369a2.547 2.547 0 0 1 2.545 2.49l.001.051v18.659a2.548 2.548 0 0 1-2.495 2.541l-.051.001h-24.881a.483.483 0 0 1-.028-.964l.028-.001h24.881c.856 0 1.555-.687 1.578-1.533l.001-.044V87.91c0-.855-.688-1.552-1.535-1.576h-24.715a.484.484 0 0 1-.029-.965h24.7z" fill="#2E186A"/>
    <path fill-rule="evenodd" clip-rule="evenodd" d="M233.759 96.918a.483.483 0 0 1 .028.964l-.028.001h-26.718a.484.484 0 0 1-.029-.964l.029-.001h26.718z" fill="#2E186A"/>
    <path fill-rule="evenodd" clip-rule="evenodd" d="M227.119 85.53c.258 0 .468.2.483.454l.001.028v23.485a.483.483 0 0 1-.966.028l-.001-.028V86.012c0-.267.216-.483.483-.483zM198.903.759c4.619 0 8.368 3.696 8.443 8.29l.001.139v125.901c0 4.611-3.703 8.353-8.305 8.427l-.139.002h-54.21c-4.619 0-8.368-3.696-8.442-8.29l-.002-.139V105.17a.484.484 0 0 1 .966-.029l.001.029v29.919c0 4.083 3.279 7.397 7.354 7.462l.123.001h54.21c4.091 0 7.41-3.272 7.476-7.34l.001-.123V9.188c0-4.084-3.278-7.397-7.354-7.463l-.123-.001h-54.21c-4.091 0-7.41 3.272-7.476 7.34l-.001.124v18.964a.483.483 0 0 1-.966.029l-.001-.029V9.188c0-4.612 3.703-8.354 8.305-8.428l.139-.001h54.21z" fill="#2E186A"/>
    <path fill-rule="evenodd" clip-rule="evenodd" d="M180.871 8.625c0 1.012-.825 1.824-1.854 1.849h-20.304c-1.035 0-1.875-.796-1.901-1.802l-.001-.047v-1.85h-10.474c-2.882 0-5.222 2.235-5.269 4.999V29.6a.484.484 0 0 1-.966.028l-.001-.028V11.858c0-3.309 2.742-5.994 6.133-6.048h11.061c.257 0 .468.2.483.454v2.361c0 .476.392.866.899.884h20.292c.512 0 .915-.378.934-.85l.001-.034V6.292c0-.257.201-.467.455-.482h10.986c3.404 0 6.18 2.652 6.235 5.948l.001.1v120.818c0 3.308-2.742 5.994-6.133 6.047l-.103.001h-45.008c-3.404 0-6.18-2.652-6.235-5.948l-.001-.1v-26.67a.482.482 0 0 1 .966-.028l.001.028v26.67c0 2.774 2.311 5.037 5.182 5.082l.087.001h45.008c2.882 0 5.222-2.236 5.269-4.999V11.858c0-2.774-2.311-5.038-5.182-5.083h-10.561v1.85z" fill="#2E186A"/>
    <path fill-rule="evenodd" clip-rule="evenodd" d="M196.364 1.016a.485.485 0 0 1 .654-.201c3.036 1.601 4.972 4.654 5.01 8.06l.001.104v98.957a.484.484 0 0 1-.966.029l-.001-.029V8.979c0-3.084-1.74-5.857-4.496-7.31a.483.483 0 0 1-.202-.653zM141.046 113.232a35.744 35.744 0 0 1 11.336.515c5.803 1.204 11.136 3.851 15.677 8.273l.335.325c5.421 5.257 8.446 7.589 12.104 9.124 3.919 1.645 8.543 2.272 16.88 2.381a.483.483 0 1 1-.013.965c-8.451-.111-13.181-.752-17.242-2.456-3.797-1.593-6.899-3.985-12.4-9.318l-.34-.33c-4.401-4.287-9.568-6.85-15.198-8.019a34.804 34.804 0 0 0-11.031-.501.482.482 0 1 1-.108-.959zM175.355 46.828c.581.663 1.117 1.272 1.395 1.581l.243.27c2.944 3.246 5.259 5.29 7.976 6.851 3.347 1.923 7.17 2.949 11.948 3.072a.483.483 0 1 1-.025.965c-4.935-.128-8.915-1.195-12.405-3.2-2.859-1.643-5.268-3.782-8.332-7.175l-.298-.332a592.982 592.982 0 0 1-2.887-3.294l-.665-.765-.133-.15c-1.45-1.65-2.633-2.939-3.866-4.187l-.112-.113c-.27-.272-.54-.54-.811-.803-2.012-1.96-4.19-3.443-6.521-4.5-2.786-1.264-5.734-1.897-8.862-2.023-2.327-.093-4.517.082-7.161.483l-.366.057-.586.093-1.195.195c-.561.09-.941.145-1.28.183a.483.483 0 1 1-.108-.96l.18-.02c.233-.03.5-.068.842-.122l1.754-.284.402-.063c2.794-.433 5.095-.625 7.557-.526 3.247.13 6.316.79 9.223 2.108 2.433 1.103 4.704 2.65 6.797 4.689.274.267.548.538.822.814l.226.23a96.337 96.337 0 0 1 3.66 3.961l2.588 2.965zM179.71 101.824c-1.966-.643-5.317-1.93-5.237-3.088.129-1.64 6.526-.113 6.526-.113l.113-4.922s-7.831-.016-12.698 1.11l-.21 8.445 3.884 1.062c1.837.498 3.481 1.544 4.657 2.992 1.451 2.589 1.322 4.31 1.628 5.646.274 1.222 1.466 2.042 2.739 1.898v-11.148c0-.836-.564-1.608-1.402-1.882zM114.479 131.309l-.419 4.134c-.161 1.625-.854 3.088-1.999 4.134-2.159 1.287-3.754 1.158-4.931 1.432-1.079.241-1.643 1.303-1.305 2.429h11.603s.612-6 2.159-5.888c1.547.113 2.546 6.161 2.546 6.161h4.56s-2.384-8.091-4.753-12.354l-7.461-.048zM148.706 47.938l-5.173-.547v.257l.048.225c-1.256 3.057-4.028 5.405-7.799 5.614-5.737.306-4.125-6.16-4.013-6.53l-.128-.37-5.641-.45 3.997 33.409 19.015.225c-6.478-9.909-2.353-18.788-.306-31.833zm-15.663 14.686c-.065-.258.112-.515.37-.58l5.141-1.11 4.141-8.026c.129-.241.419-.338.645-.209.241.129.338.418.209.644l-4.238 8.235a.51.51 0 0 1-.322.258l-5.366 1.158c-.033 0-.065.016-.097.016a.485.485 0 0 1-.483-.386zm11.828 8.236a3.362 3.362 0 0 1-2.24 1.463l-8.815 1.464h-.081a.497.497 0 0 1-.483-.402.488.488 0 0 1 .403-.563l8.815-1.464a2.368 2.368 0 0 0 1.579-1.03.493.493 0 0 1 .677-.144c.225.16.29.466.145.676z" fill="#2E186A"/>
    <path fill-rule="evenodd" clip-rule="evenodd" d="M141.072 79.307a.484.484 0 0 1 .522.408l.003.028 1.106 12.076 25.761.95c.255.009.457.214.465.465l.001.028-.436 18.032a.484.484 0 0 1-.55.467l-.028-.005-34.517-6.923h-.022c-2.264.005-4.331-1.308-5.347-3.393l-.033-.069-.013-.028-3.287-8.268a.483.483 0 0 1 .888-.382l.011.026 3.281 8.252.025.053c.856 1.749 2.581 2.845 4.466 2.844l.07-.001c.023 0 .046.001.069.004l.034.006 34.001 6.819.409-16.98-25.709-.948a.484.484 0 0 1-.46-.41l-.003-.028-1.144-12.499a.482.482 0 0 1 .437-.524z" fill="#2E186A"/>
    <path fill-rule="evenodd" clip-rule="evenodd" d="m124.213 70.629-.707.841-.773.926-.839 1.01-.25.302a421.786 421.786 0 0 0-5.652 6.975l-.552.7-.361.46c-4.077 5.206-6.671 8.889-7.259 10.52-.634 1.757-.679 8.679-.311 19.358l.029.82c.074 2.06.161 4.203.26 6.401l.06 1.326c.109 2.336.224 4.617.34 6.777l.084 1.547.155 2.698a.482.482 0 0 0 .478.453l15.937.145.029-.001a.482.482 0 0 0 .458-.511l-2.225-36.08 21.633-18.229a.482.482 0 0 0-.177-.832l-19.853-5.758a.484.484 0 0 0-.504.152zm.537.862 18.684 5.42-21.129 17.805-.025.022a.482.482 0 0 0-.146.376l2.208 35.804-14.967-.136-.094-1.636-.06-1.084a939.927 939.927 0 0 1-.397-7.839l-.06-1.324a702.78 702.78 0 0 1-.26-6.393l-.029-.818c-.359-10.433-.314-17.423.254-18.998.537-1.488 3.122-5.158 7.112-10.253l.359-.458.551-.698a416.34 416.34 0 0 1 5.278-6.522l.734-.887c.45-.543.875-1.054 1.271-1.528l.716-.853z" fill="#2E186A"/>
    <path fill-rule="evenodd" clip-rule="evenodd" d="M144.414 38.944a.485.485 0 0 1 .668-.148c.632.402 1.187 1.1 1.555 1.957.698 1.649.456 3.425-.683 3.983a.484.484 0 0 1-.452-.853l.026-.014c.575-.282.741-1.505.22-2.738-.285-.662-.698-1.192-1.138-1.49l-.047-.03a.482.482 0 0 1-.149-.667z" fill="#FE7624"/>
    <path fill-rule="evenodd" clip-rule="evenodd" d="M143.275 28.41c-1.676-1.48-2.32-8.702 2.885-13.158 5.269-4.504 8.976.724 9.797 2.091.806 1.367 1.225 5.003-3.287 8.091-4.496 3.105-7.477 4.681-9.395 2.976z" fill="#2E186A"/>
    <path fill-rule="evenodd" clip-rule="evenodd" d="m142.47 31.177 1.563-1.69c.564-.61.531-1.527-.065-2.058l-.096-.097c-.597-.53-1.531-.466-2.095.145l-1.563 1.689 2.256 2.01z" fill="#FE7624"/>
    <path fill-rule="evenodd" clip-rule="evenodd" d="M142.884 35.727c1.084-.27 2.218.268 2.643 1.297.487 1.175-.075 2.545-1.254 3.073a2.362 2.362 0 0 1-2.211-.166.482.482 0 0 1 .499-.827l.026.016c.373.24.865.28 1.296.093.7-.313 1.036-1.132.75-1.82-.233-.566-.858-.872-1.473-.74l-.041.01a.483.483 0 1 1-.235-.936zM129.729 34.809a2.326 2.326 0 0 1 1.683-.104.482.482 0 1 1-.284.922 1.366 1.366 0 0 0-.998.06c-.699.313-1.035 1.132-.752 1.814.245.57.851.878 1.47.748a.483.483 0 1 1 .2.944 2.258 2.258 0 0 1-2.561-1.317c-.487-1.175.075-2.545 1.242-3.067zM141.304 41.503a.484.484 0 0 1 .488.45l.001.027.059 5.221 1.801.209a.482.482 0 0 1 .402.636l-.01.027c-1.404 3.412-4.445 5.703-8.22 5.912-2.774.156-4.289-1.16-4.702-3.4-.142-.772-.144-1.604-.045-2.447a8.73 8.73 0 0 1 .245-1.306.483.483 0 0 1 .472-.342l.03.002 2.227.18-.091-2.221a.484.484 0 0 1 .435-.5l.029-.002a.484.484 0 0 1 .501.434l.002.028.112 2.767a.483.483 0 0 1-.493.502l-.029-.001-2.358-.192-.017.087a9.653 9.653 0 0 0-.09.558l-.015.119c-.089.754-.087 1.494.036 2.159.328 1.78 1.431 2.739 3.697 2.611 3.155-.175 5.729-1.96 7.092-4.684l.022-.044-1.567-.182a.482.482 0 0 1-.426-.445l-.002-.028-.064-5.646a.483.483 0 0 1 .478-.489z" fill="#2E186A"/>
    <path fill-rule="evenodd" clip-rule="evenodd" d="M130.691 35.864c-.854 4.462 1.21 8.65 4.695 9.313 3.486.663 6.952-2.472 7.806-6.934.854-4.462-1.209-8.65-4.695-9.313-3.486-.663-6.952 2.472-7.806 6.934zm.95.18c.763-3.986 3.78-6.716 6.674-6.165 2.894.55 4.691 4.196 3.928 8.183-.764 3.988-3.781 6.717-6.675 6.167-2.894-.551-4.691-4.197-3.927-8.184z" fill="#2E186A"/>
    <path fill-rule="evenodd" clip-rule="evenodd" d="M143.485 30.308c-1.306-1.56-3.433-2.59-5.205-2.766-11.039-1.882-9.379 5.243-9.379 5.243l2.192-.064c-.548 1.464-.58 2.847 0 3.764v-.048c.193-1.4.676-2.67 1.321-3.748l6.478-.193c-.177-.965.516-1.383 1.144-1.882-.016.37-.016 4.472 2.869 5.71 0 .45-.033.901-.097 1.367a3.051 3.051 0 0 1-.065.387c.178 0 .355-.017.532-.033 2.16-.29 2.24-5.324.21-7.737z" fill="#2E186A"/>
    <path fill-rule="evenodd" clip-rule="evenodd" d="M143.253 38.555a.484.484 0 0 1 .425.866l-.025.013c-.59.267-.764 1.494-.24 2.748.53 1.234 1.475 1.92 2.052 1.693l.009-.004.022-.012c.06-.03.126-.05.194-.054l.035-.001a.483.483 0 0 1 .263.887l-.037.023a.608.608 0 0 1-.06.03l-.035.014-.004.002c-1.17.493-2.579-.508-3.304-2.144l-.025-.058c-.702-1.678-.448-3.469.73-4.003zM129.732 37.284a.483.483 0 0 1 .426.866l-.026.013c-.589.267-.763 1.494-.238 2.75.472 1.117 1.322 1.812 1.915 1.73l.032-.005a.483.483 0 1 1 .179.948c-1.131.213-2.38-.79-3.017-2.299-.702-1.678-.448-3.469.729-4.003z" fill="#FE7624"/>
    <path fill-rule="evenodd" clip-rule="evenodd" d="M135.527 35.322a.483.483 0 0 1 .936.24l-.007.027-.8 2.767.735.044a.484.484 0 0 1 .455.482l-.001.029a.484.484 0 0 1-.484.453h-.028l-1.337-.081a.483.483 0 0 1-.443-.588l.007-.028.967-3.345zM137.915 33.195c.554-.246 1.115-.13 1.632.189.184.113.323.227.409.312a.484.484 0 0 1-.654.71l-.042-.039-.037-.03a1.733 1.733 0 0 0-.184-.132c-.273-.168-.525-.22-.731-.128a.66.66 0 0 0-.14.086l-.035.03a.482.482 0 1 1-.641-.723 1.66 1.66 0 0 1 .423-.275zM134.006 32.996a2.28 2.28 0 0 1 1.004.055l.079.023c.087.025.156.05.205.071a.483.483 0 0 1-.351.9l-.049-.02a1.648 1.648 0 0 0-.133-.04 1.352 1.352 0 0 0-.578-.04.582.582 0 0 0-.421.29l-.02.035a.483.483 0 1 1-.851-.46c.249-.46.643-.726 1.115-.814z" fill="#2E186A"/>
    <ellipse cx="138.489" cy="36.211" rx=".451" ry=".692" fill="#2E186A"/>
    <ellipse rx=".692" ry=".451" transform="rotate(-84.451 86.997 -55.656) skewX(.02)" fill="#2E186A"/>
    <path fill-rule="evenodd" clip-rule="evenodd" d="M137.47 40.481a.484.484 0 0 1 .878.404c-.301.653-.761 1.041-1.326 1.167-.449.1-.905.026-1.343-.15a2.532 2.532 0 0 1-.399-.2.482.482 0 0 1 .496-.829l.043.026.037.02c.055.03.118.06.188.088.271.11.54.154.768.103.262-.058.48-.243.658-.629z" fill="#2E186A"/>
    <path fill-rule="evenodd" clip-rule="evenodd" d="M129.626 43.45h-9.04V32.319H97.8V43.45h-3.9a3.635 3.635 0 0 0-3.642 3.635v1.046c4.013-.322 7.752 2.3 8.122 2.493.42.225.516 1.094-.451 1.094-.967 0-4.287-.708-4.287-.708 1.435.483 4.642 1.609 4.867 1.882.338.402-.258 1.142-1.225.82l-4.093-1.319s3.884 2.06 4.206 2.349c.322.29-1.257 1.013-3.078.064-1.82-.949-1.982-.852-1.982-.852s2.95 1.351 3.336 1.689c.37.354-1.434 1.03-3.739.209a22 22 0 0 1-1.66-.676V77.39a3.635 3.635 0 0 0 3.642 3.636h35.726a3.634 3.634 0 0 0 3.642-3.636V47.085a3.658 3.658 0 0 0-3.658-3.635zm-14.519 23.694-3.416.965c-.419-.241-.87-.483-1.177-.66-.709-.402-.419-1.061.403-1.11.645-.048 2.901.451 4.19.805zm4.915 6.177c-1.757.981-4.206.418-4.206.418-1.773 1.737-3.996.95-3.658.563.338-.402 3.142-2.075 3.142-2.075s-.177-.08-1.885 1.078c-1.708 1.142-3.368.61-3.078.273.29-.322 3.948-2.815 3.948-2.815l-3.948 1.786c-.935.434-1.611-.226-1.321-.676.193-.29 3.271-1.77 4.641-2.413 0 0-3.223 1.078-4.206 1.19-.967.113-.967-.772-.58-1.045.403-.273 4.882-2.718 9.556-2.38l4.447-.789 1.982 6.354-4.834.53z" fill="#FE7624"/>
    <path fill-rule="evenodd" clip-rule="evenodd" d="M106.76 32.094c.257 0 .468.2.482.454l.001.028v10.44a.483.483 0 0 1-.966.028l-.001-.028v-10.44c0-.266.217-.482.484-.482zM100.572 32.367c.257 0 .468.201.482.454l.001.029v2.573h2.675v-2.428c0-.258.201-.467.455-.482l.029-.001c.257 0 .468.2.482.454l.001.029v2.911a.483.483 0 0 1-.455.482h-3.67a.483.483 0 0 1-.483-.454l-.001-.028V32.85c0-.267.217-.483.484-.483zM117.395 37.45h-4.093c-.851 0-1.547.687-1.547 1.544v.82c0 .85.688 1.545 1.547 1.545h4.093c.852 0 1.547-.687 1.547-1.544v-.82c0-.85-.688-1.545-1.547-1.545zm-4.093.965h4.093c.323 0 .58.26.58.58v.82c0 .322-.26.579-.58.579h-4.093a.579.579 0 0 1-.58-.58v-.82c0-.322.26-.579.58-.579zM89.142 47.804c-.143.03-.286.064-.427.102a.492.492 0 0 0-.077.028c-1.396.644-2.45 2.084-2.34 3.586.135 1.868 1.928 3.53 5.475 4.787 1.109.395 2.215.5 3.11.357.394-.063.726-.172.952-.32l.026-.018c.194-.136.327-.325.35-.525l.004-.038h.001c.181-.003.357-.02.527-.048.343-.059.64-.168.847-.315.349-.249.5-.684.13-1.017l-.01-.01a1.549 1.549 0 0 0-.131-.096l-.019-.013.008.001c.44.046.845-.067 1.139-.319.416-.356.521-.933.178-1.357l-.01-.012c-.092-.103-.277-.218-.58-.359l-.086-.039.032-.005c.491-.089.83-.392.91-.833.078-.434-.132-.9-.506-1.121l-.05-.03c-.08-.048-.474-.291-.703-.425a18.555 18.555 0 0 0-1.589-.833c-2.42-1.12-4.853-1.614-7.161-1.128zm6.754 2.004c.476.22.92.452 1.347.697l.239.139c.246.147.634.386.669.405.024.013.055.08.047.121 0 .007-.001.008-.01.015-.04.028-.124.05-.259.05-.325 0-1.01-.093-1.923-.254l-.246-.044a60.094 60.094 0 0 1-1.245-.24l-.485-.098-.286-.06c-.592-.127-.833.728-.26.927l1.207.421c.313.11.573.203.885.315l.308.111c.597.217 1.098.406 1.488.563l.126.051c.223.092.401.17.528.232l.055.028.016.008-.006.006a.36.36 0 0 1-.013.013c-.12.102-.347.137-.643.04l-4.095-1.32c-.553-.177-.886.584-.4.872l.683.365.633.34.414.224.68.37c.408.225.76.422 1.044.584l.14.081.047-.007c-.593.1-1.322-.011-2.038-.384l-.272-.141c-1.33-.682-1.853-.855-2.14-.72l-.023.86.067.032.406.186.08.037c.338.156.674.313.994.467l.26.126.176.086c.247.121.466.232.653.33l.093.05-.008.002a3.26 3.26 0 0 1-.098.017c-.734.117-1.677.028-2.634-.313l-.192-.07c-3.093-1.129-4.543-2.5-4.643-3.878l-.003-.053c-.046-1.025.716-2.07 1.731-2.562l.016-.007-.04.01c.124-.033.25-.063.376-.09 2.068-.436 4.306.019 6.554 1.06zM102.892 43.128c2.098 0 3.817 1.661 3.851 3.718l.001.063v30.289c0 2.085-1.733 3.78-3.852 3.78a.483.483 0 1 1 0-.966c1.572 0 2.856-1.238 2.884-2.763l.001-.051v-30.29c0-1.547-1.295-2.815-2.885-2.815a.483.483 0 1 1 0-.965zM122.774 65.961l-4.389.778.062.004c-2.135-.161-4.372.22-6.574.98l-.158.056c-1.371.486-2.665 1.11-3.132 1.427a1.104 1.104 0 0 0-.421 1.205l.012.037c.14.411.508.66.998.691l.041.002-.02.013c-.329.2-.54.36-.606.468-.291.452-.114 1.015.345 1.322l.041.026c.314.193.71.251 1.121.162l-.005.005c-.058.049-.1.088-.127.118-.335.372-.134.79.242.998.222.123.53.2.879.22l.074.003c.149.005.302 0 .456-.014l.016-.002.003.026c.012.075.039.149.079.219a.933.933 0 0 0 .384.348c.274.147.656.237 1.073.252l.068.002c.911.015 1.859-.31 2.666-1.005l.05-.044.093.015.098.014.052.007c.873.118 1.799.123 2.68-.06l.099-.022c.392-.09.76-.215 1.098-.382l.08-.04 4.727-.537a.482.482 0 0 0 .407-.622l-1.966-6.338a.483.483 0 0 0-.546-.332zm-.252 1.025 1.668 5.374-4.239.481a.483.483 0 0 0-.178.057 3.946 3.946 0 0 1-1.095.39c-.758.159-1.581.154-2.354.05a6.998 6.998 0 0 1-.315-.05l-.103-.02a.484.484 0 0 0-.446.128c-.681.673-1.495.972-2.257.945l-.052-.003a2.252 2.252 0 0 1-.184-.018l-.067-.01.031-.022a25 25 0 0 1 .791-.527l.234-.15c.23-.145.47-.295.715-.446l.446-.273.415-.25a.482.482 0 0 0-.082-.868l-.033-.01a.483.483 0 0 0-.061-.014c-.296-.045-.858.239-2.226 1.154l-.067.044c-.63.403-1.293.582-1.864.563h-.015l.084-.062c.204-.15.448-.325.728-.523l.567-.398.378-.264.586-.405 1.015-.697c.488-.333.066-1.082-.472-.838l-3.948 1.785c-.285.133-.517.123-.652.033l-.014-.01-.009-.008.015-.01c.081-.054.193-.122.333-.203l.155-.087c.278-.153.633-.34 1.05-.551l.085-.043c.84-.423 1.899-.933 2.76-1.332.543-.253.23-1.062-.331-.904l-.595.195c-.432.14-.877.28-1.307.41l-.352.104-.304.089c-.736.21-1.291.346-1.576.38-.141.015-.231.002-.277-.023-.012-.006-.013-.008-.015-.015-.012-.04.012-.112.038-.13l.05-.031c.155-.096.499-.28.894-.47a20.038 20.038 0 0 1 2.119-.867c2.087-.72 4.197-1.081 6.185-.93.04.003.081 0 .121-.007l4.027-.713z" fill="#2E186A"/>
    <path fill-rule="evenodd" clip-rule="evenodd" d="M110.893 65.858c.647-.033 2.74.386 4.341.82a.483.483 0 1 1-.254.932l-.139-.038c-1.478-.392-3.41-.775-3.895-.75a.662.662 0 0 0-.327.086l-.011.01.003.003a.457.457 0 0 0 .11.09l.028.017 1.058.594.119.065a.482.482 0 1 1-.47.844l-1.18-.662c-1.162-.659-.662-1.936.617-2.011zM121.086 66.292l1.176 7.56a.98.98 0 0 0 1.112.836l19.031-3.169a2.774 2.774 0 0 0 1.902-1.238c2.095-3.217 8.315-12.965 8.943-16.375.532-2.847-2.385-6.16-5.446-6.032-1.354.064-8.638 13.978-8.638 13.978l-17.21 3.265c-.564.065-.951.596-.87 1.175zM80.681 96.129a.484.484 0 0 1 .683.027l.061.07c.032.035.07.08.113.134l.028.033c.151.186.319.408.499.665.51.728 1.018 1.594 1.492 2.597 1.89 4 2.693 8.906 1.797 14.677a.483.483 0 0 1-.956-.148c.866-5.574.094-10.287-1.715-14.117-.45-.952-.931-1.771-1.41-2.456a11.093 11.093 0 0 0-.412-.552L80.815 97a6.071 6.071 0 0 0-.102-.123l-.06-.067a.482.482 0 0 1 .028-.682zM58.521 101.796l2.138-.882a1.168 1.168 0 0 1 1.624 1.033V102.773a.483.483 0 0 1-.965.028l-.001-.028v-.788a.202.202 0 0 0-.264-.188l-.019.006-2.14.884c-.123.052-.168.189-.105.291l.012.018.612.804a.484.484 0 0 1-.75.608l-.02-.024-.61-.801c-.46-.596-.232-1.455.451-1.77l.037-.017z" fill="#2E186A"/>
    <path fill-rule="evenodd" clip-rule="evenodd" d="M61.157 102.515a2.422 2.422 0 0 1 2.597.137.482.482 0 1 1-.556.789 1.46 1.46 0 0 0-1.52-.11l-.046.025-5.98 3.315a2.85 2.85 0 0 0-1.455 2.277l-.004.06-.177 3.267a.562.562 0 0 0 .844.514l5.729-3.666a.483.483 0 0 1 .744.388v.027l-.194 10.343a.48.48 0 0 1-.063.23l-.019.03-10.91 16.214a.549.549 0 0 1-.035.047 1.376 1.376 0 0 0 .226 2.011l.036.025 2.095 1.432c.63.431 1.504.255 1.916-.377l.023-.036 9.572-15.925a.484.484 0 0 1 .553-.214l.028.01 2.192.804c.196.072.322.26.316.466l-.001.03-1.516 17.007a1.433 1.433 0 0 0 1.402 1.577h.043l2.884-.048a1.155 1.155 0 0 0 1.137-1.143v-.055l.274-17.067a.483.483 0 0 1 .458-.474l.028-.001 5.27.032c.22.002.41.151.465.362l.006.028 3.19 16.279a2.007 2.007 0 0 0 2.068 1.625l.05-.003 2.41-.175.004-.001a.981.981 0 0 0 .706-1.132l-.008-.036-4.528-17.34a.482.482 0 0 1 .309-.577l.026-.009 2.208-.627c.25-.071.51.069.592.312l.008.028 4.723 17.685a2 2 0 0 0 .1.286 2.584 2.584 0 0 0 3.495 1.229l.063-.032.335-.159c1.287-.625 1.455-2.552.539-4.332l-.011-.023-.01-.024-8.312-21.546-.04-.09c-1.436-3.222-4.504-5.207-7.866-5.115l-.103.004h-.027l-10.088-.161a.483.483 0 0 1-.411-.242l-.015-.028-1.596-3.249a.482.482 0 0 1 .855-.451l.013.026 1.465 2.984 9.78.156.1-.004c3.758-.102 7.183 2.113 8.776 5.687l.049.11.007.017 8.306 21.532.021.042c1.084 2.161.865 4.617-.957 5.548l-.056.028-.33.157-.045.024a3.554 3.554 0 0 1-4.795-1.642l-.026-.055c-.055-.127-.1-.25-.133-.366l-4.614-17.273-1.28.363 4.41 16.891a1.948 1.948 0 0 1-1.411 2.344l-.048.011a.75.75 0 0 1-.047.008l-.024.002-2.447.177a2.972 2.972 0 0 1-3.127-2.345l-.011-.054-3.115-15.891-4.395-.027-.267 16.584v.039a2.121 2.121 0 0 1-2.036 2.112l-.05.002-2.886.048a2.398 2.398 0 0 1-2.427-2.584l1.487-16.683-1.469-.539-9.367 15.585a2.343 2.343 0 0 1-3.268.74l-.045-.03-2.095-1.431a2.34 2.34 0 0 1-.482-3.424l.014-.016 10.815-16.074.174-9.299-4.938 3.161c-1.031.679-2.4-.099-2.362-1.321l.002-.041.177-3.266a3.818 3.818 0 0 1 1.896-3.096l6.033-3.344z" fill="#2E186A"/>
    <path fill-rule="evenodd" clip-rule="evenodd" d="M61.928 107.046c-.387 1.524 1.391 2.671 2.61 1.684l4.9-3.974a1.629 1.629 0 0 0-.248-2.694l-3.404-1.852c-.928-.497-2.075-.012-2.35.989l-1.508 5.847zm3.398-5.987 3.398 1.849c.42.232.47.799.102 1.101l-4.897 3.972c-.486.393-1.2-.056-1.071-.667l.007-.029 1.498-5.807a.665.665 0 0 1 .963-.419z" fill="#2E186A"/>
    <ellipse rx=".547" ry=".371" transform="rotate(-87.019 85.555 20.992) skewX(.011)" fill="#2E186A"/>
    <path fill-rule="evenodd" clip-rule="evenodd" d="M55.489 110.048a.484.484 0 0 1 .86.442 2.148 2.148 0 0 1-1.458 1.137c-.63.139-1.27.019-1.308-.554a.483.483 0 0 1 .82-.377l.01.011.013.001a.937.937 0 0 0 .215-.015l.04-.009c.333-.073.625-.282.808-.636z" fill="#2E186A"/>
    <ellipse rx="1.367" ry="1.064" transform="rotate(-88.435 82.828 25.925) skewX(.006)" fill="#2E186A"/>
    <path fill-rule="evenodd" clip-rule="evenodd" d="m77.426 110.108-8.414-.145a.483.483 0 0 0-.485.565l1.133 6.287.07.439.016.086c.033.19.07.356.115.518.418 1.498 1.561 2.186 3.713 1.696 2.687-.603 7.116-4.022 9.51-7.125a.481.481 0 0 0-.108-.69l-.09-.062a9.042 9.042 0 0 0-5.366-1.572l-.094.003zm-6.808 6.572-.02-.117-.73-4.032-.287-1.592 7.842.134h.029l.102-.004a8.051 8.051 0 0 1 4.352 1.129l.085.051-.028.035c-2.335 2.818-6.293 5.811-8.602 6.329-1.648.375-2.288-.01-2.57-1.015a4.203 4.203 0 0 1-.081-.358l-.012-.068-.014-.078-.066-.414z" fill="#2E186A"/>
    <path fill-rule="evenodd" clip-rule="evenodd" d="m68.778 107.229-10.072 6.032a1.01 1.01 0 0 0-.387 1.319l.484.981c.274.547.967.74 1.466.402l9.927-6.498a1.03 1.03 0 0 0 .29-1.416l-.339-.515c-.29-.45-.902-.579-1.37-.305z" fill="#2E186A"/>
    <path fill-rule="evenodd" clip-rule="evenodd" d="M119.887 72.171a.484.484 0 0 1 .585.768l-.025.019-51.97 36.884a.485.485 0 0 1-.673-.114.482.482 0 0 1 .09-.654l.023-.019 51.97-36.884z" fill="#2E186A"/>
    <path fill-rule="evenodd" clip-rule="evenodd" d="m121.021 74.141-.886.129a.47.47 0 0 1-.532-.386l-1.176-7.705a.469.469 0 0 1 .386-.531l.887-.129a.469.469 0 0 1 .531.386l1.177 7.705c.032.274-.145.499-.387.531z" fill="#2E186A"/>
    <path fill-rule="evenodd" clip-rule="evenodd" d="M191.941 143.099h62.509a2.412 2.412 0 0 0 2.417-2.413v-30.53a2.412 2.412 0 0 0-2.417-2.413h-62.509a2.412 2.412 0 0 0-2.417 2.413v30.53a2.412 2.412 0 0 0 2.417 2.413z" fill="#FE7624"/>
    <path fill-rule="evenodd" clip-rule="evenodd" d="M212.342 107.775a.484.484 0 1 1 0 .966c-1.535 0-2.742.986-2.771 2.175v29.465c0 1.208 1.217 2.219 2.771 2.219a.484.484 0 0 1 0 .966c-2.032 0-3.705-1.373-3.738-3.132V110.96c0-1.785 1.685-3.185 3.738-3.185zM205.461 107.261h-6.091c-2.057 0-3.739 1.42-3.739 3.233v8.879c0 .267.217.483.484.483h6.091a.484.484 0 0 0 .484-.483v-8.879c0-1.231 1.223-2.268 2.771-2.268.645 0 .645-.965 0-.965zm-2.666.965-.012.011c-.655.58-1.06 1.374-1.06 2.257v8.396h-5.125v-8.396c0-1.241 1.217-2.268 2.772-2.268h3.425z" fill="#2E186A"/>
    <path fill-rule="evenodd" clip-rule="evenodd" d="M287.998 142.392a.482.482 0 0 1 .032.964l-.028.001-287 1.126a.483.483 0 0 1-.032-.964l.028-.001 287-1.126z" fill="#2E186A"/>
</svg>
