<svg width="314" height="112" viewBox="0 0 314 112" fill="none" xmlns="http://www.w3.org/2000/svg">
    <path fill-rule="evenodd" clip-rule="evenodd" d="M243.957 86.814V24.481h-7.752v62.841l7.752-.508z" fill="#fff"/>
    <path fill-rule="evenodd" clip-rule="evenodd" d="M243.957 23.914h-7.752a.564.564 0 0 0-.564.564V87.32c0 .327.275.585.601.564l7.752-.508a.564.564 0 0 0 .527-.564V24.478a.564.564 0 0 0-.564-.564zm-.565 1.13v61.24l-6.623.434V25.043h6.623z" fill="#2E186A"/>
    <path fill="#fff" d="M87.981 24.48h152.1v86.398h-152.1z"/>
    <path fill-rule="evenodd" clip-rule="evenodd" d="M240.081 23.914h-152.1a.564.564 0 0 0-.564.564v86.399c0 .311.253.564.564.564h152.1a.565.565 0 0 0 .565-.564V24.479a.565.565 0 0 0-.565-.565zm-.565 1.13v85.269H88.545v-85.27h150.971z" fill="#2E186A"/>
    <path fill="#FEBA91" d="M119.121 57.895h6.359v6.359h-6.359z"/>
    <path fill="#FE7624" d="M119.121 64.273h6.359v6.359h-6.359z"/>
    <path fill="#FEBA91" d="M218.049 45.875h6.359v6.359h-6.359z"/>
    <path fill="#FE7624" d="M218.049 52.254h6.359v6.359h-6.359z"/>
    <path fill="#FEBA91" d="M98.481 56.313h6.359v6.359h-6.359z"/>
    <path fill="#FE7624" d="M98.481 62.676h6.359v6.359h-6.359z"/>
    <path fill="#FEBA91" d="M98.481 69.051h6.359v6.359h-6.359zM144.428 56.727h6.359v6.359h-6.359zM144.426 63.105h6.359v6.359h-6.359z"/>
    <path fill="#FE7624" d="M144.426 69.465h6.359v6.359h-6.359zM208.605 42.277h6.359v6.359h-6.359z"/>
    <path fill="#FEBA91" d="M208.605 48.637h6.359v6.359h-6.359z"/>
    <path fill="#FE7624" d="M208.605 54.996h6.359v6.359h-6.359z"/>
    <path fill="#FEBA91" d="M186.234 64.574h6.359v6.359h-6.359zM186.234 70.934h6.359v6.359h-6.359zM186.234 77.309h6.359v6.359h-6.359z"/>
    <path fill="#FE7624" d="M186.234 83.668h6.359v6.359h-6.359z"/>
    <path fill="#FEBA91" d="M198.351 55.016h6.359v6.359h-6.359z"/>
    <path fill="#FE7624" d="M198.351 61.395h6.359v6.359h-6.359z"/>
    <path fill="#FEBA91" d="M198.351 67.754h6.359v6.359h-6.359zM198.351 74.133h6.359v6.359h-6.359zM136.43 51.742h6.359v6.359h-6.359z"/>
    <path fill="#FE7624" d="M152.989 51.742h6.359v6.359h-6.359zM152.987 58.102h6.359v6.359h-6.359zM152.987 64.481h6.359v6.359h-6.359z"/>
    <path fill="#FEBA91" d="M152.987 70.84h6.359v6.359h-6.359z"/>
    <path fill="#FE7624" d="M152.987 77.219h6.359v6.359h-6.359z"/>
    <path fill="#FEBA91" d="M152.987 83.578h6.359v6.359h-6.359zM177.165 63.164h6.359v6.359h-6.359zM177.165 101.379h6.359v6.359h-6.359z"/>
    <path fill="#FE7624" d="M177.165 69.543h6.359v6.359h-6.359z"/>
    <path fill="#FEBA91" d="M177.165 75.902h6.359v6.359h-6.359z"/>
    <path fill="#FE7624" d="M177.165 82.281h6.359v6.359h-6.359z"/>
    <path fill="#FEBA91" d="M177.165 88.641h6.359V95h-6.359z"/>
    <path fill="#FE7624" d="M177.165 95.019h6.359v6.359h-6.359z"/>
    <path fill="#FEBA91" d="M108.81 53.699h6.359v6.359h-6.359z"/>
    <path fill="#FE7624" d="M108.809 60.078h6.359v6.359h-6.359zM108.809 66.438h6.359v6.359h-6.359z"/>
    <path fill="#FEBA91" d="M108.809 72.758h6.359v6.359h-6.359zM126.175 87.793h6.359v6.359h-6.359z"/>
    <path fill="#FE7624" d="M134.247 87.793h6.359v6.359h-6.359z"/>
    <path fill="#FEBA91" d="M196.017 92.344h6.359v6.359h-6.359z"/>
    <path fill="#FE7624" d="M203.693 92.344h6.359v6.359h-6.359z"/>
    <path fill="#FEBA91" d="M196.017 100.094h6.359v6.359h-6.359z"/>
    <path fill="#FE7624" d="M136.203 95.637h6.359v6.359h-6.359zM128.283 95.637h6.359v6.359h-6.359z"/>
    <path fill="#FEBA91" d="M119.608 95.637h6.359v6.359h-6.359z"/>
    <path fill-rule="evenodd" clip-rule="evenodd" d="M123.655 46.621c.301 0 .546.235.564.531l.001.033v8.317a.565.565 0 0 1-1.128.033l-.001-.033V47.75h-21.807v5.946c0 .3-.235.546-.531.563l-.033.001a.565.565 0 0 1-.564-.531l-.001-.033v-6.51c0-.301.235-.547.532-.564h22.968z" fill="#2E186A"/>
    <path fill-rule="evenodd" clip-rule="evenodd" d="M112.196 35.52c.301 0 .547.234.564.53l.001.034v15.579a.565.565 0 0 1-1.128.033l-.001-.033V36.084c0-.312.253-.565.564-.565zM156.844 44.156c.3 0 .546.235.563.532l.001.033v4.722a.564.564 0 0 1-1.128.033l-.001-.033v-4.158h-16.105v4.158c0 .3-.235.547-.531.564h-.034a.564.564 0 0 1-.563-.53l-.001-.034v-4.722c0-.3.235-.547.531-.564h17.268z" fill="#2E186A"/>
    <path fill-rule="evenodd" clip-rule="evenodd" d="M148.228 35.184c.3 0 .546.235.563.53l.001.034v18.025a.565.565 0 0 1-1.128.033l-.001-.033V35.748c0-.312.253-.564.565-.564z" fill="#2E186A"/>
    <path fill-rule="evenodd" clip-rule="evenodd" d="M123.655 32.004a.565.565 0 0 1 .033 1.128H100.72a.565.565 0 0 1-.033-1.127l.033-.001h22.935zM156.844 33.094a.565.565 0 0 1 .033 1.128h-16.59a.564.564 0 0 1-.033-1.127l.033-.001h16.557zM214.908 30.121a.565.565 0 0 1 .033 1.128l-.033.001h-16.557a.565.565 0 0 1-.034-1.128H214.908zM143.806 83.668a.565.565 0 0 1 .034 1.128h-17.099a.564.564 0 0 1-.033-1.127l.033-.001h17.065z" fill="#FE7624"/>
    <path fill-rule="evenodd" clip-rule="evenodd" d="M233.139 68.484a.565.565 0 0 1 .033 1.128l-.033.001h-14.112a.565.565 0 0 1-.033-1.128h14.145z" fill="#2E186A"/>
    <path fill-rule="evenodd" clip-rule="evenodd" d="M206.874 88.184a.565.565 0 0 1 .033 1.127l-.033.001h-7.677a.565.565 0 0 1-.033-1.127l.033-.001h7.677z" fill="#FE7624"/>
    <path fill-rule="evenodd" clip-rule="evenodd" d="M188.849 54.863c.3 0 .546.235.563.532l.001.033v6.999a.565.565 0 0 1-1.128.033l-.001-.033v-6.435h-8.335v4.648c0 .3-.235.546-.531.563h-.033a.565.565 0 0 1-.564-.53l-.001-.034v-5.211c0-.3.235-.547.532-.564h9.497zM221.248 35.953c.301 0 .546.235.564.531l.001.034v7.224a.565.565 0 0 1-1.128.034l-.001-.034-.001-6.66h-36.011v5.08c0 .3-.235.546-.531.563l-.034.002a.564.564 0 0 1-.563-.532l-.001-.033v-5.644c0-.301.235-.547.531-.564h37.174z" fill="#2E186A"/>
    <path fill-rule="evenodd" clip-rule="evenodd" d="M184.107 49.574c.301 0 .547.235.564.532l.001.033v5.287a.565.565 0 0 1-1.128.033l-.001-.033v-5.287c0-.312.253-.565.564-.565zM201.492 35.953c.301 0 .547.235.564.531l.001.034v15.729a.565.565 0 0 1-1.128.033l-.001-.033v-15.73c0-.311.252-.564.564-.564zM211.389 35.953c.3 0 .546.235.563.531l.001.034v3.066a.565.565 0 0 1-1.128.034l-.001-.034v-3.066c0-.312.253-.565.565-.565zM205.989 32.285c.301 0 .547.235.564.531l.001.034v3.066a.565.565 0 0 1-1.128.034l-.001-.034V32.85c0-.312.253-.565.564-.565z" fill="#2E186A"/>
    <path fill-rule="evenodd" clip-rule="evenodd" d="M191.351 44.328a.565.565 0 0 1 .034 1.128l-.034.001h-13.546a.565.565 0 0 1-.033-1.128H191.351zM188.303 46.773a.565.565 0 0 1 .033 1.128l-.033.001h-7.45a.565.565 0 0 1-.034-1.128h7.484z" fill="#FE7624"/>
    <path fill="#fff" d="M43.051 37.125h28.655v30.857H43.051z"/>
    <path fill-rule="evenodd" clip-rule="evenodd" d="M71.707 36.559H43.052a.564.564 0 0 0-.565.564V67.98c0 .311.253.564.565.564h28.655a.565.565 0 0 0 .564-.564V37.123a.564.564 0 0 0-.564-.564zm-.566 1.127v29.728H43.615V37.686h27.526z" fill="#5D21D1"/>
    <path fill-rule="evenodd" clip-rule="evenodd" d="M58.48 43.52c-.508 0-.997.057-1.486.132l1.58 8.956-3.03 8.58c.998.357 2.07.526 3.124.526 4.986-.056 9.05-4.196 8.994-9.181-.038-5.005-4.177-9.07-9.182-9.013z" fill="#5D21D1"/>
    <path fill-rule="evenodd" clip-rule="evenodd" d="M47.586 52.946c.038 3.8 2.465 7.187 6.04 8.466l3.066-8.56-9.106.094z" fill="#FEBA91"/>
    <path fill-rule="evenodd" clip-rule="evenodd" d="M54.604 41.996a9.09 9.09 0 0 0-5.419 3.142 9.008 9.008 0 0 0-2.088 5.908l9.088-.094-1.58-8.956z" fill="#FE7624"/>
    <path fill-rule="evenodd" clip-rule="evenodd" d="M80.286 44.047c.3 0 .546.235.563.531l.001.033V65.59h17.235c.3 0 .546.235.563.531l.001.033c0 .301-.235.547-.531.564H80.285a.564.564 0 0 1-.563-.53v-.034l-.001-20.978h-8.015a.564.564 0 0 1-.563-.532l-.001-.033c0-.3.235-.546.53-.563l.034-.001h8.58z" fill="#5D21D1"/>
    <circle cx="98.085" cy="66.154" r="1.599" fill="#5D21D1"/>
    <path fill="#fff" d="M221.135 68.301h64.761v42.842h-64.761z"/>
    <path fill-rule="evenodd" clip-rule="evenodd" d="M285.897 67.734h-64.761a.565.565 0 0 0-.565.565v42.841c0 .312.253.565.565.565h64.761a.565.565 0 0 0 .564-.565V68.299a.565.565 0 0 0-.564-.565zm-.566 1.128v41.713h-63.632V68.862h63.632z" fill="#5D21D1"/>
    <path fill="#fff" d="M216.864 68.301h64.761v42.842h-64.761z"/>
    <path fill-rule="evenodd" clip-rule="evenodd" d="M281.625 67.734h-64.761a.565.565 0 0 0-.564.565v42.841c0 .312.253.565.564.565h64.761a.565.565 0 0 0 .565-.565V68.299a.565.565 0 0 0-.565-.565zm-.565 1.128v41.713h-63.632V68.862h63.632z" fill="#5D21D1"/>
    <path fill-rule="evenodd" clip-rule="evenodd" d="M274.57 99.175h-50.688a.466.466 0 0 1-.47-.47c0-.264.207-.47.47-.47h50.688c.263 0 .47.206.47.47 0 .263-.207.47-.47.47zM274.57 93.12h-50.688a.466.466 0 0 1-.47-.47c0-.263.207-.47.47-.47h50.688c.263 0 .47.207.47.47s-.207.47-.47.47zM274.57 87.062h-50.688a.466.466 0 0 1-.47-.47c0-.264.207-.47.47-.47h50.688c.263 0 .47.206.47.47 0 .263-.207.47-.47.47zM274.57 81.019h-50.688a.466.466 0 0 1-.47-.47c0-.264.207-.47.47-.47h50.688c.263 0 .47.206.47.47 0 .263-.207.47-.47.47z" fill="#5D21D1"/>
    <path fill="#5D21D1" d="m251.818 76.715 7.093-.073.282 27.656-7.092.073z"/>
    <path fill="#FE7624" d="m263.909 86.644 7.13-.073.182 17.722-7.13.073zM239.923 86.644l7.13-.073.182 17.722-7.13.073z"/>
    <path fill-rule="evenodd" clip-rule="evenodd" d="m235.34 104.293-7.093.076-.113-8.505 7.112-.075.094 8.504z" fill="#FE7624"/>
    <path fill-rule="evenodd" clip-rule="evenodd" d="M223.883 74.02c.3 0 .546.234.563.53l.001.034v29.22h50.123c.301 0 .547.235.564.531l.001.033a.565.565 0 0 1-.532.564h-50.72a.565.565 0 0 1-.564-.531l-.001-.033V74.584c0-.312.253-.565.565-.565zM233.479 105.559a.564.564 0 0 1 .033 1.128h-4.21a.564.564 0 0 1-.033-1.127l.033-.001h4.177zM245.707 105.559a.564.564 0 0 1 .033 1.128h-4.21a.564.564 0 0 1-.033-1.127l.033-.001h4.177z" fill="#FE7624"/>
    <path fill-rule="evenodd" clip-rule="evenodd" d="M257.673 105.559a.564.564 0 0 1 .033 1.128H253.515a.564.564 0 0 1-.034-1.127l.034-.001h4.158z" fill="#5D21D1"/>
    <path fill-rule="evenodd" clip-rule="evenodd" d="M269.697 105.559a.564.564 0 0 1 .034 1.128h-4.21a.564.564 0 0 1-.034-1.127l.034-.001h4.176z" fill="#FE7624"/>
    <path fill-rule="evenodd" clip-rule="evenodd" d="M221.794 81.585a.466.466 0 0 1-.471-.47v-.734c0-.264.207-.47.471-.47.263 0 .47.206.47.47v.733c0 .264-.226.47-.47.47zM221.794 87.436a.466.466 0 0 1-.471-.47v-.734c0-.263.207-.47.471-.47.263 0 .47.207.47.47v.734c0 .263-.226.47-.47.47zM221.794 93.854a.466.466 0 0 1-.471-.47v-.734c0-.263.207-.47.471-.47.263 0 .47.207.47.47v.734c0 .263-.226.47-.47.47zM221.794 99.913a.466.466 0 0 1-.471-.47v-.734c0-.264.207-.47.471-.47.263 0 .47.206.47.47v.733c0 .264-.226.47-.47.47zM229.582 48.621c.301 0 .547.235.564.531l.001.033v18.74a.565.565 0 0 1-1.128.033l-.001-.033V49.75h-4.403a.564.564 0 0 1-.563-.531l-.001-.034c0-.3.235-.546.531-.563h5z" fill="#5D21D1"/>
    <circle cx="224.616" cy="49.185" r="1.599" fill="#5D21D1"/>
    <path fill-rule="evenodd" clip-rule="evenodd" d="m124.932 75.11-49.465.413c-.658 0-1.222.452-1.373 1.092l-8.73 29.501h-17.31s-1.016 5.193 4.873 5.193h64.009c.658 0 1.223-.451 1.373-1.091l8.015-33.378c.207-.865-.47-1.73-1.392-1.73z" fill="#5D21D1"/>
    <path fill-rule="evenodd" clip-rule="evenodd" d="m121.339 75.11-49.464.413c-.659 0-1.223.452-1.374 1.092l-8.73 29.52h-17.31s-1.016 5.193 4.873 5.193h64.009c.658 0 1.223-.451 1.373-1.091l8.016-33.378a1.432 1.432 0 0 0-1.393-1.75z" fill="#5D21D1"/>
    <path fill-rule="evenodd" clip-rule="evenodd" d="m65.796 103.315 6.36-23.085a1.77 1.77 0 0 1 1.712-1.355l42.71-.414a1.76 1.76 0 0 1 1.712 2.164l-5.475 23.537a1.77 1.77 0 0 1-1.712 1.355l-43.576-.038c-1.147 0-1.994-1.072-1.73-2.164z" fill="#fff"/>
    <path fill-rule="evenodd" clip-rule="evenodd" d="M111.593 81.95a.564.564 0 0 1 .759.148l.02.028 1.129 1.788a.564.564 0 0 1-.135.75l-.028.02-1.825 1.223a.566.566 0 0 1-.657-.918l.028-.02 1.369-.917-.836-1.323a.564.564 0 0 1 .148-.76l.028-.018zM107.648 82.248a.564.564 0 0 1 .757.156l.019.029 1.505 2.446a.563.563 0 0 1-.942.62l-.019-.029-1.505-2.446a.563.563 0 0 1 .185-.776zM105.922 82.155a.564.564 0 0 1 .722.867l-.028.023-1.29 1.006.747 1.066a.565.565 0 0 1-.11.765l-.029.021a.565.565 0 0 1-.765-.11l-.021-.029-1.054-1.505a.565.565 0 0 1 .088-.746l.027-.023 1.713-1.335zM103.843 100.938a.564.564 0 0 1 .033 1.127l-.033.001h-3.989a.564.564 0 0 1-.033-1.128h4.022zM97.07 100.957a.565.565 0 0 1 .034 1.128l-.034.001h-8.128a.565.565 0 0 1-.033-1.128l.033-.001h8.128zM86.252 100.957a.565.565 0 0 1 .033 1.128l-.033.001H70.748a.565.565 0 0 1-.033-1.128l.033-.001h15.504zM109.583 98.57a.565.565 0 0 1 .033 1.128l-.033.001h-2.446a.565.565 0 0 1-.033-1.128h2.479zM104.39 98.57a.565.565 0 0 1 .033 1.128l-.033.001h-3.989a.565.565 0 0 1-.033-1.128h4.022zM97.653 98.57a.564.564 0 0 1 .034 1.128l-.033.001-27.206.019a.564.564 0 0 1-.034-1.128h.033l27.206-.02zM110.128 96.2a.565.565 0 0 1 .033 1.127l-.033.001h-5.531a.565.565 0 0 1-.033-1.128h5.564zM101.981 96.2a.565.565 0 0 1 .033 1.127l-.033.001h-7.357a.564.564 0 0 1-.033-1.128H101.98zM87.173 96.2a.564.564 0 0 1 .033 1.127l-.033.001h-9.125a.564.564 0 0 1-.033-1.128h9.158zM92.01 96.2a.564.564 0 0 1 .032 1.127l-.033.001h-2.577a.564.564 0 0 1-.034-1.128H92.01zM110.673 93.813a.565.565 0 0 1 .033 1.127l-.033.001h-7.602a.565.565 0 0 1-.033-1.127l.033-.001h7.602zM100.757 93.813a.564.564 0 0 1 .034 1.127l-.033.001-19.341.02a.564.564 0 0 1-.035-1.129h.033l19.342-.02zM79.101 93.832a.564.564 0 0 1 .034 1.128H71.557a.564.564 0 0 1-.034-1.127l.034-.001H79.1zM106.72 91.438a.565.565 0 0 1 .033 1.127l-.033.001h-2.935a.564.564 0 0 1-.033-1.127l.033-.001h2.935zM101.905 91.438a.565.565 0 0 1 .034 1.127l-.033.001-18.006.02a.564.564 0 0 1-.034-1.129h.033l18.006-.02zM111.217 91.438a.564.564 0 0 1 .033 1.127l-.033.001h-2.615a.565.565 0 0 1-.034-1.127l.034-.001h2.615zM111.653 89.574a.565.565 0 0 1 .034 1.128l-.034.001H97.806a.564.564 0 0 1-.034-1.128h13.881zM95.697 89.574a.564.564 0 0 1 .034 1.128l-.033.001-23.519.019a.564.564 0 0 1-.034-1.128l.033-.001 23.519-.019zM112.177 87.316a.565.565 0 0 1 .036 1.128l-.033.001-7.601.02a.564.564 0 0 1-.036-1.129h.033l7.601-.02zM102 87.336a.564.564 0 0 1 .033 1.128H96.356a.564.564 0 0 1-.034-1.127l.034-.001H102zM93.965 87.336A.564.564 0 0 1 94 88.464h-3.251a.564.564 0 0 1-.033-1.127l.033-.001h3.217zM88.358 87.336a.564.564 0 0 1 .033 1.128h-6.976a.564.564 0 0 1-.033-1.127l.033-.001h6.943zM79.027 87.336a.564.564 0 0 1 .033 1.128h-1.896a.564.564 0 0 1-.033-1.127l.033-.001h1.863z" fill="#FE7624"/>
    <path fill-rule="evenodd" clip-rule="evenodd" d="M121.847 74.676c1.25 0 2.187 1.173 1.931 2.403l-.011.05-8.504 33.247a.565.565 0 0 1-1.101-.247l.007-.033 8.502-33.235c.121-.52-.269-1.032-.788-1.056h-.036a.565.565 0 1 1 0-1.13z" fill="#fff"/>
    <path fill-rule="evenodd" clip-rule="evenodd" d="M181.639 5.625h.033l.244.01.693.02.192.008a.564.564 0 1 1-.057 1.128l-.244-.01-.693-.02a13.645 13.645 0 0 1-.192-.008.564.564 0 0 1 .024-1.128zM185 6.848l1.595.03.642.011a.564.564 0 1 0 .019-1.129l-1.651-.03-.582-.011A.565.565 0 0 0 185 6.848zm4.471.077 2.236.036a.565.565 0 0 0 .019-1.129l-2.237-.036a.564.564 0 0 0-.018 1.129zm4.469.08.643.016c.558.014 1.084.029 1.588.045a.564.564 0 0 0 .037-1.128l-.778-.024c-.465-.013-.95-.026-1.464-.037a.564.564 0 1 0-.026 1.128zm4.454.15c.782.038 1.518.083 2.218.135a.564.564 0 1 0 .083-1.126 90.788 90.788 0 0 0-2.245-.137.564.564 0 1 0-.056 1.128zm4.422.338c.767.084 1.494.18 2.188.291a.565.565 0 0 0 .178-1.114 46.258 46.258 0 0 0-2.243-.3.564.564 0 1 0-.123 1.123zm4.349.705c.738.168 1.44.358 2.112.571a.565.565 0 1 0 .342-1.075 26.857 26.857 0 0 0-2.204-.597.564.564 0 1 0-.25 1.1zm4.15 1.335c.673.293 1.316.62 1.935.981a.564.564 0 0 0 .57-.975c-.658-.384-1.34-.73-2.053-1.041a.564.564 0 1 0-.452 1.035zm3.739 2.188c.567.432 1.115.902 1.647 1.414a.564.564 0 1 0 .783-.813 19.82 19.82 0 0 0-1.746-1.5.564.564 0 0 0-.684.899zm3.134 3.006c.455.539.901 1.114 1.338 1.73a.565.565 0 0 0 .921-.653 26.916 26.916 0 0 0-1.398-1.806.564.564 0 1 0-.861.73zm2.543 3.563a39.21 39.21 0 0 1 1.093 1.914.564.564 0 1 0 .995-.533c-.37-.69-.744-1.346-1.124-1.97a.565.565 0 0 0-.964.589zm2.091 3.886c.308.643.614 1.315.918 2.015a.565.565 0 0 0 1.036-.45 61.805 61.805 0 0 0-.936-2.052.564.564 0 1 0-1.018.487zm1.771 4.064.116.29.116.295c.199.51.406 1.01.622 1.502a.564.564 0 1 0 1.033-.454c-.209-.478-.41-.963-.604-1.459l-.156-.397-.078-.196a.565.565 0 0 0-1.049.418zm1.829 4.138a34.87 34.87 0 0 0 1.105 1.987.564.564 0 1 0 .968-.58 34.056 34.056 0 0 1-1.069-1.924.564.564 0 0 0-1.004.517zm2.342 3.9c.438.628.894 1.234 1.368 1.819a.563.563 0 1 0 .877-.711 30.258 30.258 0 0 1-1.319-1.754.564.564 0 1 0-.926.646zm2.866 3.53a29.27 29.27 0 0 0 1.626 1.596.564.564 0 1 0 .758-.836c-.537-.488-1.058-1-1.563-1.535a.565.565 0 1 0-.821.775zm3.382 3.07c.605.466 1.225.906 1.86 1.318a.565.565 0 0 0 .615-.947 26.84 26.84 0 0 1-1.786-1.266.565.565 0 0 0-.689.894zm3.817 2.477c.672.361 1.357.694 2.053.997a.565.565 0 0 0 .451-1.035c-.668-.29-1.324-.61-1.969-.956a.565.565 0 0 0-.535.994zm4.185 1.82c.722.246 1.453.46 2.19.644a.564.564 0 1 0 .273-1.095 26.428 26.428 0 0 1-2.1-.617.565.565 0 0 0-.363 1.069zm8.98 1.458a26.835 26.835 0 0 0 2.281-.111.565.565 0 0 0-.103-1.124c-.724.066-1.453.102-2.185.106a.564.564 0 1 0 .007 1.13zm4.536-.415a25.523 25.523 0 0 0 2.23-.505.563.563 0 1 0-.298-1.088c-.699.191-1.41.352-2.132.482a.565.565 0 0 0 .2 1.11zm4.408-1.212c.72-.271 1.421-.574 2.102-.909a.565.565 0 0 0-.498-1.013c-.648.318-1.316.607-2.002.865a.564.564 0 1 0 .398 1.057zm4.11-2.024c.655-.41 1.282-.85 1.879-1.32a.564.564 0 1 0-.699-.887c-.565.445-1.159.862-1.779 1.25a.565.565 0 0 0 .599.957zm3.611-2.824a13.583 13.583 0 0 0 1.543-1.75.565.565 0 0 0-.908-.67 12.5 12.5 0 0 1-1.414 1.603.564.564 0 1 0 .779.817zm2.765-3.742c.348-.697.635-1.422.858-2.17a.564.564 0 1 0-1.082-.322c-.204.684-.467 1.35-.786 1.987a.564.564 0 1 0 1.01.505zm1.327-4.456a13.535 13.535 0 0 0 .067-2.337.565.565 0 0 0-1.127.064 12.42 12.42 0 0 1-.062 2.143.564.564 0 1 0 1.122.13zm-.267-4.65a13.477 13.477 0 0 0-.729-2.218.565.565 0 0 0-1.038.445c.281.655.504 1.334.668 2.03a.564.564 0 1 0 1.099-.257zm-1.827-4.27a13.523 13.523 0 0 0-1.438-1.836.565.565 0 0 0-.826.77c.487.522.929 1.085 1.319 1.683a.564.564 0 1 0 .945-.616zm-3.177-3.405a13.503 13.503 0 0 0-1.976-1.24.565.565 0 0 0-.515 1.003c.635.327 1.241.707 1.81 1.138a.565.565 0 0 0 .681-.9zm-4.128-2.117a13.424 13.424 0 0 0-2.281-.495.564.564 0 1 0-.142 1.12c.711.09 1.409.243 2.088.453a.565.565 0 0 0 .335-1.078zm-4.62-.591c-.784.035-1.556.138-2.313.305a.565.565 0 0 0 .244 1.102 12.379 12.379 0 0 1 2.12-.28.564.564 0 0 0-.051-1.127zm-4.542 1.006c-.72.299-1.413.66-2.07 1.078a.565.565 0 0 0 .606.952 12.296 12.296 0 0 1 1.896-.987.565.565 0 0 0-.432-1.043zm-3.922 2.497a13.592 13.592 0 0 0-1.582 1.714.565.565 0 0 0 .892.692 12.45 12.45 0 0 1 1.451-1.572.565.565 0 0 0-.761-.834zm-2.844 3.665a13.52 13.52 0 0 0-.91 2.149.565.565 0 0 0 1.074.348c.221-.68.5-1.338.834-1.968a.564.564 0 1 0-.998-.529zm-1.465 4.386c-.139.708-.258 1.46-.353 2.251a.564.564 0 1 0 1.121.134c.091-.762.206-1.487.34-2.168a.565.565 0 0 0-1.108-.217zm-.54 4.521a30.279 30.279 0 0 0-.021 2.277.564.564 0 1 0 1.128-.032 29.109 29.109 0 0 1 .021-2.193.565.565 0 0 0-1.128-.052zm.132 4.55c.081.759.193 1.512.337 2.258a.564.564 0 1 0 1.109-.214 25.696 25.696 0 0 1-.324-2.163.564.564 0 1 0-1.122.12zm.87 4.484c.212.734.457 1.457.736 2.167a.565.565 0 0 0 1.051-.414c-.267-.677-.5-1.366-.702-2.066a.565.565 0 0 0-1.085.313zm1.682 4.26c.348.677.729 1.338 1.146 1.983a.565.565 0 0 0 .948-.613 21.804 21.804 0 0 1-1.089-1.886.565.565 0 0 0-1.005.515zm2.485 3.843c.472.59.976 1.163 1.514 1.717a.564.564 0 1 0 .81-.786 22.83 22.83 0 0 1-1.442-1.636.564.564 0 1 0-.882.705zm3.178 3.28c.568.487 1.167.957 1.796 1.41a.564.564 0 1 0 .659-.917 25.53 25.53 0 0 1-1.72-1.35.564.564 0 1 0-.735.856zm3.702 2.668c.636.386 1.298.756 1.987 1.109a.565.565 0 1 0 .515-1.004 31.051 31.051 0 0 1-1.917-1.07.564.564 0 1 0-.585.965zm4.044 2.084c.68.296 1.382.577 2.106.843a.563.563 0 1 0 .39-1.059 38.115 38.115 0 0 1-2.045-.82.565.565 0 0 0-.451 1.036zm4.248 1.568c.706.22 1.431.427 2.175.62a.564.564 0 1 0 .285-1.092 47.761 47.761 0 0 1-2.125-.606.564.564 0 1 0-.335 1.078zm4.374 1.147c.722.156 1.46.302 2.214.436a.565.565 0 0 0 .198-1.111 58.882 58.882 0 0 1-2.173-.428.564.564 0 0 0-.239 1.103zm4.437.792c.731.105 1.476.2 2.235.284a.565.565 0 0 0 .126-1.122 72.356 72.356 0 0 1-2.201-.28.564.564 0 0 0-.16 1.118z" fill="#FE7624"/>
    <path fill-rule="evenodd" clip-rule="evenodd" d="M247.447 46.282c.752.122 1.508.213 2.265.271a.565.565 0 1 0 .088-1.125 26.177 26.177 0 0 1-2.172-.26.565.565 0 1 0-.181 1.114zM278.374 61.544a.565.565 0 0 1 .618-.506l.148.014.349.028.406.031.226.021a.564.564 0 1 1-.113 1.123l-.148-.014a26.846 26.846 0 0 0-.349-.027l-.406-.032-.226-.02a.564.564 0 0 1-.505-.618zM175.378 14.337 162.848 2.39 184.391 0l-3.067 4.59 1.185 5.006-3.368-1.355-3.763 6.096z" fill="#FE7624"/>
    <path fill-rule="evenodd" clip-rule="evenodd" d="m164.563 2.412 16.143 1.185a.565.565 0 0 1-.049 1.127l-.034-.001-16.143-1.185a.564.564 0 0 1 .05-1.128l.033.002z" fill="#fff"/>
    <path fill-rule="evenodd" clip-rule="evenodd" d="M163.993 2.776a.565.565 0 0 1 .696-.34l.031.01 13.905 5.231a.565.565 0 0 1-.366 1.067l-.032-.01-13.904-5.23a.565.565 0 0 1-.33-.728z" fill="#fff"/>
    <path fill-rule="evenodd" clip-rule="evenodd" d="M312.764 110.594a.564.564 0 0 1 .033 1.128l-.033.001H1.094a.565.565 0 0 1-.032-1.128l.033-.001h311.669z" fill="#2E186A"/>
</svg>
