<svg width="72" height="79" viewBox="0 0 72 79" fill="none" xmlns="http://www.w3.org/2000/svg">
    <path d="M40.375 0H0v79a85.02 85.02 0 0 0 7.003-5.334A77.832 77.832 0 0 0 18.965 60.95a75.695 75.695 0 0 0 4.712-7.157c.76-1.295 1.449-2.615 2.025-3.737l.699-1.425.663-1.439.427-.974a68.09 68.09 0 0 0 2.839-7.845c.196-.674.38-1.344.548-2.011l-8.557-.395 18.246-19.506 15.759 21.07-8.274-.38-.158.475-.213.625-.22.615a71.565 71.565 0 0 1-1.91 4.774 83.38 83.38 0 0 1-4.66 8.997l-.652 1.083-1.01 1.6-1.044 1.578c-1.153 1.677-2.06 2.934-2.948 4.083a94.073 94.073 0 0 1-2.546 3.137l4.795.28c21.76 0 33.708-14.719 33.708-33.205C71.19 14.21 60.75 0 40.374 0z" fill="#1748AF"/>
</svg>
