<svg width="335" height="40" viewBox="0 0 335 40" fill="none" xmlns="http://www.w3.org/2000/svg">
    <g clip-path="url(#brnkxotoya)" fill="#1748AF">
        <path d="M48.124 19.359v3.95h-4.499V7.667h7.33c3.7 0 5.596 2.58 5.596 5.664 0 3.357-2.17 6.029-6.12 6.029h-2.307zm0-7.72v3.746h1.827c1.234 0 2.01-.684 2.01-1.873 0-1.188-.663-1.872-2.01-1.872h-1.827zM66.829 22.51a5.36 5.36 0 0 1-2.923.869c-3.198 0-5.847-2.582-5.847-6.008 0-3.425 2.65-5.982 5.847-5.982a5.36 5.36 0 0 1 2.923.868v-.753h4.02V23.31h-4.02v-.801zm-4.82-5.07c0 1.37 1.12 2.467 2.445 2.467 1.324 0 2.42-1.096 2.42-2.467 0-1.37-1.073-2.467-2.42-2.467a2.437 2.437 0 0 0-2.444 2.467zM80.692 23.653c-1.097 3.174-2.788 3.973-5.437 3.973h-1.37V24.04h1.255c.8 0 1.417-.366 1.553-1.165l-4.27-11.396h4.475l1.827 6.097 1.873-6.097h4.317L80.69 23.65l.002.002zM91.242 19.359v3.95h-4.499V7.667h7.33c3.7 0 5.595 2.58 5.595 5.664 0 3.357-2.17 6.029-6.12 6.029h-2.306zm0-7.72v3.746h1.827c1.234 0 2.01-.684 2.01-1.873 0-1.188-.663-1.872-2.01-1.872h-1.827zM109.948 22.51a5.356 5.356 0 0 1-2.923.869c-3.197 0-5.846-2.582-5.846-6.008 0-3.425 2.649-5.982 5.846-5.982 1.074 0 2.078.32 2.923.868v-.753h4.02V23.31h-4.02v-.801zm-4.819-5.07c0 1.37 1.12 2.467 2.444 2.467 1.325 0 2.421-1.096 2.421-2.467 0-1.37-1.073-2.467-2.421-2.467a2.438 2.438 0 0 0-2.444 2.467zM119.927 12.575c.731-.868 1.942-1.324 3.267-1.324 2.762 0 4.545 1.942 4.545 4.773v7.286h-4.02v-6.326c0-1.14-.617-2.032-1.804-2.032-1.096 0-1.919.8-1.919 2.17v6.19h-4.019V11.48h3.95v1.096-.002zM138.061 23.653c-4.888 0-8.45-3.633-8.45-8.131 0-4.5 3.357-8.199 8.588-8.199 3.586 0 5.869 1.78 6.874 3.425l-3.541 2.535c-.912-1.166-1.986-1.804-3.448-1.804-2.216 0-3.861 1.689-3.861 4.11 0 2.42 1.737 4.02 3.882 4.02 1.325 0 2.398-.549 3.084-1.69h-3.586v-3.607h8.518v1.165c0 4.955-3.63 8.176-8.062 8.176h.002zM160.465 17.396c0 3.517-2.854 6.21-6.349 6.21-3.494 0-6.348-2.694-6.348-6.21s2.877-6.19 6.348-6.19c3.472 0 6.349 2.719 6.349 6.19zm-8.793.067c0 1.37 1.12 2.467 2.444 2.467 1.325 0 2.444-1.096 2.444-2.467a2.452 2.452 0 0 0-2.444-2.467 2.438 2.438 0 0 0-2.444 2.467zM20.443 0H0v40a43.048 43.048 0 0 0 3.546-2.7 39.41 39.41 0 0 0 6.057-6.44 38.346 38.346 0 0 0 2.385-3.623c.386-.656.734-1.324 1.026-1.892l.354-.721.335-.729.216-.493a34.487 34.487 0 0 0 1.438-3.972c.099-.342.193-.681.278-1.019l-4.333-.2 9.238-9.876 7.98 10.668-4.19-.192-.08.24-.108.317-.11.311c-.29.808-.607 1.6-.968 2.418a42.214 42.214 0 0 1-2.36 4.555l-.33.548-.511.81-.529.8a45.398 45.398 0 0 1-1.492 2.067c-.414.54-.851 1.064-1.29 1.588l2.428.141c11.018 0 17.068-7.452 17.068-16.812C36.046 7.196 30.76 0 20.443 0z"/>
    </g>
    <path stroke="#353E54" stroke-width="1.5" d="M177.215 0v28"/>
    <path d="M194.775 21c-.154 0-.273-.042-.357-.126a.53.53 0 0 1-.126-.357V6.804c0-.154.042-.273.126-.357a.445.445 0 0 1 .357-.147h5.334c1.036 0 1.932.168 2.688.504.77.336 1.365.84 1.785 1.512.42.658.63 1.484.63 2.478 0 .994-.21 1.82-.63 2.478-.42.658-1.015 1.155-1.785 1.491-.756.336-1.652.504-2.688.504h-3.717v5.25c0 .14-.049.259-.147.357-.084.084-.203.126-.357.126h-1.113zm1.596-7.497h3.633c1.036 0 1.813-.231 2.331-.693.518-.462.777-1.134.777-2.016 0-.868-.252-1.54-.756-2.016s-1.288-.714-2.352-.714h-3.633v5.439zm13.962 7.707a4.3 4.3 0 0 1-1.911-.42 3.695 3.695 0 0 1-1.386-1.134 2.66 2.66 0 0 1-.525-1.617c0-.966.392-1.736 1.176-2.31.784-.574 1.806-.952 3.066-1.134l3.129-.441v-.609c0-.672-.196-1.197-.588-1.575-.378-.378-1.001-.567-1.869-.567-.63 0-1.141.126-1.533.378a2.047 2.047 0 0 0-.798.966c-.084.21-.231.315-.441.315h-.945c-.154 0-.273-.042-.357-.126a.564.564 0 0 1-.105-.336c0-.21.077-.469.231-.777.168-.308.42-.609.756-.903.336-.294.763-.539 1.281-.735.532-.21 1.176-.315 1.932-.315.84 0 1.547.112 2.121.336.574.21 1.022.497 1.344.861.336.364.574.777.714 1.239.154.462.231.931.231 1.407v6.804c0 .14-.049.259-.147.357a.454.454 0 0 1-.336.126h-.966c-.154 0-.273-.042-.357-.126a.53.53 0 0 1-.126-.357v-.903a4.103 4.103 0 0 1-.735.756 4.26 4.26 0 0 1-1.155.609c-.462.154-1.029.231-1.701.231zm.441-1.575c.574 0 1.099-.119 1.575-.357.476-.252.847-.637 1.113-1.155.28-.518.42-1.169.42-1.953v-.588l-2.436.357c-.994.14-1.743.378-2.247.714-.504.322-.756.735-.756 1.239 0 .392.112.721.336.987.238.252.532.441.882.567a3.38 3.38 0 0 0 1.113.189zm9.786 5.355a.403.403 0 0 1-.294-.126.403.403 0 0 1-.126-.294.69.69 0 0 1 .021-.168 1.08 1.08 0 0 1 .084-.21l1.617-3.843-4.011-9.471c-.07-.168-.105-.287-.105-.357a.427.427 0 0 1 .441-.441h1.029c.14 0 .252.035.336.105.084.07.14.154.168.252l3.192 7.644 3.276-7.644a.794.794 0 0 1 .168-.252c.084-.07.203-.105.357-.105h.987c.126 0 .231.042.315.126a.403.403 0 0 1 .126.294c0 .07-.035.196-.105.378l-5.964 13.755a.666.666 0 0 1-.189.252c-.07.07-.182.105-.336.105h-.987zM230.971 21c-.154 0-.273-.042-.357-.126a.53.53 0 0 1-.126-.357V6.804c0-.154.042-.273.126-.357a.445.445 0 0 1 .357-.147h5.334c1.036 0 1.932.168 2.688.504.77.336 1.365.84 1.785 1.512.42.658.63 1.484.63 2.478 0 .994-.21 1.82-.63 2.478-.42.658-1.015 1.155-1.785 1.491-.756.336-1.652.504-2.688.504h-3.717v5.25c0 .14-.049.259-.147.357-.084.084-.203.126-.357.126h-1.113zm1.596-7.497h3.633c1.036 0 1.813-.231 2.331-.693.518-.462.777-1.134.777-2.016 0-.868-.252-1.54-.756-2.016s-1.288-.714-2.352-.714h-3.633v5.439zm13.962 7.707a4.3 4.3 0 0 1-1.911-.42 3.695 3.695 0 0 1-1.386-1.134 2.66 2.66 0 0 1-.525-1.617c0-.966.392-1.736 1.176-2.31.784-.574 1.806-.952 3.066-1.134l3.129-.441v-.609c0-.672-.196-1.197-.588-1.575-.378-.378-1.001-.567-1.869-.567-.63 0-1.141.126-1.533.378a2.047 2.047 0 0 0-.798.966c-.084.21-.231.315-.441.315h-.945c-.154 0-.273-.042-.357-.126a.564.564 0 0 1-.105-.336c0-.21.077-.469.231-.777.168-.308.42-.609.756-.903.336-.294.763-.539 1.281-.735.532-.21 1.176-.315 1.932-.315.84 0 1.547.112 2.121.336.574.21 1.022.497 1.344.861.336.364.574.777.714 1.239.154.462.231.931.231 1.407v6.804c0 .14-.049.259-.147.357a.454.454 0 0 1-.336.126h-.966c-.154 0-.273-.042-.357-.126a.53.53 0 0 1-.126-.357v-.903a4.103 4.103 0 0 1-.735.756 4.26 4.26 0 0 1-1.155.609c-.462.154-1.029.231-1.701.231zm.441-1.575c.574 0 1.099-.119 1.575-.357.476-.252.847-.637 1.113-1.155.28-.518.42-1.169.42-1.953v-.588l-2.436.357c-.994.14-1.743.378-2.247.714-.504.322-.756.735-.756 1.239 0 .392.112.721.336.987.238.252.532.441.882.567a3.38 3.38 0 0 0 1.113.189zM255.554 21a.53.53 0 0 1-.357-.126.53.53 0 0 1-.126-.357v-9.954c0-.14.042-.252.126-.336a.486.486 0 0 1 .357-.147h.987a.42.42 0 0 1 .336.147.42.42 0 0 1 .147.336v.924a4.203 4.203 0 0 1 1.365-1.155c.56-.308 1.274-.462 2.142-.462.91 0 1.68.203 2.31.609a3.644 3.644 0 0 1 1.449 1.659c.322.7.483 1.519.483 2.457v5.922a.53.53 0 0 1-.126.357.454.454 0 0 1-.336.126h-1.05a.53.53 0 0 1-.357-.126.53.53 0 0 1-.126-.357V14.7c0-.98-.238-1.743-.714-2.289-.476-.56-1.176-.84-2.1-.84-.868 0-1.568.28-2.1.84-.518.546-.777 1.309-.777 2.289v5.817c0 .14-.049.259-.147.357a.454.454 0 0 1-.336.126h-1.05zm17.859.21c-1.232 0-2.282-.231-3.15-.693a4.823 4.823 0 0 1-1.974-1.953c-.448-.84-.7-1.827-.756-2.961a89.98 89.98 0 0 1 0-3.948c.056-1.134.308-2.114.756-2.94a4.828 4.828 0 0 1 1.995-1.932c.868-.462 1.911-.693 3.129-.693.994 0 1.855.14 2.583.42.728.28 1.323.637 1.785 1.071.476.42.826.861 1.05 1.323.238.462.364.868.378 1.218a.366.366 0 0 1-.105.315.508.508 0 0 1-.336.105h-1.239c-.14 0-.245-.028-.315-.084a.901.901 0 0 1-.168-.294 3.41 3.41 0 0 0-.63-1.071c-.28-.35-.665-.637-1.155-.861-.476-.238-1.092-.357-1.848-.357-1.106 0-2.002.301-2.688.903-.672.602-1.036 1.596-1.092 2.982a55.463 55.463 0 0 0 0 3.738c.056 1.4.427 2.408 1.113 3.024.686.602 1.582.903 2.688.903.742 0 1.4-.133 1.974-.399a3.14 3.14 0 0 0 1.386-1.281c.336-.574.504-1.302.504-2.184v-.882h-3.15a.53.53 0 0 1-.357-.126.56.56 0 0 1-.126-.378v-.672c0-.154.042-.273.126-.357a.486.486 0 0 1 .357-.147h4.746c.154 0 .273.049.357.147.084.084.126.203.126.357v2.016c0 1.148-.238 2.149-.714 3.003-.462.854-1.141 1.519-2.037 1.995-.896.462-1.967.693-3.213.693zm13.16 0c-1.064 0-1.953-.203-2.667-.609a4.113 4.113 0 0 1-1.638-1.68c-.378-.728-.588-1.554-.63-2.478a15.896 15.896 0 0 1-.021-.903c0-.378.007-.679.021-.903.042-.938.252-1.764.63-2.478a4.254 4.254 0 0 1 1.659-1.68c.714-.406 1.596-.609 2.646-.609 1.05 0 1.932.203 2.646.609.714.406 1.26.966 1.638 1.68.392.714.609 1.54.651 2.478.014.224.021.525.021.903 0 .364-.007.665-.021.903-.042.924-.252 1.75-.63 2.478a4.113 4.113 0 0 1-1.638 1.68c-.714.406-1.603.609-2.667.609zm0-1.617c.868 0 1.561-.273 2.079-.819.518-.56.798-1.372.84-2.436.014-.21.021-.476.021-.798 0-.322-.007-.588-.021-.798-.042-1.064-.322-1.869-.84-2.415-.518-.56-1.211-.84-2.079-.84-.868 0-1.568.28-2.1.84-.518.546-.791 1.351-.819 2.415-.014.21-.021.476-.021.798 0 .322.007.588.021.798.028 1.064.301 1.876.819 2.436.532.546 1.232.819 2.1.819zM300.062 21c-.154 0-.273-.042-.357-.126a.53.53 0 0 1-.126-.357V6.804c0-.154.042-.273.126-.357a.445.445 0 0 1 .357-.147h5.334c1.036 0 1.932.168 2.688.504.77.336 1.365.84 1.785 1.512.42.658.63 1.484.63 2.478 0 .994-.21 1.82-.63 2.478-.42.658-1.015 1.155-1.785 1.491-.756.336-1.652.504-2.688.504h-3.717v5.25c0 .14-.049.259-.147.357-.084.084-.203.126-.357.126h-1.113zm1.596-7.497h3.633c1.036 0 1.813-.231 2.331-.693.518-.462.777-1.134.777-2.016 0-.868-.252-1.54-.756-2.016s-1.288-.714-2.352-.714h-3.633v5.439zm15.451 7.707c-1.064 0-1.953-.203-2.667-.609a4.113 4.113 0 0 1-1.638-1.68c-.378-.728-.588-1.554-.63-2.478a15.896 15.896 0 0 1-.021-.903c0-.378.007-.679.021-.903.042-.938.252-1.764.63-2.478a4.254 4.254 0 0 1 1.659-1.68c.714-.406 1.596-.609 2.646-.609 1.05 0 1.932.203 2.646.609.714.406 1.26.966 1.638 1.68.392.714.609 1.54.651 2.478.014.224.021.525.021.903 0 .364-.007.665-.021.903-.042.924-.252 1.75-.63 2.478a4.113 4.113 0 0 1-1.638 1.68c-.714.406-1.603.609-2.667.609zm0-1.617c.868 0 1.561-.273 2.079-.819.518-.56.798-1.372.84-2.436.014-.21.021-.476.021-.798 0-.322-.007-.588-.021-.798-.042-1.064-.322-1.869-.84-2.415-.518-.56-1.211-.84-2.079-.84-.868 0-1.568.28-2.1.84-.518.546-.791 1.351-.819 2.415-.014.21-.021.476-.021.798 0 .322.007.588.021.798.028 1.064.301 1.876.819 2.436.532.546 1.232.819 2.1.819zm11.366 1.617c-.784 0-1.456-.098-2.016-.294-.56-.196-1.015-.434-1.365-.714-.35-.28-.616-.56-.798-.84-.168-.28-.259-.504-.273-.672-.014-.154.035-.273.147-.357a.559.559 0 0 1 .336-.126h.924c.084 0 .147.014.189.042.056.014.126.07.21.168.182.196.385.392.609.588.224.196.497.357.819.483.336.126.749.189 1.239.189.714 0 1.302-.133 1.764-.399.462-.28.693-.686.693-1.218 0-.35-.098-.63-.294-.84-.182-.21-.518-.399-1.008-.567-.476-.168-1.134-.343-1.974-.525-.84-.196-1.505-.434-1.995-.714-.49-.294-.84-.637-1.05-1.029a2.927 2.927 0 0 1-.315-1.365c0-.518.154-1.015.462-1.491.308-.49.756-.889 1.344-1.197.602-.308 1.351-.462 2.247-.462.728 0 1.351.091 1.869.273.518.182.945.413 1.281.693.336.266.588.532.756.798.168.266.259.49.273.672a.422.422 0 0 1-.126.357.502.502 0 0 1-.336.126h-.882a.48.48 0 0 1-.252-.063 1.577 1.577 0 0 1-.168-.147 4.474 4.474 0 0 0-.504-.546 1.977 1.977 0 0 0-.735-.441c-.294-.126-.686-.189-1.176-.189-.7 0-1.225.147-1.575.441-.35.294-.525.665-.525 1.113 0 .266.077.504.231.714.154.21.448.399.882.567.434.168 1.078.35 1.932.546.924.182 1.652.427 2.184.735.532.308.91.665 1.134 1.071.224.406.336.875.336 1.407a2.72 2.72 0 0 1-.525 1.617c-.336.49-.84.882-1.512 1.176-.658.28-1.477.42-2.457.42z" fill="#353E54"/>
    <defs>
        <clipPath id="brnkxotoya">
            <path fill="#fff" d="M0 0h160.465v40H0z"/>
        </clipPath>
    </defs>
</svg>
