<svg width="24" height="24" viewBox="0 0 24 24" fill="none" xmlns="http://www.w3.org/2000/svg">
    <path fill-rule="evenodd" clip-rule="evenodd" d="M6.27 9.917a.52.52 0 0 1-.52-.521V6.792c0-.576.466-1.042 1.042-1.042h2.604a.52.52 0 1 1 0 1.042H6.792v2.604a.52.52 0 0 1-.521.52zm7.813-3.646a.52.52 0 0 1 .521-.521h2.604c.576 0 1.042.466 1.042 1.042v2.604a.52.52 0 0 1-1.042 0V6.792h-2.604a.52.52 0 0 1-.52-.521zM9.396 18.25a.52.52 0 0 0 0-1.043H6.792v-2.604a.52.52 0 1 0-1.042 0v2.605c0 .575.466 1.041 1.042 1.041h2.604zm4.687-.522c0 .288.233.521.521.521h2.604c.576 0 1.042-.466 1.042-1.041v-2.605a.52.52 0 1 0-1.042 0v2.605h-2.604a.52.52 0 0 0-.52.52zm1.563-9.375H12.52v3.125h3.125V8.354zm-7.292 0h3.125v3.125H8.354V8.354zm0 4.167h3.125v3.125H8.354V12.52zm4.167 0h.52v.52h-.52v-.52zm1.041 0h.521v.52h-.52v-.52zm0 .52h-.52v.522h-.521v.52h.52v.521h.521v-.52h-.52v-.521h.52v-.521zm1.042.522h.52v.52h-.52v.521h-.52v-.52h.52v-.521h-.52v-.521h.52v.52zm-1.562 1.041h-.521v.521h.52v.521h.521v-.52h-.52v-.522zm2.083-2.083h-.52v.52h.52v-.52zm-1.042 1.042h-.52v.52h.52v-.52zm0 1.041h-.52v.521h.52v-.52zm.521 0h.52v.521h-.52v.521h-.52v-.52h.52v-.522z" fill="#2C2D45"/>
</svg>
