<svg xmlns="http://www.w3.org/2000/svg" xmlns:xlink="http://www.w3.org/1999/xlink" width="131" height="22" viewBox="0 0 131 22">
    <defs>
        <path id="ic8g343pga" d="M0 21.855L130.868 21.855 130.868 0 0 0z"/>
    </defs>
    <g fill="none" fill-rule="evenodd">
        <g>
            <g>
                <path   d="M30 0h1045c16.569 0 30 13.431 30 30v471H0V30C0 13.431 13.431 0 30 0z" transform="translate(-457 -6682) translate(407 6626)"/>
                <g transform="translate(-457 -6682) translate(407 6626) translate(50 56)">
                    <path fill="#fff" d="M25.826 5.646h2.347v1.33c.354-.487.808-.867 1.362-1.141.553-.273 1.184-.41 1.893-.41.885 0 1.634.177 2.246.532.612.355 1.08.843 1.405 1.463.384-.62.897-1.108 1.54-1.463.64-.355 1.375-.532 2.201-.532 1.52 0 2.664.418 3.431 1.252.767.836 1.151 1.97 1.151 3.404v6.652H40.99v-6.497c0-.842-.217-1.511-.654-2.006-.435-.496-1.073-.743-1.914-.743-.752 0-1.38.25-1.882.755-.501.5-.752 1.248-.752 2.238v6.253h-2.391v-6.607c0-.814-.218-1.456-.653-1.93-.435-.472-1.051-.709-1.848-.709-.783 0-1.428.259-1.938.776-.508.518-.763 1.286-.763 2.306v6.164h-2.369V5.646zM50.484 14.737c.472 0 .914-.092 1.328-.277.413-.185.775-.44 1.084-.765.31-.325.553-.702.73-1.131.177-.428.266-.887.266-1.375 0-.487-.089-.945-.265-1.374-.178-.43-.42-.805-.73-1.13-.31-.325-.672-.58-1.085-.766-.414-.185-.856-.277-1.328-.277-.488 0-.938.092-1.351.277-.414.186-.771.44-1.074.765-.302.326-.538.702-.708 1.13-.17.43-.254.888-.254 1.375 0 .488.084.947.254 1.375.17.429.406.806.708 1.131.303.326.66.58 1.074.765.413.185.863.277 1.35.277m0 2.218c-.796 0-1.542-.148-2.236-.444-.693-.295-1.303-.706-1.826-1.23-.524-.526-.933-1.139-1.228-1.841-.295-.702-.444-1.452-.444-2.251 0-.812.149-1.57.444-2.272.295-.702.704-1.312 1.228-1.829.523-.517 1.133-.924 1.826-1.22.694-.295 1.44-.444 2.237-.444.797 0 1.542.149 2.236.445.693.295 1.301.702 1.825 1.22.524.516.933 1.126 1.229 1.828.295.702.443 1.46.443 2.272 0 .799-.148 1.549-.443 2.251-.296.702-.705 1.315-1.229 1.84-.524.525-1.132.936-1.825 1.23-.694.297-1.44.445-2.236.445M57.626 5.646h2.346v1.442c.384-.517.864-.924 1.44-1.22.576-.296 1.231-.443 1.97-.443 1.401 0 2.501.425 3.298 1.275.797.85 1.196 2.037 1.196 3.558v6.475h-2.391v-6.275c0-.916-.226-1.641-.676-2.173-.45-.531-1.118-.798-2.002-.798-.797 0-1.465.28-2.004.843-.539.561-.808 1.329-.808 2.306v6.097h-2.369V5.646zM74.97 7.53c-.81 0-1.513.227-2.103.677-.59.452-1.003 1.031-1.24 1.74h6.62c-.207-.783-.595-1.381-1.163-1.795-.568-.414-1.273-.621-2.114-.621m-.044 9.424c-.87 0-1.66-.152-2.369-.455-.708-.304-1.31-.713-1.804-1.23-.494-.518-.874-1.123-1.14-1.819-.266-.694-.398-1.433-.398-2.217 0-.813.147-1.575.443-2.283.295-.71.697-1.324 1.206-1.841.509-.517 1.114-.927 1.815-1.23.701-.303 1.457-.456 2.27-.456.811 0 1.567.142 2.268.421.701.282 1.306.678 1.815 1.187.51.51.908 1.112 1.196 1.808.287.695.431 1.456.431 2.283v.82h-9.186c.133.858.502 1.563 1.106 2.118.606.555 1.395.831 2.37.831.766 0 1.405-.17 1.913-.51.51-.34.868-.797 1.074-1.374h2.546c-.428 1.227-1.103 2.192-2.026 2.893-.921.702-2.098 1.054-3.53 1.054M85.1 16.156L80.517 5.646 83.062 5.646 86.294 13.341 89.35 5.646 91.85 5.646 85.166 21.855 82.731 21.855zM93.083 7.775V.548h2.39v5.098h2.346v2.129h-2.346v4.412c0 .503.026.906.077 1.209.052.303.163.536.332.698.17.163.41.27.72.322.31.052.715.077 1.217.077v2.24h-.354c-.84 0-1.542-.074-2.103-.223-.56-.147-1.01-.394-1.35-.741-.34-.348-.58-.813-.718-1.397-.142-.585-.211-1.305-.211-2.162V7.775zM104.093 14.737c.472 0 .915-.092 1.328-.277.413-.185.775-.44 1.085-.765.31-.325.553-.702.73-1.131.177-.428.265-.887.265-1.375 0-.487-.088-.945-.265-1.374-.177-.43-.42-.805-.73-1.13-.31-.325-.672-.58-1.085-.766-.413-.185-.856-.277-1.328-.277-.487 0-.937.092-1.35.277-.414.186-.772.44-1.075.765-.302.326-.538.702-.707 1.13-.17.43-.254.888-.254 1.375 0 .488.084.947.254 1.375.17.429.405.806.707 1.131.303.326.66.58 1.074.765.414.185.864.277 1.351.277m0 2.218c-.797 0-1.542-.148-2.236-.444-.693-.295-1.303-.706-1.827-1.23-.524-.526-.932-1.139-1.228-1.841-.295-.702-.443-1.452-.443-2.251 0-.812.148-1.57.443-2.272.296-.702.704-1.312 1.228-1.829.524-.517 1.134-.924 1.827-1.22.694-.295 1.439-.444 2.236-.444.797 0 1.542.149 2.236.445.693.295 1.302.702 1.826 1.22.524.516.932 1.126 1.228 1.828.295.702.443 1.46.443 2.272 0 .799-.148 1.549-.443 2.251-.296.702-.704 1.315-1.228 1.84-.524.525-1.133.936-1.826 1.23-.694.297-1.439.445-2.236.445"/>
                    <mask id="skrhtnnr3b" fill="#fff">
                        <use xlink:href="#ic8g343pga"/>
                    </mask>
                    <path fill="#fff" d="M111.235 16.734L113.604 16.734 113.604.548 111.235.548zM115.528 16.733h2.39V5.646h-2.39v11.087zm-.399-14.59c0-.472.149-.857.444-1.153.295-.294.678-.442 1.15-.442.473 0 .856.148 1.151.442.296.296.443.68.443 1.154 0 .473-.147.858-.443 1.153-.295.296-.678.443-1.15.443-.473 0-.856-.147-1.151-.443-.295-.295-.444-.68-.444-1.153zM125.135 14.782c.502 0 .966-.096 1.394-.289.428-.191.797-.45 1.107-.776.31-.325.554-.705.73-1.141.178-.437.266-.906.266-1.41 0-.486-.088-.948-.265-1.384-.177-.437-.42-.817-.73-1.142-.31-.325-.68-.585-1.108-.776-.428-.192-.892-.288-1.394-.288-.487 0-.945.092-1.372.277-.429.185-.801.44-1.118.764-.318.326-.565.707-.741 1.143-.178.436-.266.905-.266 1.407 0 .503.088.976.266 1.42.176.443.423.828.74 1.153.318.324.69.58 1.119.764.427.186.885.278 1.372.278m-.332 2.173c-.708 0-1.39-.137-2.047-.41-.658-.274-1.245-.658-1.76-1.154-.518-.494-.93-1.097-1.24-1.806-.31-.71-.464-1.508-.464-2.395s.15-1.685.453-2.395c.302-.71.708-1.316 1.218-1.818.508-.503 1.098-.888 1.77-1.152.672-.267 1.37-.4 2.091-.4.739 0 1.432.147 2.082.444.65.295 1.18.702 1.594 1.22V5.645h2.368v11.087H128.5v-1.53c-.43.547-.966.975-1.617 1.286-.65.31-1.342.466-2.08.466" mask="url(#skrhtnnr3b)"/>
                    <path fill="#fff" d="M16.585 12.495c0 .894-.723 1.619-1.616 1.619H5.31c-.893 0-1.616-.725-1.616-1.619V5.308c0-1.483 1.823-2.186 2.815-1.086l2.469 2.735c.622.69 1.702.69 2.324 0l2.468-2.735c.992-1.1 2.815-.397 2.815 1.085v7.188zM15.975 0H4.305C1.926 0 0 1.93 0 4.311v9.177c0 2.38 1.927 4.31 4.304 4.31h11.671c2.377 0 4.304-1.93 4.304-4.31V4.31C20.28 1.931 18.352 0 15.975 0z" mask="url(#skrhtnnr3b)"/>
                    <path stroke="#fff" stroke-linejoin="round" stroke-width="1.568" d="M12.93 8.74c0 1.544-1.25 2.796-2.79 2.796-1.541 0-2.79-1.252-2.79-2.797" mask="url(#skrhtnnr3b)"/>
                </g>
            </g>
        </g>
    </g>
</svg>
