<svg xmlns="http://www.w3.org/2000/svg" width="94" height="80" fill="none" viewBox="0 0 94 80">
    <path fill="#FF4307" fill-rule="evenodd" d="M76.878 56.162c0 4.019-3.353 7.275-7.494 7.275H24.613c-4.138 0-7.49-3.256-7.49-7.275V23.856c0-6.665 8.45-9.825 13.046-4.881l11.446 12.297c2.883 3.097 7.89 3.097 10.774 0l11.439-12.297c4.6-4.944 13.05-1.784 13.05 4.88v32.307zM74.048 0H19.952C8.931 0 0 8.677 0 19.378v41.244C0 71.323 8.93 80 19.951 80H74.05C85.066 80 94 71.323 94 60.622V19.378C94 8.677 85.066 0 74.049 0z" clip-rule="evenodd"/>
    <path stroke="#FF4308" stroke-linejoin="round" stroke-width="6.353" d="M59.942 39.322c0 6.741-5.795 12.204-12.944 12.204-7.145 0-12.94-5.463-12.94-12.204"/>
</svg>
